<?xml version="1.0" encoding="UTF-8"?>
<svg width="1069px" height="564px" viewBox="0 0 1069 564" version="1.1" xmlns="http://www.w3.org/2000/svg" xmlns:xlink="http://www.w3.org/1999/xlink">
    <!-- Generator: Sketch 47.1 (45422) - http://www.bohemiancoding.com/sketch -->
    <title>trophies</title>
    <desc>Created with Sketch.</desc>
    <defs>
        <rect id="path-1" x="0" y="0" width="1069" height="564" rx="17"></rect>
        <path d="M28.5,1.5 L111.5,1.5" id="path-2"></path>
        <path d="M198.5,1.5 L281.5,1.5" id="path-3"></path>
        <path d="M367.5,1.5 L450.5,1.5" id="path-4"></path>
        <path d="M538.5,1.5 L621.5,1.5" id="path-5"></path>
        <path d="M708.5,1.5 L791.5,1.5" id="path-6"></path>
        <path d="M877.5,1.5 L960.5,2 C983.63657,7.32284972 995.209638,21.0728497 995.219205,43.25 C995.228917,65.7651202 983.655849,79.6817869 960.5,85 L34.5486121,85 C11.4095656,92.9273692 0.0254618139,108.583235 0.396300725,131.967596 C0.767139637,155.351958 12.1512434,170.029426 34.5486121,176 L110.423764,176" id="path-7"></path>
        <path d="M198.5,1.5 L281.5,1.5" id="path-8"></path>
        <path d="M367.5,1.5 L450.5,1.5" id="path-9"></path>
        <path d="M538.5,1.5 L621.5,1.5" id="path-10"></path>
        <path d="M708.5,1.5 L791.5,1.5" id="path-11"></path>
        <path d="M198.5,176.5 L281.5,176.5" id="path-12"></path>
        <path d="M367.5,176.5 L450.5,176.5" id="path-13"></path>
        <path d="M538.5,176.5 L621.5,176.5" id="path-14"></path>
        <path d="M708.5,176.5 L791.5,176.5" id="path-15"></path>
        <path d="M877.5,1.5 L960.5,2 C983.63657,7.32284972 995.209638,21.0728497 995.219205,43.25 C995.228917,65.7651202 983.655849,79.6817869 960.5,85 L34.5486121,85 C11.4095656,92.9273692 0.0254618139,108.583235 0.396300725,131.967596 C0.767139637,155.351958 12.1512434,170.029426 34.5486121,176 L110.423764,176" id="path-16"></path>
    </defs>
    <g id="Trophy_Infography" stroke="none" stroke-width="1" fill="none" fill-rule="evenodd">
        <g id="trophies">
            <g id="Rectangle">
                <use fill="#FFFFFF" fill-rule="evenodd" xlink:href="#path-1"></use>
                <rect stroke="#66B141" stroke-width="10" x="5" y="5" width="1059" height="554" rx="17"></rect>
            </g>
            <g id="trophy_active" transform="translate(141.000000, 56.000000)" fill-rule="nonzero" fill="#3271BF">
                <path d="M83.8965765,9.64079115 C82.5170612,8.01856705 80.5052924,7.08854136 78.3771484,7.08854136 L71.3920951,7.08854136 L71.3920951,4.90357654 C71.3920951,2.19980462 69.1920952,0 66.4885185,0 L19.1198871,0 C16.4159199,0 14.2165059,2.19980462 14.2165059,4.90338128 L14.2165059,7.0883461 L7.23067151,7.0883461 C5.10252749,7.0883461 3.09056346,8.01856705 1.7112434,9.64059589 C0.345982091,11.2458323 -0.244095093,13.354255 0.0927292424,15.4249925 C1.92817779,26.7110485 9.03077791,36.6816346 19.1111004,42.1506855 C20.0321441,44.3651346 21.0752256,46.4626228 22.2368302,48.4167897 C25.94717,54.6602437 30.5598084,58.9751099 35.6369715,61.0618586 C36.1514829,66.264379 32.6897097,71.1929489 27.4762548,72.3674407 C27.465125,72.3699791 27.4573146,72.3738843 27.44638,72.3764227 C26.4288776,72.619522 25.6714622,73.53256 25.6714622,74.6244566 L25.6714622,85.2394023 L21.3784652,85.2394023 C17.5509691,85.2394023 14.4371502,88.3532213 14.4371502,92.1807173 L14.4371502,97.659336 C14.4371502,98.9373158 15.4730071,99.9731727 16.7509869,99.9731727 L69.0782583,99.9731727 C70.3562382,99.9731727 71.3920951,98.9373158 71.3920951,97.659336 L71.3920951,92.1807173 C71.3920951,88.3532213 68.2782761,85.2394023 64.4507801,85.2394023 L60.1573926,85.2394023 L60.1573926,74.6246519 C60.1573926,73.5306074 59.3972435,72.6162025 58.3770075,72.3752511 C58.3674397,72.372908 58.3582625,72.3697838 58.3486947,72.3674407 C53.0957972,71.1851385 49.6275805,66.2069724 50.196179,60.9654 C55.1846938,58.8448711 59.7164944,54.5684712 63.3721612,48.4171802 C64.5337658,46.462818 65.5766521,44.3651346 66.497891,42.150295 C76.5776278,36.6810488 83.6798374,26.7106579 85.5152859,15.4249925 C85.8521102,13.354255 85.2620331,11.2460276 83.8965765,9.64079115 Z M4.66026249,14.6820263 C4.53998203,13.9425749 4.74441976,13.2167917 5.23608566,12.6384301 C5.7349762,12.0518676 6.46173572,11.7156291 7.23047625,11.7156291 L14.2163106,11.7156291 L14.2163106,15.9726981 C14.2163106,22.6478731 15.0682321,29.1137287 16.682841,35.026802 C10.3376563,30.012708 5.96889826,22.7289062 4.66026249,14.6820263 Z M64.4507801,89.8672711 C65.7266121,89.8672711 66.7646169,90.9052758 66.7646169,92.1811078 L66.7646169,95.3458897 L19.0646284,95.3458897 L19.0646284,92.1811078 C19.0646284,90.9052758 20.1026332,89.8672711 21.3784652,89.8672711 L64.4507801,89.8672711 L64.4507801,89.8672711 Z M55.5297191,76.9384886 L55.5297191,85.2395976 L30.2995262,85.2395976 L30.2995262,76.9384886 L55.5297191,76.9384886 Z M36.3676362,72.3110104 C36.9395542,71.6814906 37.4624618,70.9990552 37.9301106,70.2685857 C39.4720827,67.8592666 40.2814374,65.1221052 40.3177558,62.3265608 C41.1396072,62.4384451 41.9690737,62.49839 42.8055697,62.49839 C43.7156788,62.49839 44.6173917,62.4284868 45.5103179,62.2961002 C45.5630382,66.0527166 47.0251487,69.6086053 49.4836735,72.3108151 L36.3676362,72.3108151 L36.3676362,72.3110104 Z M66.7642263,15.9728934 C66.7642263,27.3720052 64.1465643,38.0547063 59.3937288,46.0525757 C54.8652477,53.6735924 48.9738484,57.8707166 42.8051791,57.8707166 C36.6355336,57.8707166 30.7437438,53.6737877 26.2146768,46.0529663 C21.4616461,38.0549016 18.8439841,27.3722005 18.8439841,15.9732839 L18.8439841,4.90338128 C18.8439841,4.7510781 18.9677792,4.62747822 19.1196919,4.62747822 L66.488128,4.62747822 C66.6404312,4.62747822 66.7642263,4.75127336 66.7642263,4.90338128 L66.7642263,15.9728934 L66.7642263,15.9728934 Z M80.9477527,14.6820263 C79.6391169,22.7283204 75.2707493,30.011927 68.9257599,35.0264115 C70.5401736,29.1133382 71.3920951,22.6478731 71.3920951,15.9728934 L71.3920951,11.7158243 L78.3771484,11.7158243 C79.1460842,11.7158243 79.8728437,12.0522581 80.371539,12.6386254 C80.8632049,13.2167917 81.0678379,13.9425749 80.9477527,14.6820263 Z" id="Shape"></path>
                <path d="M57.004541,18.2877064 C56.7321527,17.4504295 56.0081268,16.8400452 55.1366793,16.7131259 L48.1545549,15.6985524 L45.0321444,9.3717222 C44.6422093,8.58208881 43.8379313,8.08202671 42.9573065,8.08202671 C42.0764865,8.08202671 41.2722086,8.58208881 40.8824686,9.3717222 L37.7600582,15.6985524 L30.7779338,16.7131259 C29.906291,16.8396547 29.1822652,17.4502342 28.910072,18.2879017 C28.6380742,19.1257644 28.8649669,20.0450508 29.4956582,20.6599261 L34.5480233,25.5845907 L33.355177,32.5384024 C33.2061932,33.4065305 33.5629341,34.2836406 34.2756349,34.8014714 C34.9879451,35.3191069 35.9328106,35.3872528 36.7122905,34.9775963 L42.9573065,31.6946818 L49.2021274,34.9775963 C49.540709,35.1554786 49.9103371,35.2431506 50.2784031,35.2431506 C50.7579629,35.2431506 51.23557,35.0941668 51.6385877,34.8012761 C52.3512884,34.2834453 52.7080293,33.4063352 52.5590456,32.5382071 L51.3661993,25.5843955 L56.4185643,20.6597308 C57.0496462,20.0450508 57.2765389,19.1255692 57.004541,18.2877064 Z M47.2655339,23.1198176 C46.7201713,23.6513167 46.4712142,24.4171283 46.6000861,25.1679049 L47.2057842,28.700167 L44.0337776,27.0324472 C43.6969533,26.8551507 43.3269346,26.766893 42.9571113,26.766893 C42.5872879,26.766893 42.2174646,26.8555412 41.880445,27.0324472 L38.7084384,28.700167 L39.3141364,25.1679049 C39.4430083,24.4173236 39.1940512,23.6515119 38.6486887,23.1198176 L36.0827707,20.6185308 L39.6290916,20.1030432 C40.3826018,19.9936973 41.034186,19.5201906 41.3712056,18.8373647 L42.9573065,15.6237677 L44.5432122,18.8373647 C44.8804271,19.5201906 45.5316208,19.993502 46.2853262,20.1030432 L49.8316472,20.6185308 L47.2655339,23.1198176 Z" id="Shape"></path>
            </g>
            <g id="trophy_active" transform="translate(310.000000, 56.000000)" fill-rule="nonzero" fill="#3271BF">
                <path d="M83.8965765,9.64079115 C82.5170612,8.01856705 80.5052924,7.08854136 78.3771484,7.08854136 L71.3920951,7.08854136 L71.3920951,4.90357654 C71.3920951,2.19980462 69.1920952,0 66.4885185,0 L19.1198871,0 C16.4159199,0 14.2165059,2.19980462 14.2165059,4.90338128 L14.2165059,7.0883461 L7.23067151,7.0883461 C5.10252749,7.0883461 3.09056346,8.01856705 1.7112434,9.64059589 C0.345982091,11.2458323 -0.244095093,13.354255 0.0927292424,15.4249925 C1.92817779,26.7110485 9.03077791,36.6816346 19.1111004,42.1506855 C20.0321441,44.3651346 21.0752256,46.4626228 22.2368302,48.4167897 C25.94717,54.6602437 30.5598084,58.9751099 35.6369715,61.0618586 C36.1514829,66.264379 32.6897097,71.1929489 27.4762548,72.3674407 C27.465125,72.3699791 27.4573146,72.3738843 27.44638,72.3764227 C26.4288776,72.619522 25.6714622,73.53256 25.6714622,74.6244566 L25.6714622,85.2394023 L21.3784652,85.2394023 C17.5509691,85.2394023 14.4371502,88.3532213 14.4371502,92.1807173 L14.4371502,97.659336 C14.4371502,98.9373158 15.4730071,99.9731727 16.7509869,99.9731727 L69.0782583,99.9731727 C70.3562382,99.9731727 71.3920951,98.9373158 71.3920951,97.659336 L71.3920951,92.1807173 C71.3920951,88.3532213 68.2782761,85.2394023 64.4507801,85.2394023 L60.1573926,85.2394023 L60.1573926,74.6246519 C60.1573926,73.5306074 59.3972435,72.6162025 58.3770075,72.3752511 C58.3674397,72.372908 58.3582625,72.3697838 58.3486947,72.3674407 C53.0957972,71.1851385 49.6275805,66.2069724 50.196179,60.9654 C55.1846938,58.8448711 59.7164944,54.5684712 63.3721612,48.4171802 C64.5337658,46.462818 65.5766521,44.3651346 66.497891,42.150295 C76.5776278,36.6810488 83.6798374,26.7106579 85.5152859,15.4249925 C85.8521102,13.354255 85.2620331,11.2460276 83.8965765,9.64079115 Z M4.66026249,14.6820263 C4.53998203,13.9425749 4.74441976,13.2167917 5.23608566,12.6384301 C5.7349762,12.0518676 6.46173572,11.7156291 7.23047625,11.7156291 L14.2163106,11.7156291 L14.2163106,15.9726981 C14.2163106,22.6478731 15.0682321,29.1137287 16.682841,35.026802 C10.3376563,30.012708 5.96889826,22.7289062 4.66026249,14.6820263 Z M64.4507801,89.8672711 C65.7266121,89.8672711 66.7646169,90.9052758 66.7646169,92.1811078 L66.7646169,95.3458897 L19.0646284,95.3458897 L19.0646284,92.1811078 C19.0646284,90.9052758 20.1026332,89.8672711 21.3784652,89.8672711 L64.4507801,89.8672711 L64.4507801,89.8672711 Z M55.5297191,76.9384886 L55.5297191,85.2395976 L30.2995262,85.2395976 L30.2995262,76.9384886 L55.5297191,76.9384886 Z M36.3676362,72.3110104 C36.9395542,71.6814906 37.4624618,70.9990552 37.9301106,70.2685857 C39.4720827,67.8592666 40.2814374,65.1221052 40.3177558,62.3265608 C41.1396072,62.4384451 41.9690737,62.49839 42.8055697,62.49839 C43.7156788,62.49839 44.6173917,62.4284868 45.5103179,62.2961002 C45.5630382,66.0527166 47.0251487,69.6086053 49.4836735,72.3108151 L36.3676362,72.3108151 L36.3676362,72.3110104 Z M66.7642263,15.9728934 C66.7642263,27.3720052 64.1465643,38.0547063 59.3937288,46.0525757 C54.8652477,53.6735924 48.9738484,57.8707166 42.8051791,57.8707166 C36.6355336,57.8707166 30.7437438,53.6737877 26.2146768,46.0529663 C21.4616461,38.0549016 18.8439841,27.3722005 18.8439841,15.9732839 L18.8439841,4.90338128 C18.8439841,4.7510781 18.9677792,4.62747822 19.1196919,4.62747822 L66.488128,4.62747822 C66.6404312,4.62747822 66.7642263,4.75127336 66.7642263,4.90338128 L66.7642263,15.9728934 L66.7642263,15.9728934 Z M80.9477527,14.6820263 C79.6391169,22.7283204 75.2707493,30.011927 68.9257599,35.0264115 C70.5401736,29.1133382 71.3920951,22.6478731 71.3920951,15.9728934 L71.3920951,11.7158243 L78.3771484,11.7158243 C79.1460842,11.7158243 79.8728437,12.0522581 80.371539,12.6386254 C80.8632049,13.2167917 81.0678379,13.9425749 80.9477527,14.6820263 Z" id="Shape"></path>
                <path d="M57.004541,18.2877064 C56.7321527,17.4504295 56.0081268,16.8400452 55.1366793,16.7131259 L48.1545549,15.6985524 L45.0321444,9.3717222 C44.6422093,8.58208881 43.8379313,8.08202671 42.9573065,8.08202671 C42.0764865,8.08202671 41.2722086,8.58208881 40.8824686,9.3717222 L37.7600582,15.6985524 L30.7779338,16.7131259 C29.906291,16.8396547 29.1822652,17.4502342 28.910072,18.2879017 C28.6380742,19.1257644 28.8649669,20.0450508 29.4956582,20.6599261 L34.5480233,25.5845907 L33.355177,32.5384024 C33.2061932,33.4065305 33.5629341,34.2836406 34.2756349,34.8014714 C34.9879451,35.3191069 35.9328106,35.3872528 36.7122905,34.9775963 L42.9573065,31.6946818 L49.2021274,34.9775963 C49.540709,35.1554786 49.9103371,35.2431506 50.2784031,35.2431506 C50.7579629,35.2431506 51.23557,35.0941668 51.6385877,34.8012761 C52.3512884,34.2834453 52.7080293,33.4063352 52.5590456,32.5382071 L51.3661993,25.5843955 L56.4185643,20.6597308 C57.0496462,20.0450508 57.2765389,19.1255692 57.004541,18.2877064 Z M47.2655339,23.1198176 C46.7201713,23.6513167 46.4712142,24.4171283 46.6000861,25.1679049 L47.2057842,28.700167 L44.0337776,27.0324472 C43.6969533,26.8551507 43.3269346,26.766893 42.9571113,26.766893 C42.5872879,26.766893 42.2174646,26.8555412 41.880445,27.0324472 L38.7084384,28.700167 L39.3141364,25.1679049 C39.4430083,24.4173236 39.1940512,23.6515119 38.6486887,23.1198176 L36.0827707,20.6185308 L39.6290916,20.1030432 C40.3826018,19.9936973 41.034186,19.5201906 41.3712056,18.8373647 L42.9573065,15.6237677 L44.5432122,18.8373647 C44.8804271,19.5201906 45.5316208,19.993502 46.2853262,20.1030432 L49.8316472,20.6185308 L47.2655339,23.1198176 Z" id="Shape"></path>
            </g>
            <g id="trophy_active" transform="translate(480.000000, 56.000000)" fill-rule="nonzero" fill="#3271BF">
                <path d="M83.8965765,9.64079115 C82.5170612,8.01856705 80.5052924,7.08854136 78.3771484,7.08854136 L71.3920951,7.08854136 L71.3920951,4.90357654 C71.3920951,2.19980462 69.1920952,0 66.4885185,0 L19.1198871,0 C16.4159199,0 14.2165059,2.19980462 14.2165059,4.90338128 L14.2165059,7.0883461 L7.23067151,7.0883461 C5.10252749,7.0883461 3.09056346,8.01856705 1.7112434,9.64059589 C0.345982091,11.2458323 -0.244095093,13.354255 0.0927292424,15.4249925 C1.92817779,26.7110485 9.03077791,36.6816346 19.1111004,42.1506855 C20.0321441,44.3651346 21.0752256,46.4626228 22.2368302,48.4167897 C25.94717,54.6602437 30.5598084,58.9751099 35.6369715,61.0618586 C36.1514829,66.264379 32.6897097,71.1929489 27.4762548,72.3674407 C27.465125,72.3699791 27.4573146,72.3738843 27.44638,72.3764227 C26.4288776,72.619522 25.6714622,73.53256 25.6714622,74.6244566 L25.6714622,85.2394023 L21.3784652,85.2394023 C17.5509691,85.2394023 14.4371502,88.3532213 14.4371502,92.1807173 L14.4371502,97.659336 C14.4371502,98.9373158 15.4730071,99.9731727 16.7509869,99.9731727 L69.0782583,99.9731727 C70.3562382,99.9731727 71.3920951,98.9373158 71.3920951,97.659336 L71.3920951,92.1807173 C71.3920951,88.3532213 68.2782761,85.2394023 64.4507801,85.2394023 L60.1573926,85.2394023 L60.1573926,74.6246519 C60.1573926,73.5306074 59.3972435,72.6162025 58.3770075,72.3752511 C58.3674397,72.372908 58.3582625,72.3697838 58.3486947,72.3674407 C53.0957972,71.1851385 49.6275805,66.2069724 50.196179,60.9654 C55.1846938,58.8448711 59.7164944,54.5684712 63.3721612,48.4171802 C64.5337658,46.462818 65.5766521,44.3651346 66.497891,42.150295 C76.5776278,36.6810488 83.6798374,26.7106579 85.5152859,15.4249925 C85.8521102,13.354255 85.2620331,11.2460276 83.8965765,9.64079115 Z M4.66026249,14.6820263 C4.53998203,13.9425749 4.74441976,13.2167917 5.23608566,12.6384301 C5.7349762,12.0518676 6.46173572,11.7156291 7.23047625,11.7156291 L14.2163106,11.7156291 L14.2163106,15.9726981 C14.2163106,22.6478731 15.0682321,29.1137287 16.682841,35.026802 C10.3376563,30.012708 5.96889826,22.7289062 4.66026249,14.6820263 Z M64.4507801,89.8672711 C65.7266121,89.8672711 66.7646169,90.9052758 66.7646169,92.1811078 L66.7646169,95.3458897 L19.0646284,95.3458897 L19.0646284,92.1811078 C19.0646284,90.9052758 20.1026332,89.8672711 21.3784652,89.8672711 L64.4507801,89.8672711 L64.4507801,89.8672711 Z M55.5297191,76.9384886 L55.5297191,85.2395976 L30.2995262,85.2395976 L30.2995262,76.9384886 L55.5297191,76.9384886 Z M36.3676362,72.3110104 C36.9395542,71.6814906 37.4624618,70.9990552 37.9301106,70.2685857 C39.4720827,67.8592666 40.2814374,65.1221052 40.3177558,62.3265608 C41.1396072,62.4384451 41.9690737,62.49839 42.8055697,62.49839 C43.7156788,62.49839 44.6173917,62.4284868 45.5103179,62.2961002 C45.5630382,66.0527166 47.0251487,69.6086053 49.4836735,72.3108151 L36.3676362,72.3108151 L36.3676362,72.3110104 Z M66.7642263,15.9728934 C66.7642263,27.3720052 64.1465643,38.0547063 59.3937288,46.0525757 C54.8652477,53.6735924 48.9738484,57.8707166 42.8051791,57.8707166 C36.6355336,57.8707166 30.7437438,53.6737877 26.2146768,46.0529663 C21.4616461,38.0549016 18.8439841,27.3722005 18.8439841,15.9732839 L18.8439841,4.90338128 C18.8439841,4.7510781 18.9677792,4.62747822 19.1196919,4.62747822 L66.488128,4.62747822 C66.6404312,4.62747822 66.7642263,4.75127336 66.7642263,4.90338128 L66.7642263,15.9728934 L66.7642263,15.9728934 Z M80.9477527,14.6820263 C79.6391169,22.7283204 75.2707493,30.011927 68.9257599,35.0264115 C70.5401736,29.1133382 71.3920951,22.6478731 71.3920951,15.9728934 L71.3920951,11.7158243 L78.3771484,11.7158243 C79.1460842,11.7158243 79.8728437,12.0522581 80.371539,12.6386254 C80.8632049,13.2167917 81.0678379,13.9425749 80.9477527,14.6820263 Z" id="Shape"></path>
                <path d="M57.004541,18.2877064 C56.7321527,17.4504295 56.0081268,16.8400452 55.1366793,16.7131259 L48.1545549,15.6985524 L45.0321444,9.3717222 C44.6422093,8.58208881 43.8379313,8.08202671 42.9573065,8.08202671 C42.0764865,8.08202671 41.2722086,8.58208881 40.8824686,9.3717222 L37.7600582,15.6985524 L30.7779338,16.7131259 C29.906291,16.8396547 29.1822652,17.4502342 28.910072,18.2879017 C28.6380742,19.1257644 28.8649669,20.0450508 29.4956582,20.6599261 L34.5480233,25.5845907 L33.355177,32.5384024 C33.2061932,33.4065305 33.5629341,34.2836406 34.2756349,34.8014714 C34.9879451,35.3191069 35.9328106,35.3872528 36.7122905,34.9775963 L42.9573065,31.6946818 L49.2021274,34.9775963 C49.540709,35.1554786 49.9103371,35.2431506 50.2784031,35.2431506 C50.7579629,35.2431506 51.23557,35.0941668 51.6385877,34.8012761 C52.3512884,34.2834453 52.7080293,33.4063352 52.5590456,32.5382071 L51.3661993,25.5843955 L56.4185643,20.6597308 C57.0496462,20.0450508 57.2765389,19.1255692 57.004541,18.2877064 Z M47.2655339,23.1198176 C46.7201713,23.6513167 46.4712142,24.4171283 46.6000861,25.1679049 L47.2057842,28.700167 L44.0337776,27.0324472 C43.6969533,26.8551507 43.3269346,26.766893 42.9571113,26.766893 C42.5872879,26.766893 42.2174646,26.8555412 41.880445,27.0324472 L38.7084384,28.700167 L39.3141364,25.1679049 C39.4430083,24.4173236 39.1940512,23.6515119 38.6486887,23.1198176 L36.0827707,20.6185308 L39.6290916,20.1030432 C40.3826018,19.9936973 41.034186,19.5201906 41.3712056,18.8373647 L42.9573065,15.6237677 L44.5432122,18.8373647 C44.8804271,19.5201906 45.5316208,19.993502 46.2853262,20.1030432 L49.8316472,20.6185308 L47.2655339,23.1198176 Z" id="Shape"></path>
            </g>
            <g id="trophy_active" transform="translate(650.000000, 56.000000)" fill-rule="nonzero" fill="#9B9B9B">
                <path d="M83.8965765,9.64079115 C82.5170612,8.01856705 80.5052924,7.08854136 78.3771484,7.08854136 L71.3920951,7.08854136 L71.3920951,4.90357654 C71.3920951,2.19980462 69.1920952,0 66.4885185,0 L19.1198871,0 C16.4159199,0 14.2165059,2.19980462 14.2165059,4.90338128 L14.2165059,7.0883461 L7.23067151,7.0883461 C5.10252749,7.0883461 3.09056346,8.01856705 1.7112434,9.64059589 C0.345982091,11.2458323 -0.244095093,13.354255 0.0927292424,15.4249925 C1.92817779,26.7110485 9.03077791,36.6816346 19.1111004,42.1506855 C20.0321441,44.3651346 21.0752256,46.4626228 22.2368302,48.4167897 C25.94717,54.6602437 30.5598084,58.9751099 35.6369715,61.0618586 C36.1514829,66.264379 32.6897097,71.1929489 27.4762548,72.3674407 C27.465125,72.3699791 27.4573146,72.3738843 27.44638,72.3764227 C26.4288776,72.619522 25.6714622,73.53256 25.6714622,74.6244566 L25.6714622,85.2394023 L21.3784652,85.2394023 C17.5509691,85.2394023 14.4371502,88.3532213 14.4371502,92.1807173 L14.4371502,97.659336 C14.4371502,98.9373158 15.4730071,99.9731727 16.7509869,99.9731727 L69.0782583,99.9731727 C70.3562382,99.9731727 71.3920951,98.9373158 71.3920951,97.659336 L71.3920951,92.1807173 C71.3920951,88.3532213 68.2782761,85.2394023 64.4507801,85.2394023 L60.1573926,85.2394023 L60.1573926,74.6246519 C60.1573926,73.5306074 59.3972435,72.6162025 58.3770075,72.3752511 C58.3674397,72.372908 58.3582625,72.3697838 58.3486947,72.3674407 C53.0957972,71.1851385 49.6275805,66.2069724 50.196179,60.9654 C55.1846938,58.8448711 59.7164944,54.5684712 63.3721612,48.4171802 C64.5337658,46.462818 65.5766521,44.3651346 66.497891,42.150295 C76.5776278,36.6810488 83.6798374,26.7106579 85.5152859,15.4249925 C85.8521102,13.354255 85.2620331,11.2460276 83.8965765,9.64079115 Z M4.66026249,14.6820263 C4.53998203,13.9425749 4.74441976,13.2167917 5.23608566,12.6384301 C5.7349762,12.0518676 6.46173572,11.7156291 7.23047625,11.7156291 L14.2163106,11.7156291 L14.2163106,15.9726981 C14.2163106,22.6478731 15.0682321,29.1137287 16.682841,35.026802 C10.3376563,30.012708 5.96889826,22.7289062 4.66026249,14.6820263 Z M64.4507801,89.8672711 C65.7266121,89.8672711 66.7646169,90.9052758 66.7646169,92.1811078 L66.7646169,95.3458897 L19.0646284,95.3458897 L19.0646284,92.1811078 C19.0646284,90.9052758 20.1026332,89.8672711 21.3784652,89.8672711 L64.4507801,89.8672711 L64.4507801,89.8672711 Z M55.5297191,76.9384886 L55.5297191,85.2395976 L30.2995262,85.2395976 L30.2995262,76.9384886 L55.5297191,76.9384886 Z M36.3676362,72.3110104 C36.9395542,71.6814906 37.4624618,70.9990552 37.9301106,70.2685857 C39.4720827,67.8592666 40.2814374,65.1221052 40.3177558,62.3265608 C41.1396072,62.4384451 41.9690737,62.49839 42.8055697,62.49839 C43.7156788,62.49839 44.6173917,62.4284868 45.5103179,62.2961002 C45.5630382,66.0527166 47.0251487,69.6086053 49.4836735,72.3108151 L36.3676362,72.3108151 L36.3676362,72.3110104 Z M66.7642263,15.9728934 C66.7642263,27.3720052 64.1465643,38.0547063 59.3937288,46.0525757 C54.8652477,53.6735924 48.9738484,57.8707166 42.8051791,57.8707166 C36.6355336,57.8707166 30.7437438,53.6737877 26.2146768,46.0529663 C21.4616461,38.0549016 18.8439841,27.3722005 18.8439841,15.9732839 L18.8439841,4.90338128 C18.8439841,4.7510781 18.9677792,4.62747822 19.1196919,4.62747822 L66.488128,4.62747822 C66.6404312,4.62747822 66.7642263,4.75127336 66.7642263,4.90338128 L66.7642263,15.9728934 L66.7642263,15.9728934 Z M80.9477527,14.6820263 C79.6391169,22.7283204 75.2707493,30.011927 68.9257599,35.0264115 C70.5401736,29.1133382 71.3920951,22.6478731 71.3920951,15.9728934 L71.3920951,11.7158243 L78.3771484,11.7158243 C79.1460842,11.7158243 79.8728437,12.0522581 80.371539,12.6386254 C80.8632049,13.2167917 81.0678379,13.9425749 80.9477527,14.6820263 Z" id="Shape"></path>
                <path d="M57.004541,18.2877064 C56.7321527,17.4504295 56.0081268,16.8400452 55.1366793,16.7131259 L48.1545549,15.6985524 L45.0321444,9.3717222 C44.6422093,8.58208881 43.8379313,8.08202671 42.9573065,8.08202671 C42.0764865,8.08202671 41.2722086,8.58208881 40.8824686,9.3717222 L37.7600582,15.6985524 L30.7779338,16.7131259 C29.906291,16.8396547 29.1822652,17.4502342 28.910072,18.2879017 C28.6380742,19.1257644 28.8649669,20.0450508 29.4956582,20.6599261 L34.5480233,25.5845907 L33.355177,32.5384024 C33.2061932,33.4065305 33.5629341,34.2836406 34.2756349,34.8014714 C34.9879451,35.3191069 35.9328106,35.3872528 36.7122905,34.9775963 L42.9573065,31.6946818 L49.2021274,34.9775963 C49.540709,35.1554786 49.9103371,35.2431506 50.2784031,35.2431506 C50.7579629,35.2431506 51.23557,35.0941668 51.6385877,34.8012761 C52.3512884,34.2834453 52.7080293,33.4063352 52.5590456,32.5382071 L51.3661993,25.5843955 L56.4185643,20.6597308 C57.0496462,20.0450508 57.2765389,19.1255692 57.004541,18.2877064 Z M47.2655339,23.1198176 C46.7201713,23.6513167 46.4712142,24.4171283 46.6000861,25.1679049 L47.2057842,28.700167 L44.0337776,27.0324472 C43.6969533,26.8551507 43.3269346,26.766893 42.9571113,26.766893 C42.5872879,26.766893 42.2174646,26.8555412 41.880445,27.0324472 L38.7084384,28.700167 L39.3141364,25.1679049 C39.4430083,24.4173236 39.1940512,23.6515119 38.6486887,23.1198176 L36.0827707,20.6185308 L39.6290916,20.1030432 C40.3826018,19.9936973 41.034186,19.5201906 41.3712056,18.8373647 L42.9573065,15.6237677 L44.5432122,18.8373647 C44.8804271,19.5201906 45.5316208,19.993502 46.2853262,20.1030432 L49.8316472,20.6185308 L47.2655339,23.1198176 Z" id="Shape"></path>
            </g>
            <g id="trophy_active" transform="translate(819.000000, 56.000000)" fill-rule="nonzero" fill="#9B9B9B">
                <path d="M83.8965765,9.64079115 C82.5170612,8.01856705 80.5052924,7.08854136 78.3771484,7.08854136 L71.3920951,7.08854136 L71.3920951,4.90357654 C71.3920951,2.19980462 69.1920952,0 66.4885185,0 L19.1198871,0 C16.4159199,0 14.2165059,2.19980462 14.2165059,4.90338128 L14.2165059,7.0883461 L7.23067151,7.0883461 C5.10252749,7.0883461 3.09056346,8.01856705 1.7112434,9.64059589 C0.345982091,11.2458323 -0.244095093,13.354255 0.0927292424,15.4249925 C1.92817779,26.7110485 9.03077791,36.6816346 19.1111004,42.1506855 C20.0321441,44.3651346 21.0752256,46.4626228 22.2368302,48.4167897 C25.94717,54.6602437 30.5598084,58.9751099 35.6369715,61.0618586 C36.1514829,66.264379 32.6897097,71.1929489 27.4762548,72.3674407 C27.465125,72.3699791 27.4573146,72.3738843 27.44638,72.3764227 C26.4288776,72.619522 25.6714622,73.53256 25.6714622,74.6244566 L25.6714622,85.2394023 L21.3784652,85.2394023 C17.5509691,85.2394023 14.4371502,88.3532213 14.4371502,92.1807173 L14.4371502,97.659336 C14.4371502,98.9373158 15.4730071,99.9731727 16.7509869,99.9731727 L69.0782583,99.9731727 C70.3562382,99.9731727 71.3920951,98.9373158 71.3920951,97.659336 L71.3920951,92.1807173 C71.3920951,88.3532213 68.2782761,85.2394023 64.4507801,85.2394023 L60.1573926,85.2394023 L60.1573926,74.6246519 C60.1573926,73.5306074 59.3972435,72.6162025 58.3770075,72.3752511 C58.3674397,72.372908 58.3582625,72.3697838 58.3486947,72.3674407 C53.0957972,71.1851385 49.6275805,66.2069724 50.196179,60.9654 C55.1846938,58.8448711 59.7164944,54.5684712 63.3721612,48.4171802 C64.5337658,46.462818 65.5766521,44.3651346 66.497891,42.150295 C76.5776278,36.6810488 83.6798374,26.7106579 85.5152859,15.4249925 C85.8521102,13.354255 85.2620331,11.2460276 83.8965765,9.64079115 Z M4.66026249,14.6820263 C4.53998203,13.9425749 4.74441976,13.2167917 5.23608566,12.6384301 C5.7349762,12.0518676 6.46173572,11.7156291 7.23047625,11.7156291 L14.2163106,11.7156291 L14.2163106,15.9726981 C14.2163106,22.6478731 15.0682321,29.1137287 16.682841,35.026802 C10.3376563,30.012708 5.96889826,22.7289062 4.66026249,14.6820263 Z M64.4507801,89.8672711 C65.7266121,89.8672711 66.7646169,90.9052758 66.7646169,92.1811078 L66.7646169,95.3458897 L19.0646284,95.3458897 L19.0646284,92.1811078 C19.0646284,90.9052758 20.1026332,89.8672711 21.3784652,89.8672711 L64.4507801,89.8672711 L64.4507801,89.8672711 Z M55.5297191,76.9384886 L55.5297191,85.2395976 L30.2995262,85.2395976 L30.2995262,76.9384886 L55.5297191,76.9384886 Z M36.3676362,72.3110104 C36.9395542,71.6814906 37.4624618,70.9990552 37.9301106,70.2685857 C39.4720827,67.8592666 40.2814374,65.1221052 40.3177558,62.3265608 C41.1396072,62.4384451 41.9690737,62.49839 42.8055697,62.49839 C43.7156788,62.49839 44.6173917,62.4284868 45.5103179,62.2961002 C45.5630382,66.0527166 47.0251487,69.6086053 49.4836735,72.3108151 L36.3676362,72.3108151 L36.3676362,72.3110104 Z M66.7642263,15.9728934 C66.7642263,27.3720052 64.1465643,38.0547063 59.3937288,46.0525757 C54.8652477,53.6735924 48.9738484,57.8707166 42.8051791,57.8707166 C36.6355336,57.8707166 30.7437438,53.6737877 26.2146768,46.0529663 C21.4616461,38.0549016 18.8439841,27.3722005 18.8439841,15.9732839 L18.8439841,4.90338128 C18.8439841,4.7510781 18.9677792,4.62747822 19.1196919,4.62747822 L66.488128,4.62747822 C66.6404312,4.62747822 66.7642263,4.75127336 66.7642263,4.90338128 L66.7642263,15.9728934 L66.7642263,15.9728934 Z M80.9477527,14.6820263 C79.6391169,22.7283204 75.2707493,30.011927 68.9257599,35.0264115 C70.5401736,29.1133382 71.3920951,22.6478731 71.3920951,15.9728934 L71.3920951,11.7158243 L78.3771484,11.7158243 C79.1460842,11.7158243 79.8728437,12.0522581 80.371539,12.6386254 C80.8632049,13.2167917 81.0678379,13.9425749 80.9477527,14.6820263 Z" id="Shape"></path>
                <path d="M57.004541,18.2877064 C56.7321527,17.4504295 56.0081268,16.8400452 55.1366793,16.7131259 L48.1545549,15.6985524 L45.0321444,9.3717222 C44.6422093,8.58208881 43.8379313,8.08202671 42.9573065,8.08202671 C42.0764865,8.08202671 41.2722086,8.58208881 40.8824686,9.3717222 L37.7600582,15.6985524 L30.7779338,16.7131259 C29.906291,16.8396547 29.1822652,17.4502342 28.910072,18.2879017 C28.6380742,19.1257644 28.8649669,20.0450508 29.4956582,20.6599261 L34.5480233,25.5845907 L33.355177,32.5384024 C33.2061932,33.4065305 33.5629341,34.2836406 34.2756349,34.8014714 C34.9879451,35.3191069 35.9328106,35.3872528 36.7122905,34.9775963 L42.9573065,31.6946818 L49.2021274,34.9775963 C49.540709,35.1554786 49.9103371,35.2431506 50.2784031,35.2431506 C50.7579629,35.2431506 51.23557,35.0941668 51.6385877,34.8012761 C52.3512884,34.2834453 52.7080293,33.4063352 52.5590456,32.5382071 L51.3661993,25.5843955 L56.4185643,20.6597308 C57.0496462,20.0450508 57.2765389,19.1255692 57.004541,18.2877064 Z M47.2655339,23.1198176 C46.7201713,23.6513167 46.4712142,24.4171283 46.6000861,25.1679049 L47.2057842,28.700167 L44.0337776,27.0324472 C43.6969533,26.8551507 43.3269346,26.766893 42.9571113,26.766893 C42.5872879,26.766893 42.2174646,26.8555412 41.880445,27.0324472 L38.7084384,28.700167 L39.3141364,25.1679049 C39.4430083,24.4173236 39.1940512,23.6515119 38.6486887,23.1198176 L36.0827707,20.6185308 L39.6290916,20.1030432 C40.3826018,19.9936973 41.034186,19.5201906 41.3712056,18.8373647 L42.9573065,15.6237677 L44.5432122,18.8373647 C44.8804271,19.5201906 45.5316208,19.993502 46.2853262,20.1030432 L49.8316472,20.6185308 L47.2655339,23.1198176 Z" id="Shape"></path>
            </g>
            <g id="trophy_active" transform="translate(141.000000, 232.000000)" fill-rule="nonzero" fill="#9B9B9B">
                <path d="M83.8965765,9.64079115 C82.5170612,8.01856705 80.5052924,7.08854136 78.3771484,7.08854136 L71.3920951,7.08854136 L71.3920951,4.90357654 C71.3920951,2.19980462 69.1920952,0 66.4885185,0 L19.1198871,0 C16.4159199,0 14.2165059,2.19980462 14.2165059,4.90338128 L14.2165059,7.0883461 L7.23067151,7.0883461 C5.10252749,7.0883461 3.09056346,8.01856705 1.7112434,9.64059589 C0.345982091,11.2458323 -0.244095093,13.354255 0.0927292424,15.4249925 C1.92817779,26.7110485 9.03077791,36.6816346 19.1111004,42.1506855 C20.0321441,44.3651346 21.0752256,46.4626228 22.2368302,48.4167897 C25.94717,54.6602437 30.5598084,58.9751099 35.6369715,61.0618586 C36.1514829,66.264379 32.6897097,71.1929489 27.4762548,72.3674407 C27.465125,72.3699791 27.4573146,72.3738843 27.44638,72.3764227 C26.4288776,72.619522 25.6714622,73.53256 25.6714622,74.6244566 L25.6714622,85.2394023 L21.3784652,85.2394023 C17.5509691,85.2394023 14.4371502,88.3532213 14.4371502,92.1807173 L14.4371502,97.659336 C14.4371502,98.9373158 15.4730071,99.9731727 16.7509869,99.9731727 L69.0782583,99.9731727 C70.3562382,99.9731727 71.3920951,98.9373158 71.3920951,97.659336 L71.3920951,92.1807173 C71.3920951,88.3532213 68.2782761,85.2394023 64.4507801,85.2394023 L60.1573926,85.2394023 L60.1573926,74.6246519 C60.1573926,73.5306074 59.3972435,72.6162025 58.3770075,72.3752511 C58.3674397,72.372908 58.3582625,72.3697838 58.3486947,72.3674407 C53.0957972,71.1851385 49.6275805,66.2069724 50.196179,60.9654 C55.1846938,58.8448711 59.7164944,54.5684712 63.3721612,48.4171802 C64.5337658,46.462818 65.5766521,44.3651346 66.497891,42.150295 C76.5776278,36.6810488 83.6798374,26.7106579 85.5152859,15.4249925 C85.8521102,13.354255 85.2620331,11.2460276 83.8965765,9.64079115 Z M4.66026249,14.6820263 C4.53998203,13.9425749 4.74441976,13.2167917 5.23608566,12.6384301 C5.7349762,12.0518676 6.46173572,11.7156291 7.23047625,11.7156291 L14.2163106,11.7156291 L14.2163106,15.9726981 C14.2163106,22.6478731 15.0682321,29.1137287 16.682841,35.026802 C10.3376563,30.012708 5.96889826,22.7289062 4.66026249,14.6820263 Z M64.4507801,89.8672711 C65.7266121,89.8672711 66.7646169,90.9052758 66.7646169,92.1811078 L66.7646169,95.3458897 L19.0646284,95.3458897 L19.0646284,92.1811078 C19.0646284,90.9052758 20.1026332,89.8672711 21.3784652,89.8672711 L64.4507801,89.8672711 L64.4507801,89.8672711 Z M55.5297191,76.9384886 L55.5297191,85.2395976 L30.2995262,85.2395976 L30.2995262,76.9384886 L55.5297191,76.9384886 Z M36.3676362,72.3110104 C36.9395542,71.6814906 37.4624618,70.9990552 37.9301106,70.2685857 C39.4720827,67.8592666 40.2814374,65.1221052 40.3177558,62.3265608 C41.1396072,62.4384451 41.9690737,62.49839 42.8055697,62.49839 C43.7156788,62.49839 44.6173917,62.4284868 45.5103179,62.2961002 C45.5630382,66.0527166 47.0251487,69.6086053 49.4836735,72.3108151 L36.3676362,72.3108151 L36.3676362,72.3110104 Z M66.7642263,15.9728934 C66.7642263,27.3720052 64.1465643,38.0547063 59.3937288,46.0525757 C54.8652477,53.6735924 48.9738484,57.8707166 42.8051791,57.8707166 C36.6355336,57.8707166 30.7437438,53.6737877 26.2146768,46.0529663 C21.4616461,38.0549016 18.8439841,27.3722005 18.8439841,15.9732839 L18.8439841,4.90338128 C18.8439841,4.7510781 18.9677792,4.62747822 19.1196919,4.62747822 L66.488128,4.62747822 C66.6404312,4.62747822 66.7642263,4.75127336 66.7642263,4.90338128 L66.7642263,15.9728934 L66.7642263,15.9728934 Z M80.9477527,14.6820263 C79.6391169,22.7283204 75.2707493,30.011927 68.9257599,35.0264115 C70.5401736,29.1133382 71.3920951,22.6478731 71.3920951,15.9728934 L71.3920951,11.7158243 L78.3771484,11.7158243 C79.1460842,11.7158243 79.8728437,12.0522581 80.371539,12.6386254 C80.8632049,13.2167917 81.0678379,13.9425749 80.9477527,14.6820263 Z" id="Shape"></path>
                <path d="M57.004541,18.2877064 C56.7321527,17.4504295 56.0081268,16.8400452 55.1366793,16.7131259 L48.1545549,15.6985524 L45.0321444,9.3717222 C44.6422093,8.58208881 43.8379313,8.08202671 42.9573065,8.08202671 C42.0764865,8.08202671 41.2722086,8.58208881 40.8824686,9.3717222 L37.7600582,15.6985524 L30.7779338,16.7131259 C29.906291,16.8396547 29.1822652,17.4502342 28.910072,18.2879017 C28.6380742,19.1257644 28.8649669,20.0450508 29.4956582,20.6599261 L34.5480233,25.5845907 L33.355177,32.5384024 C33.2061932,33.4065305 33.5629341,34.2836406 34.2756349,34.8014714 C34.9879451,35.3191069 35.9328106,35.3872528 36.7122905,34.9775963 L42.9573065,31.6946818 L49.2021274,34.9775963 C49.540709,35.1554786 49.9103371,35.2431506 50.2784031,35.2431506 C50.7579629,35.2431506 51.23557,35.0941668 51.6385877,34.8012761 C52.3512884,34.2834453 52.7080293,33.4063352 52.5590456,32.5382071 L51.3661993,25.5843955 L56.4185643,20.6597308 C57.0496462,20.0450508 57.2765389,19.1255692 57.004541,18.2877064 Z M47.2655339,23.1198176 C46.7201713,23.6513167 46.4712142,24.4171283 46.6000861,25.1679049 L47.2057842,28.700167 L44.0337776,27.0324472 C43.6969533,26.8551507 43.3269346,26.766893 42.9571113,26.766893 C42.5872879,26.766893 42.2174646,26.8555412 41.880445,27.0324472 L38.7084384,28.700167 L39.3141364,25.1679049 C39.4430083,24.4173236 39.1940512,23.6515119 38.6486887,23.1198176 L36.0827707,20.6185308 L39.6290916,20.1030432 C40.3826018,19.9936973 41.034186,19.5201906 41.3712056,18.8373647 L42.9573065,15.6237677 L44.5432122,18.8373647 C44.8804271,19.5201906 45.5316208,19.993502 46.2853262,20.1030432 L49.8316472,20.6185308 L47.2655339,23.1198176 Z" id="Shape"></path>
            </g>
            <g id="trophy_active" transform="translate(310.000000, 232.000000)" fill-rule="nonzero" fill="#9B9B9B">
                <path d="M83.8965765,9.64079115 C82.5170612,8.01856705 80.5052924,7.08854136 78.3771484,7.08854136 L71.3920951,7.08854136 L71.3920951,4.90357654 C71.3920951,2.19980462 69.1920952,0 66.4885185,0 L19.1198871,0 C16.4159199,0 14.2165059,2.19980462 14.2165059,4.90338128 L14.2165059,7.0883461 L7.23067151,7.0883461 C5.10252749,7.0883461 3.09056346,8.01856705 1.7112434,9.64059589 C0.345982091,11.2458323 -0.244095093,13.354255 0.0927292424,15.4249925 C1.92817779,26.7110485 9.03077791,36.6816346 19.1111004,42.1506855 C20.0321441,44.3651346 21.0752256,46.4626228 22.2368302,48.4167897 C25.94717,54.6602437 30.5598084,58.9751099 35.6369715,61.0618586 C36.1514829,66.264379 32.6897097,71.1929489 27.4762548,72.3674407 C27.465125,72.3699791 27.4573146,72.3738843 27.44638,72.3764227 C26.4288776,72.619522 25.6714622,73.53256 25.6714622,74.6244566 L25.6714622,85.2394023 L21.3784652,85.2394023 C17.5509691,85.2394023 14.4371502,88.3532213 14.4371502,92.1807173 L14.4371502,97.659336 C14.4371502,98.9373158 15.4730071,99.9731727 16.7509869,99.9731727 L69.0782583,99.9731727 C70.3562382,99.9731727 71.3920951,98.9373158 71.3920951,97.659336 L71.3920951,92.1807173 C71.3920951,88.3532213 68.2782761,85.2394023 64.4507801,85.2394023 L60.1573926,85.2394023 L60.1573926,74.6246519 C60.1573926,73.5306074 59.3972435,72.6162025 58.3770075,72.3752511 C58.3674397,72.372908 58.3582625,72.3697838 58.3486947,72.3674407 C53.0957972,71.1851385 49.6275805,66.2069724 50.196179,60.9654 C55.1846938,58.8448711 59.7164944,54.5684712 63.3721612,48.4171802 C64.5337658,46.462818 65.5766521,44.3651346 66.497891,42.150295 C76.5776278,36.6810488 83.6798374,26.7106579 85.5152859,15.4249925 C85.8521102,13.354255 85.2620331,11.2460276 83.8965765,9.64079115 Z M4.66026249,14.6820263 C4.53998203,13.9425749 4.74441976,13.2167917 5.23608566,12.6384301 C5.7349762,12.0518676 6.46173572,11.7156291 7.23047625,11.7156291 L14.2163106,11.7156291 L14.2163106,15.9726981 C14.2163106,22.6478731 15.0682321,29.1137287 16.682841,35.026802 C10.3376563,30.012708 5.96889826,22.7289062 4.66026249,14.6820263 Z M64.4507801,89.8672711 C65.7266121,89.8672711 66.7646169,90.9052758 66.7646169,92.1811078 L66.7646169,95.3458897 L19.0646284,95.3458897 L19.0646284,92.1811078 C19.0646284,90.9052758 20.1026332,89.8672711 21.3784652,89.8672711 L64.4507801,89.8672711 L64.4507801,89.8672711 Z M55.5297191,76.9384886 L55.5297191,85.2395976 L30.2995262,85.2395976 L30.2995262,76.9384886 L55.5297191,76.9384886 Z M36.3676362,72.3110104 C36.9395542,71.6814906 37.4624618,70.9990552 37.9301106,70.2685857 C39.4720827,67.8592666 40.2814374,65.1221052 40.3177558,62.3265608 C41.1396072,62.4384451 41.9690737,62.49839 42.8055697,62.49839 C43.7156788,62.49839 44.6173917,62.4284868 45.5103179,62.2961002 C45.5630382,66.0527166 47.0251487,69.6086053 49.4836735,72.3108151 L36.3676362,72.3108151 L36.3676362,72.3110104 Z M66.7642263,15.9728934 C66.7642263,27.3720052 64.1465643,38.0547063 59.3937288,46.0525757 C54.8652477,53.6735924 48.9738484,57.8707166 42.8051791,57.8707166 C36.6355336,57.8707166 30.7437438,53.6737877 26.2146768,46.0529663 C21.4616461,38.0549016 18.8439841,27.3722005 18.8439841,15.9732839 L18.8439841,4.90338128 C18.8439841,4.7510781 18.9677792,4.62747822 19.1196919,4.62747822 L66.488128,4.62747822 C66.6404312,4.62747822 66.7642263,4.75127336 66.7642263,4.90338128 L66.7642263,15.9728934 L66.7642263,15.9728934 Z M80.9477527,14.6820263 C79.6391169,22.7283204 75.2707493,30.011927 68.9257599,35.0264115 C70.5401736,29.1133382 71.3920951,22.6478731 71.3920951,15.9728934 L71.3920951,11.7158243 L78.3771484,11.7158243 C79.1460842,11.7158243 79.8728437,12.0522581 80.371539,12.6386254 C80.8632049,13.2167917 81.0678379,13.9425749 80.9477527,14.6820263 Z" id="Shape"></path>
                <path d="M57.004541,18.2877064 C56.7321527,17.4504295 56.0081268,16.8400452 55.1366793,16.7131259 L48.1545549,15.6985524 L45.0321444,9.3717222 C44.6422093,8.58208881 43.8379313,8.08202671 42.9573065,8.08202671 C42.0764865,8.08202671 41.2722086,8.58208881 40.8824686,9.3717222 L37.7600582,15.6985524 L30.7779338,16.7131259 C29.906291,16.8396547 29.1822652,17.4502342 28.910072,18.2879017 C28.6380742,19.1257644 28.8649669,20.0450508 29.4956582,20.6599261 L34.5480233,25.5845907 L33.355177,32.5384024 C33.2061932,33.4065305 33.5629341,34.2836406 34.2756349,34.8014714 C34.9879451,35.3191069 35.9328106,35.3872528 36.7122905,34.9775963 L42.9573065,31.6946818 L49.2021274,34.9775963 C49.540709,35.1554786 49.9103371,35.2431506 50.2784031,35.2431506 C50.7579629,35.2431506 51.23557,35.0941668 51.6385877,34.8012761 C52.3512884,34.2834453 52.7080293,33.4063352 52.5590456,32.5382071 L51.3661993,25.5843955 L56.4185643,20.6597308 C57.0496462,20.0450508 57.2765389,19.1255692 57.004541,18.2877064 Z M47.2655339,23.1198176 C46.7201713,23.6513167 46.4712142,24.4171283 46.6000861,25.1679049 L47.2057842,28.700167 L44.0337776,27.0324472 C43.6969533,26.8551507 43.3269346,26.766893 42.9571113,26.766893 C42.5872879,26.766893 42.2174646,26.8555412 41.880445,27.0324472 L38.7084384,28.700167 L39.3141364,25.1679049 C39.4430083,24.4173236 39.1940512,23.6515119 38.6486887,23.1198176 L36.0827707,20.6185308 L39.6290916,20.1030432 C40.3826018,19.9936973 41.034186,19.5201906 41.3712056,18.8373647 L42.9573065,15.6237677 L44.5432122,18.8373647 C44.8804271,19.5201906 45.5316208,19.993502 46.2853262,20.1030432 L49.8316472,20.6185308 L47.2655339,23.1198176 Z" id="Shape"></path>
            </g>
            <g id="trophy_active" transform="translate(480.000000, 232.000000)" fill-rule="nonzero" fill="#9B9B9B">
                <path d="M83.8965765,9.64079115 C82.5170612,8.01856705 80.5052924,7.08854136 78.3771484,7.08854136 L71.3920951,7.08854136 L71.3920951,4.90357654 C71.3920951,2.19980462 69.1920952,0 66.4885185,0 L19.1198871,0 C16.4159199,0 14.2165059,2.19980462 14.2165059,4.90338128 L14.2165059,7.0883461 L7.23067151,7.0883461 C5.10252749,7.0883461 3.09056346,8.01856705 1.7112434,9.64059589 C0.345982091,11.2458323 -0.244095093,13.354255 0.0927292424,15.4249925 C1.92817779,26.7110485 9.03077791,36.6816346 19.1111004,42.1506855 C20.0321441,44.3651346 21.0752256,46.4626228 22.2368302,48.4167897 C25.94717,54.6602437 30.5598084,58.9751099 35.6369715,61.0618586 C36.1514829,66.264379 32.6897097,71.1929489 27.4762548,72.3674407 C27.465125,72.3699791 27.4573146,72.3738843 27.44638,72.3764227 C26.4288776,72.619522 25.6714622,73.53256 25.6714622,74.6244566 L25.6714622,85.2394023 L21.3784652,85.2394023 C17.5509691,85.2394023 14.4371502,88.3532213 14.4371502,92.1807173 L14.4371502,97.659336 C14.4371502,98.9373158 15.4730071,99.9731727 16.7509869,99.9731727 L69.0782583,99.9731727 C70.3562382,99.9731727 71.3920951,98.9373158 71.3920951,97.659336 L71.3920951,92.1807173 C71.3920951,88.3532213 68.2782761,85.2394023 64.4507801,85.2394023 L60.1573926,85.2394023 L60.1573926,74.6246519 C60.1573926,73.5306074 59.3972435,72.6162025 58.3770075,72.3752511 C58.3674397,72.372908 58.3582625,72.3697838 58.3486947,72.3674407 C53.0957972,71.1851385 49.6275805,66.2069724 50.196179,60.9654 C55.1846938,58.8448711 59.7164944,54.5684712 63.3721612,48.4171802 C64.5337658,46.462818 65.5766521,44.3651346 66.497891,42.150295 C76.5776278,36.6810488 83.6798374,26.7106579 85.5152859,15.4249925 C85.8521102,13.354255 85.2620331,11.2460276 83.8965765,9.64079115 Z M4.66026249,14.6820263 C4.53998203,13.9425749 4.74441976,13.2167917 5.23608566,12.6384301 C5.7349762,12.0518676 6.46173572,11.7156291 7.23047625,11.7156291 L14.2163106,11.7156291 L14.2163106,15.9726981 C14.2163106,22.6478731 15.0682321,29.1137287 16.682841,35.026802 C10.3376563,30.012708 5.96889826,22.7289062 4.66026249,14.6820263 Z M64.4507801,89.8672711 C65.7266121,89.8672711 66.7646169,90.9052758 66.7646169,92.1811078 L66.7646169,95.3458897 L19.0646284,95.3458897 L19.0646284,92.1811078 C19.0646284,90.9052758 20.1026332,89.8672711 21.3784652,89.8672711 L64.4507801,89.8672711 L64.4507801,89.8672711 Z M55.5297191,76.9384886 L55.5297191,85.2395976 L30.2995262,85.2395976 L30.2995262,76.9384886 L55.5297191,76.9384886 Z M36.3676362,72.3110104 C36.9395542,71.6814906 37.4624618,70.9990552 37.9301106,70.2685857 C39.4720827,67.8592666 40.2814374,65.1221052 40.3177558,62.3265608 C41.1396072,62.4384451 41.9690737,62.49839 42.8055697,62.49839 C43.7156788,62.49839 44.6173917,62.4284868 45.5103179,62.2961002 C45.5630382,66.0527166 47.0251487,69.6086053 49.4836735,72.3108151 L36.3676362,72.3108151 L36.3676362,72.3110104 Z M66.7642263,15.9728934 C66.7642263,27.3720052 64.1465643,38.0547063 59.3937288,46.0525757 C54.8652477,53.6735924 48.9738484,57.8707166 42.8051791,57.8707166 C36.6355336,57.8707166 30.7437438,53.6737877 26.2146768,46.0529663 C21.4616461,38.0549016 18.8439841,27.3722005 18.8439841,15.9732839 L18.8439841,4.90338128 C18.8439841,4.7510781 18.9677792,4.62747822 19.1196919,4.62747822 L66.488128,4.62747822 C66.6404312,4.62747822 66.7642263,4.75127336 66.7642263,4.90338128 L66.7642263,15.9728934 L66.7642263,15.9728934 Z M80.9477527,14.6820263 C79.6391169,22.7283204 75.2707493,30.011927 68.9257599,35.0264115 C70.5401736,29.1133382 71.3920951,22.6478731 71.3920951,15.9728934 L71.3920951,11.7158243 L78.3771484,11.7158243 C79.1460842,11.7158243 79.8728437,12.0522581 80.371539,12.6386254 C80.8632049,13.2167917 81.0678379,13.9425749 80.9477527,14.6820263 Z" id="Shape"></path>
                <path d="M57.004541,18.2877064 C56.7321527,17.4504295 56.0081268,16.8400452 55.1366793,16.7131259 L48.1545549,15.6985524 L45.0321444,9.3717222 C44.6422093,8.58208881 43.8379313,8.08202671 42.9573065,8.08202671 C42.0764865,8.08202671 41.2722086,8.58208881 40.8824686,9.3717222 L37.7600582,15.6985524 L30.7779338,16.7131259 C29.906291,16.8396547 29.1822652,17.4502342 28.910072,18.2879017 C28.6380742,19.1257644 28.8649669,20.0450508 29.4956582,20.6599261 L34.5480233,25.5845907 L33.355177,32.5384024 C33.2061932,33.4065305 33.5629341,34.2836406 34.2756349,34.8014714 C34.9879451,35.3191069 35.9328106,35.3872528 36.7122905,34.9775963 L42.9573065,31.6946818 L49.2021274,34.9775963 C49.540709,35.1554786 49.9103371,35.2431506 50.2784031,35.2431506 C50.7579629,35.2431506 51.23557,35.0941668 51.6385877,34.8012761 C52.3512884,34.2834453 52.7080293,33.4063352 52.5590456,32.5382071 L51.3661993,25.5843955 L56.4185643,20.6597308 C57.0496462,20.0450508 57.2765389,19.1255692 57.004541,18.2877064 Z M47.2655339,23.1198176 C46.7201713,23.6513167 46.4712142,24.4171283 46.6000861,25.1679049 L47.2057842,28.700167 L44.0337776,27.0324472 C43.6969533,26.8551507 43.3269346,26.766893 42.9571113,26.766893 C42.5872879,26.766893 42.2174646,26.8555412 41.880445,27.0324472 L38.7084384,28.700167 L39.3141364,25.1679049 C39.4430083,24.4173236 39.1940512,23.6515119 38.6486887,23.1198176 L36.0827707,20.6185308 L39.6290916,20.1030432 C40.3826018,19.9936973 41.034186,19.5201906 41.3712056,18.8373647 L42.9573065,15.6237677 L44.5432122,18.8373647 C44.8804271,19.5201906 45.5316208,19.993502 46.2853262,20.1030432 L49.8316472,20.6185308 L47.2655339,23.1198176 Z" id="Shape"></path>
            </g>
            <g id="trophy_active" transform="translate(650.000000, 232.000000)" fill-rule="nonzero" fill="#9B9B9B">
                <path d="M83.8965765,9.64079115 C82.5170612,8.01856705 80.5052924,7.08854136 78.3771484,7.08854136 L71.3920951,7.08854136 L71.3920951,4.90357654 C71.3920951,2.19980462 69.1920952,0 66.4885185,0 L19.1198871,0 C16.4159199,0 14.2165059,2.19980462 14.2165059,4.90338128 L14.2165059,7.0883461 L7.23067151,7.0883461 C5.10252749,7.0883461 3.09056346,8.01856705 1.7112434,9.64059589 C0.345982091,11.2458323 -0.244095093,13.354255 0.0927292424,15.4249925 C1.92817779,26.7110485 9.03077791,36.6816346 19.1111004,42.1506855 C20.0321441,44.3651346 21.0752256,46.4626228 22.2368302,48.4167897 C25.94717,54.6602437 30.5598084,58.9751099 35.6369715,61.0618586 C36.1514829,66.264379 32.6897097,71.1929489 27.4762548,72.3674407 C27.465125,72.3699791 27.4573146,72.3738843 27.44638,72.3764227 C26.4288776,72.619522 25.6714622,73.53256 25.6714622,74.6244566 L25.6714622,85.2394023 L21.3784652,85.2394023 C17.5509691,85.2394023 14.4371502,88.3532213 14.4371502,92.1807173 L14.4371502,97.659336 C14.4371502,98.9373158 15.4730071,99.9731727 16.7509869,99.9731727 L69.0782583,99.9731727 C70.3562382,99.9731727 71.3920951,98.9373158 71.3920951,97.659336 L71.3920951,92.1807173 C71.3920951,88.3532213 68.2782761,85.2394023 64.4507801,85.2394023 L60.1573926,85.2394023 L60.1573926,74.6246519 C60.1573926,73.5306074 59.3972435,72.6162025 58.3770075,72.3752511 C58.3674397,72.372908 58.3582625,72.3697838 58.3486947,72.3674407 C53.0957972,71.1851385 49.6275805,66.2069724 50.196179,60.9654 C55.1846938,58.8448711 59.7164944,54.5684712 63.3721612,48.4171802 C64.5337658,46.462818 65.5766521,44.3651346 66.497891,42.150295 C76.5776278,36.6810488 83.6798374,26.7106579 85.5152859,15.4249925 C85.8521102,13.354255 85.2620331,11.2460276 83.8965765,9.64079115 Z M4.66026249,14.6820263 C4.53998203,13.9425749 4.74441976,13.2167917 5.23608566,12.6384301 C5.7349762,12.0518676 6.46173572,11.7156291 7.23047625,11.7156291 L14.2163106,11.7156291 L14.2163106,15.9726981 C14.2163106,22.6478731 15.0682321,29.1137287 16.682841,35.026802 C10.3376563,30.012708 5.96889826,22.7289062 4.66026249,14.6820263 Z M64.4507801,89.8672711 C65.7266121,89.8672711 66.7646169,90.9052758 66.7646169,92.1811078 L66.7646169,95.3458897 L19.0646284,95.3458897 L19.0646284,92.1811078 C19.0646284,90.9052758 20.1026332,89.8672711 21.3784652,89.8672711 L64.4507801,89.8672711 L64.4507801,89.8672711 Z M55.5297191,76.9384886 L55.5297191,85.2395976 L30.2995262,85.2395976 L30.2995262,76.9384886 L55.5297191,76.9384886 Z M36.3676362,72.3110104 C36.9395542,71.6814906 37.4624618,70.9990552 37.9301106,70.2685857 C39.4720827,67.8592666 40.2814374,65.1221052 40.3177558,62.3265608 C41.1396072,62.4384451 41.9690737,62.49839 42.8055697,62.49839 C43.7156788,62.49839 44.6173917,62.4284868 45.5103179,62.2961002 C45.5630382,66.0527166 47.0251487,69.6086053 49.4836735,72.3108151 L36.3676362,72.3108151 L36.3676362,72.3110104 Z M66.7642263,15.9728934 C66.7642263,27.3720052 64.1465643,38.0547063 59.3937288,46.0525757 C54.8652477,53.6735924 48.9738484,57.8707166 42.8051791,57.8707166 C36.6355336,57.8707166 30.7437438,53.6737877 26.2146768,46.0529663 C21.4616461,38.0549016 18.8439841,27.3722005 18.8439841,15.9732839 L18.8439841,4.90338128 C18.8439841,4.7510781 18.9677792,4.62747822 19.1196919,4.62747822 L66.488128,4.62747822 C66.6404312,4.62747822 66.7642263,4.75127336 66.7642263,4.90338128 L66.7642263,15.9728934 L66.7642263,15.9728934 Z M80.9477527,14.6820263 C79.6391169,22.7283204 75.2707493,30.011927 68.9257599,35.0264115 C70.5401736,29.1133382 71.3920951,22.6478731 71.3920951,15.9728934 L71.3920951,11.7158243 L78.3771484,11.7158243 C79.1460842,11.7158243 79.8728437,12.0522581 80.371539,12.6386254 C80.8632049,13.2167917 81.0678379,13.9425749 80.9477527,14.6820263 Z" id="Shape"></path>
                <path d="M57.004541,18.2877064 C56.7321527,17.4504295 56.0081268,16.8400452 55.1366793,16.7131259 L48.1545549,15.6985524 L45.0321444,9.3717222 C44.6422093,8.58208881 43.8379313,8.08202671 42.9573065,8.08202671 C42.0764865,8.08202671 41.2722086,8.58208881 40.8824686,9.3717222 L37.7600582,15.6985524 L30.7779338,16.7131259 C29.906291,16.8396547 29.1822652,17.4502342 28.910072,18.2879017 C28.6380742,19.1257644 28.8649669,20.0450508 29.4956582,20.6599261 L34.5480233,25.5845907 L33.355177,32.5384024 C33.2061932,33.4065305 33.5629341,34.2836406 34.2756349,34.8014714 C34.9879451,35.3191069 35.9328106,35.3872528 36.7122905,34.9775963 L42.9573065,31.6946818 L49.2021274,34.9775963 C49.540709,35.1554786 49.9103371,35.2431506 50.2784031,35.2431506 C50.7579629,35.2431506 51.23557,35.0941668 51.6385877,34.8012761 C52.3512884,34.2834453 52.7080293,33.4063352 52.5590456,32.5382071 L51.3661993,25.5843955 L56.4185643,20.6597308 C57.0496462,20.0450508 57.2765389,19.1255692 57.004541,18.2877064 Z M47.2655339,23.1198176 C46.7201713,23.6513167 46.4712142,24.4171283 46.6000861,25.1679049 L47.2057842,28.700167 L44.0337776,27.0324472 C43.6969533,26.8551507 43.3269346,26.766893 42.9571113,26.766893 C42.5872879,26.766893 42.2174646,26.8555412 41.880445,27.0324472 L38.7084384,28.700167 L39.3141364,25.1679049 C39.4430083,24.4173236 39.1940512,23.6515119 38.6486887,23.1198176 L36.0827707,20.6185308 L39.6290916,20.1030432 C40.3826018,19.9936973 41.034186,19.5201906 41.3712056,18.8373647 L42.9573065,15.6237677 L44.5432122,18.8373647 C44.8804271,19.5201906 45.5316208,19.993502 46.2853262,20.1030432 L49.8316472,20.6185308 L47.2655339,23.1198176 Z" id="Shape"></path>
            </g>
            <g id="trophy_active" transform="translate(819.000000, 232.000000)" fill-rule="nonzero" fill="#9B9B9B">
                <path d="M83.8965765,9.64079115 C82.5170612,8.01856705 80.5052924,7.08854136 78.3771484,7.08854136 L71.3920951,7.08854136 L71.3920951,4.90357654 C71.3920951,2.19980462 69.1920952,0 66.4885185,0 L19.1198871,0 C16.4159199,0 14.2165059,2.19980462 14.2165059,4.90338128 L14.2165059,7.0883461 L7.23067151,7.0883461 C5.10252749,7.0883461 3.09056346,8.01856705 1.7112434,9.64059589 C0.345982091,11.2458323 -0.244095093,13.354255 0.0927292424,15.4249925 C1.92817779,26.7110485 9.03077791,36.6816346 19.1111004,42.1506855 C20.0321441,44.3651346 21.0752256,46.4626228 22.2368302,48.4167897 C25.94717,54.6602437 30.5598084,58.9751099 35.6369715,61.0618586 C36.1514829,66.264379 32.6897097,71.1929489 27.4762548,72.3674407 C27.465125,72.3699791 27.4573146,72.3738843 27.44638,72.3764227 C26.4288776,72.619522 25.6714622,73.53256 25.6714622,74.6244566 L25.6714622,85.2394023 L21.3784652,85.2394023 C17.5509691,85.2394023 14.4371502,88.3532213 14.4371502,92.1807173 L14.4371502,97.659336 C14.4371502,98.9373158 15.4730071,99.9731727 16.7509869,99.9731727 L69.0782583,99.9731727 C70.3562382,99.9731727 71.3920951,98.9373158 71.3920951,97.659336 L71.3920951,92.1807173 C71.3920951,88.3532213 68.2782761,85.2394023 64.4507801,85.2394023 L60.1573926,85.2394023 L60.1573926,74.6246519 C60.1573926,73.5306074 59.3972435,72.6162025 58.3770075,72.3752511 C58.3674397,72.372908 58.3582625,72.3697838 58.3486947,72.3674407 C53.0957972,71.1851385 49.6275805,66.2069724 50.196179,60.9654 C55.1846938,58.8448711 59.7164944,54.5684712 63.3721612,48.4171802 C64.5337658,46.462818 65.5766521,44.3651346 66.497891,42.150295 C76.5776278,36.6810488 83.6798374,26.7106579 85.5152859,15.4249925 C85.8521102,13.354255 85.2620331,11.2460276 83.8965765,9.64079115 Z M4.66026249,14.6820263 C4.53998203,13.9425749 4.74441976,13.2167917 5.23608566,12.6384301 C5.7349762,12.0518676 6.46173572,11.7156291 7.23047625,11.7156291 L14.2163106,11.7156291 L14.2163106,15.9726981 C14.2163106,22.6478731 15.0682321,29.1137287 16.682841,35.026802 C10.3376563,30.012708 5.96889826,22.7289062 4.66026249,14.6820263 Z M64.4507801,89.8672711 C65.7266121,89.8672711 66.7646169,90.9052758 66.7646169,92.1811078 L66.7646169,95.3458897 L19.0646284,95.3458897 L19.0646284,92.1811078 C19.0646284,90.9052758 20.1026332,89.8672711 21.3784652,89.8672711 L64.4507801,89.8672711 L64.4507801,89.8672711 Z M55.5297191,76.9384886 L55.5297191,85.2395976 L30.2995262,85.2395976 L30.2995262,76.9384886 L55.5297191,76.9384886 Z M36.3676362,72.3110104 C36.9395542,71.6814906 37.4624618,70.9990552 37.9301106,70.2685857 C39.4720827,67.8592666 40.2814374,65.1221052 40.3177558,62.3265608 C41.1396072,62.4384451 41.9690737,62.49839 42.8055697,62.49839 C43.7156788,62.49839 44.6173917,62.4284868 45.5103179,62.2961002 C45.5630382,66.0527166 47.0251487,69.6086053 49.4836735,72.3108151 L36.3676362,72.3108151 L36.3676362,72.3110104 Z M66.7642263,15.9728934 C66.7642263,27.3720052 64.1465643,38.0547063 59.3937288,46.0525757 C54.8652477,53.6735924 48.9738484,57.8707166 42.8051791,57.8707166 C36.6355336,57.8707166 30.7437438,53.6737877 26.2146768,46.0529663 C21.4616461,38.0549016 18.8439841,27.3722005 18.8439841,15.9732839 L18.8439841,4.90338128 C18.8439841,4.7510781 18.9677792,4.62747822 19.1196919,4.62747822 L66.488128,4.62747822 C66.6404312,4.62747822 66.7642263,4.75127336 66.7642263,4.90338128 L66.7642263,15.9728934 L66.7642263,15.9728934 Z M80.9477527,14.6820263 C79.6391169,22.7283204 75.2707493,30.011927 68.9257599,35.0264115 C70.5401736,29.1133382 71.3920951,22.6478731 71.3920951,15.9728934 L71.3920951,11.7158243 L78.3771484,11.7158243 C79.1460842,11.7158243 79.8728437,12.0522581 80.371539,12.6386254 C80.8632049,13.2167917 81.0678379,13.9425749 80.9477527,14.6820263 Z" id="Shape"></path>
                <path d="M57.004541,18.2877064 C56.7321527,17.4504295 56.0081268,16.8400452 55.1366793,16.7131259 L48.1545549,15.6985524 L45.0321444,9.3717222 C44.6422093,8.58208881 43.8379313,8.08202671 42.9573065,8.08202671 C42.0764865,8.08202671 41.2722086,8.58208881 40.8824686,9.3717222 L37.7600582,15.6985524 L30.7779338,16.7131259 C29.906291,16.8396547 29.1822652,17.4502342 28.910072,18.2879017 C28.6380742,19.1257644 28.8649669,20.0450508 29.4956582,20.6599261 L34.5480233,25.5845907 L33.355177,32.5384024 C33.2061932,33.4065305 33.5629341,34.2836406 34.2756349,34.8014714 C34.9879451,35.3191069 35.9328106,35.3872528 36.7122905,34.9775963 L42.9573065,31.6946818 L49.2021274,34.9775963 C49.540709,35.1554786 49.9103371,35.2431506 50.2784031,35.2431506 C50.7579629,35.2431506 51.23557,35.0941668 51.6385877,34.8012761 C52.3512884,34.2834453 52.7080293,33.4063352 52.5590456,32.5382071 L51.3661993,25.5843955 L56.4185643,20.6597308 C57.0496462,20.0450508 57.2765389,19.1255692 57.004541,18.2877064 Z M47.2655339,23.1198176 C46.7201713,23.6513167 46.4712142,24.4171283 46.6000861,25.1679049 L47.2057842,28.700167 L44.0337776,27.0324472 C43.6969533,26.8551507 43.3269346,26.766893 42.9571113,26.766893 C42.5872879,26.766893 42.2174646,26.8555412 41.880445,27.0324472 L38.7084384,28.700167 L39.3141364,25.1679049 C39.4430083,24.4173236 39.1940512,23.6515119 38.6486887,23.1198176 L36.0827707,20.6185308 L39.6290916,20.1030432 C40.3826018,19.9936973 41.034186,19.5201906 41.3712056,18.8373647 L42.9573065,15.6237677 L44.5432122,18.8373647 C44.8804271,19.5201906 45.5316208,19.993502 46.2853262,20.1030432 L49.8316472,20.6185308 L47.2655339,23.1198176 Z" id="Shape"></path>
            </g>
            <g id="trophy_active" transform="translate(141.000000, 416.000000)" fill-rule="nonzero" fill="#9B9B9B">
                <path d="M83.8965765,9.64079115 C82.5170612,8.01856705 80.5052924,7.08854136 78.3771484,7.08854136 L71.3920951,7.08854136 L71.3920951,4.90357654 C71.3920951,2.19980462 69.1920952,0 66.4885185,0 L19.1198871,0 C16.4159199,0 14.2165059,2.19980462 14.2165059,4.90338128 L14.2165059,7.0883461 L7.23067151,7.0883461 C5.10252749,7.0883461 3.09056346,8.01856705 1.7112434,9.64059589 C0.345982091,11.2458323 -0.244095093,13.354255 0.0927292424,15.4249925 C1.92817779,26.7110485 9.03077791,36.6816346 19.1111004,42.1506855 C20.0321441,44.3651346 21.0752256,46.4626228 22.2368302,48.4167897 C25.94717,54.6602437 30.5598084,58.9751099 35.6369715,61.0618586 C36.1514829,66.264379 32.6897097,71.1929489 27.4762548,72.3674407 C27.465125,72.3699791 27.4573146,72.3738843 27.44638,72.3764227 C26.4288776,72.619522 25.6714622,73.53256 25.6714622,74.6244566 L25.6714622,85.2394023 L21.3784652,85.2394023 C17.5509691,85.2394023 14.4371502,88.3532213 14.4371502,92.1807173 L14.4371502,97.659336 C14.4371502,98.9373158 15.4730071,99.9731727 16.7509869,99.9731727 L69.0782583,99.9731727 C70.3562382,99.9731727 71.3920951,98.9373158 71.3920951,97.659336 L71.3920951,92.1807173 C71.3920951,88.3532213 68.2782761,85.2394023 64.4507801,85.2394023 L60.1573926,85.2394023 L60.1573926,74.6246519 C60.1573926,73.5306074 59.3972435,72.6162025 58.3770075,72.3752511 C58.3674397,72.372908 58.3582625,72.3697838 58.3486947,72.3674407 C53.0957972,71.1851385 49.6275805,66.2069724 50.196179,60.9654 C55.1846938,58.8448711 59.7164944,54.5684712 63.3721612,48.4171802 C64.5337658,46.462818 65.5766521,44.3651346 66.497891,42.150295 C76.5776278,36.6810488 83.6798374,26.7106579 85.5152859,15.4249925 C85.8521102,13.354255 85.2620331,11.2460276 83.8965765,9.64079115 Z M4.66026249,14.6820263 C4.53998203,13.9425749 4.74441976,13.2167917 5.23608566,12.6384301 C5.7349762,12.0518676 6.46173572,11.7156291 7.23047625,11.7156291 L14.2163106,11.7156291 L14.2163106,15.9726981 C14.2163106,22.6478731 15.0682321,29.1137287 16.682841,35.026802 C10.3376563,30.012708 5.96889826,22.7289062 4.66026249,14.6820263 Z M64.4507801,89.8672711 C65.7266121,89.8672711 66.7646169,90.9052758 66.7646169,92.1811078 L66.7646169,95.3458897 L19.0646284,95.3458897 L19.0646284,92.1811078 C19.0646284,90.9052758 20.1026332,89.8672711 21.3784652,89.8672711 L64.4507801,89.8672711 L64.4507801,89.8672711 Z M55.5297191,76.9384886 L55.5297191,85.2395976 L30.2995262,85.2395976 L30.2995262,76.9384886 L55.5297191,76.9384886 Z M36.3676362,72.3110104 C36.9395542,71.6814906 37.4624618,70.9990552 37.9301106,70.2685857 C39.4720827,67.8592666 40.2814374,65.1221052 40.3177558,62.3265608 C41.1396072,62.4384451 41.9690737,62.49839 42.8055697,62.49839 C43.7156788,62.49839 44.6173917,62.4284868 45.5103179,62.2961002 C45.5630382,66.0527166 47.0251487,69.6086053 49.4836735,72.3108151 L36.3676362,72.3108151 L36.3676362,72.3110104 Z M66.7642263,15.9728934 C66.7642263,27.3720052 64.1465643,38.0547063 59.3937288,46.0525757 C54.8652477,53.6735924 48.9738484,57.8707166 42.8051791,57.8707166 C36.6355336,57.8707166 30.7437438,53.6737877 26.2146768,46.0529663 C21.4616461,38.0549016 18.8439841,27.3722005 18.8439841,15.9732839 L18.8439841,4.90338128 C18.8439841,4.7510781 18.9677792,4.62747822 19.1196919,4.62747822 L66.488128,4.62747822 C66.6404312,4.62747822 66.7642263,4.75127336 66.7642263,4.90338128 L66.7642263,15.9728934 L66.7642263,15.9728934 Z M80.9477527,14.6820263 C79.6391169,22.7283204 75.2707493,30.011927 68.9257599,35.0264115 C70.5401736,29.1133382 71.3920951,22.6478731 71.3920951,15.9728934 L71.3920951,11.7158243 L78.3771484,11.7158243 C79.1460842,11.7158243 79.8728437,12.0522581 80.371539,12.6386254 C80.8632049,13.2167917 81.0678379,13.9425749 80.9477527,14.6820263 Z" id="Shape"></path>
                <path d="M57.004541,18.2877064 C56.7321527,17.4504295 56.0081268,16.8400452 55.1366793,16.7131259 L48.1545549,15.6985524 L45.0321444,9.3717222 C44.6422093,8.58208881 43.8379313,8.08202671 42.9573065,8.08202671 C42.0764865,8.08202671 41.2722086,8.58208881 40.8824686,9.3717222 L37.7600582,15.6985524 L30.7779338,16.7131259 C29.906291,16.8396547 29.1822652,17.4502342 28.910072,18.2879017 C28.6380742,19.1257644 28.8649669,20.0450508 29.4956582,20.6599261 L34.5480233,25.5845907 L33.355177,32.5384024 C33.2061932,33.4065305 33.5629341,34.2836406 34.2756349,34.8014714 C34.9879451,35.3191069 35.9328106,35.3872528 36.7122905,34.9775963 L42.9573065,31.6946818 L49.2021274,34.9775963 C49.540709,35.1554786 49.9103371,35.2431506 50.2784031,35.2431506 C50.7579629,35.2431506 51.23557,35.0941668 51.6385877,34.8012761 C52.3512884,34.2834453 52.7080293,33.4063352 52.5590456,32.5382071 L51.3661993,25.5843955 L56.4185643,20.6597308 C57.0496462,20.0450508 57.2765389,19.1255692 57.004541,18.2877064 Z M47.2655339,23.1198176 C46.7201713,23.6513167 46.4712142,24.4171283 46.6000861,25.1679049 L47.2057842,28.700167 L44.0337776,27.0324472 C43.6969533,26.8551507 43.3269346,26.766893 42.9571113,26.766893 C42.5872879,26.766893 42.2174646,26.8555412 41.880445,27.0324472 L38.7084384,28.700167 L39.3141364,25.1679049 C39.4430083,24.4173236 39.1940512,23.6515119 38.6486887,23.1198176 L36.0827707,20.6185308 L39.6290916,20.1030432 C40.3826018,19.9936973 41.034186,19.5201906 41.3712056,18.8373647 L42.9573065,15.6237677 L44.5432122,18.8373647 C44.8804271,19.5201906 45.5316208,19.993502 46.2853262,20.1030432 L49.8316472,20.6185308 L47.2655339,23.1198176 Z" id="Shape"></path>
            </g>
            <g id="trophy_active" transform="translate(310.000000, 416.000000)" fill-rule="nonzero" fill="#9B9B9B">
                <path d="M83.8965765,9.64079115 C82.5170612,8.01856705 80.5052924,7.08854136 78.3771484,7.08854136 L71.3920951,7.08854136 L71.3920951,4.90357654 C71.3920951,2.19980462 69.1920952,0 66.4885185,0 L19.1198871,0 C16.4159199,0 14.2165059,2.19980462 14.2165059,4.90338128 L14.2165059,7.0883461 L7.23067151,7.0883461 C5.10252749,7.0883461 3.09056346,8.01856705 1.7112434,9.64059589 C0.345982091,11.2458323 -0.244095093,13.354255 0.0927292424,15.4249925 C1.92817779,26.7110485 9.03077791,36.6816346 19.1111004,42.1506855 C20.0321441,44.3651346 21.0752256,46.4626228 22.2368302,48.4167897 C25.94717,54.6602437 30.5598084,58.9751099 35.6369715,61.0618586 C36.1514829,66.264379 32.6897097,71.1929489 27.4762548,72.3674407 C27.465125,72.3699791 27.4573146,72.3738843 27.44638,72.3764227 C26.4288776,72.619522 25.6714622,73.53256 25.6714622,74.6244566 L25.6714622,85.2394023 L21.3784652,85.2394023 C17.5509691,85.2394023 14.4371502,88.3532213 14.4371502,92.1807173 L14.4371502,97.659336 C14.4371502,98.9373158 15.4730071,99.9731727 16.7509869,99.9731727 L69.0782583,99.9731727 C70.3562382,99.9731727 71.3920951,98.9373158 71.3920951,97.659336 L71.3920951,92.1807173 C71.3920951,88.3532213 68.2782761,85.2394023 64.4507801,85.2394023 L60.1573926,85.2394023 L60.1573926,74.6246519 C60.1573926,73.5306074 59.3972435,72.6162025 58.3770075,72.3752511 C58.3674397,72.372908 58.3582625,72.3697838 58.3486947,72.3674407 C53.0957972,71.1851385 49.6275805,66.2069724 50.196179,60.9654 C55.1846938,58.8448711 59.7164944,54.5684712 63.3721612,48.4171802 C64.5337658,46.462818 65.5766521,44.3651346 66.497891,42.150295 C76.5776278,36.6810488 83.6798374,26.7106579 85.5152859,15.4249925 C85.8521102,13.354255 85.2620331,11.2460276 83.8965765,9.64079115 Z M4.66026249,14.6820263 C4.53998203,13.9425749 4.74441976,13.2167917 5.23608566,12.6384301 C5.7349762,12.0518676 6.46173572,11.7156291 7.23047625,11.7156291 L14.2163106,11.7156291 L14.2163106,15.9726981 C14.2163106,22.6478731 15.0682321,29.1137287 16.682841,35.026802 C10.3376563,30.012708 5.96889826,22.7289062 4.66026249,14.6820263 Z M64.4507801,89.8672711 C65.7266121,89.8672711 66.7646169,90.9052758 66.7646169,92.1811078 L66.7646169,95.3458897 L19.0646284,95.3458897 L19.0646284,92.1811078 C19.0646284,90.9052758 20.1026332,89.8672711 21.3784652,89.8672711 L64.4507801,89.8672711 L64.4507801,89.8672711 Z M55.5297191,76.9384886 L55.5297191,85.2395976 L30.2995262,85.2395976 L30.2995262,76.9384886 L55.5297191,76.9384886 Z M36.3676362,72.3110104 C36.9395542,71.6814906 37.4624618,70.9990552 37.9301106,70.2685857 C39.4720827,67.8592666 40.2814374,65.1221052 40.3177558,62.3265608 C41.1396072,62.4384451 41.9690737,62.49839 42.8055697,62.49839 C43.7156788,62.49839 44.6173917,62.4284868 45.5103179,62.2961002 C45.5630382,66.0527166 47.0251487,69.6086053 49.4836735,72.3108151 L36.3676362,72.3108151 L36.3676362,72.3110104 Z M66.7642263,15.9728934 C66.7642263,27.3720052 64.1465643,38.0547063 59.3937288,46.0525757 C54.8652477,53.6735924 48.9738484,57.8707166 42.8051791,57.8707166 C36.6355336,57.8707166 30.7437438,53.6737877 26.2146768,46.0529663 C21.4616461,38.0549016 18.8439841,27.3722005 18.8439841,15.9732839 L18.8439841,4.90338128 C18.8439841,4.7510781 18.9677792,4.62747822 19.1196919,4.62747822 L66.488128,4.62747822 C66.6404312,4.62747822 66.7642263,4.75127336 66.7642263,4.90338128 L66.7642263,15.9728934 L66.7642263,15.9728934 Z M80.9477527,14.6820263 C79.6391169,22.7283204 75.2707493,30.011927 68.9257599,35.0264115 C70.5401736,29.1133382 71.3920951,22.6478731 71.3920951,15.9728934 L71.3920951,11.7158243 L78.3771484,11.7158243 C79.1460842,11.7158243 79.8728437,12.0522581 80.371539,12.6386254 C80.8632049,13.2167917 81.0678379,13.9425749 80.9477527,14.6820263 Z" id="Shape"></path>
                <path d="M57.004541,18.2877064 C56.7321527,17.4504295 56.0081268,16.8400452 55.1366793,16.7131259 L48.1545549,15.6985524 L45.0321444,9.3717222 C44.6422093,8.58208881 43.8379313,8.08202671 42.9573065,8.08202671 C42.0764865,8.08202671 41.2722086,8.58208881 40.8824686,9.3717222 L37.7600582,15.6985524 L30.7779338,16.7131259 C29.906291,16.8396547 29.1822652,17.4502342 28.910072,18.2879017 C28.6380742,19.1257644 28.8649669,20.0450508 29.4956582,20.6599261 L34.5480233,25.5845907 L33.355177,32.5384024 C33.2061932,33.4065305 33.5629341,34.2836406 34.2756349,34.8014714 C34.9879451,35.3191069 35.9328106,35.3872528 36.7122905,34.9775963 L42.9573065,31.6946818 L49.2021274,34.9775963 C49.540709,35.1554786 49.9103371,35.2431506 50.2784031,35.2431506 C50.7579629,35.2431506 51.23557,35.0941668 51.6385877,34.8012761 C52.3512884,34.2834453 52.7080293,33.4063352 52.5590456,32.5382071 L51.3661993,25.5843955 L56.4185643,20.6597308 C57.0496462,20.0450508 57.2765389,19.1255692 57.004541,18.2877064 Z M47.2655339,23.1198176 C46.7201713,23.6513167 46.4712142,24.4171283 46.6000861,25.1679049 L47.2057842,28.700167 L44.0337776,27.0324472 C43.6969533,26.8551507 43.3269346,26.766893 42.9571113,26.766893 C42.5872879,26.766893 42.2174646,26.8555412 41.880445,27.0324472 L38.7084384,28.700167 L39.3141364,25.1679049 C39.4430083,24.4173236 39.1940512,23.6515119 38.6486887,23.1198176 L36.0827707,20.6185308 L39.6290916,20.1030432 C40.3826018,19.9936973 41.034186,19.5201906 41.3712056,18.8373647 L42.9573065,15.6237677 L44.5432122,18.8373647 C44.8804271,19.5201906 45.5316208,19.993502 46.2853262,20.1030432 L49.8316472,20.6185308 L47.2655339,23.1198176 Z" id="Shape"></path>
            </g>
            <g id="trophy_active" transform="translate(480.000000, 416.000000)" fill-rule="nonzero" fill="#9B9B9B">
                <path d="M83.8965765,9.64079115 C82.5170612,8.01856705 80.5052924,7.08854136 78.3771484,7.08854136 L71.3920951,7.08854136 L71.3920951,4.90357654 C71.3920951,2.19980462 69.1920952,0 66.4885185,0 L19.1198871,0 C16.4159199,0 14.2165059,2.19980462 14.2165059,4.90338128 L14.2165059,7.0883461 L7.23067151,7.0883461 C5.10252749,7.0883461 3.09056346,8.01856705 1.7112434,9.64059589 C0.345982091,11.2458323 -0.244095093,13.354255 0.0927292424,15.4249925 C1.92817779,26.7110485 9.03077791,36.6816346 19.1111004,42.1506855 C20.0321441,44.3651346 21.0752256,46.4626228 22.2368302,48.4167897 C25.94717,54.6602437 30.5598084,58.9751099 35.6369715,61.0618586 C36.1514829,66.264379 32.6897097,71.1929489 27.4762548,72.3674407 C27.465125,72.3699791 27.4573146,72.3738843 27.44638,72.3764227 C26.4288776,72.619522 25.6714622,73.53256 25.6714622,74.6244566 L25.6714622,85.2394023 L21.3784652,85.2394023 C17.5509691,85.2394023 14.4371502,88.3532213 14.4371502,92.1807173 L14.4371502,97.659336 C14.4371502,98.9373158 15.4730071,99.9731727 16.7509869,99.9731727 L69.0782583,99.9731727 C70.3562382,99.9731727 71.3920951,98.9373158 71.3920951,97.659336 L71.3920951,92.1807173 C71.3920951,88.3532213 68.2782761,85.2394023 64.4507801,85.2394023 L60.1573926,85.2394023 L60.1573926,74.6246519 C60.1573926,73.5306074 59.3972435,72.6162025 58.3770075,72.3752511 C58.3674397,72.372908 58.3582625,72.3697838 58.3486947,72.3674407 C53.0957972,71.1851385 49.6275805,66.2069724 50.196179,60.9654 C55.1846938,58.8448711 59.7164944,54.5684712 63.3721612,48.4171802 C64.5337658,46.462818 65.5766521,44.3651346 66.497891,42.150295 C76.5776278,36.6810488 83.6798374,26.7106579 85.5152859,15.4249925 C85.8521102,13.354255 85.2620331,11.2460276 83.8965765,9.64079115 Z M4.66026249,14.6820263 C4.53998203,13.9425749 4.74441976,13.2167917 5.23608566,12.6384301 C5.7349762,12.0518676 6.46173572,11.7156291 7.23047625,11.7156291 L14.2163106,11.7156291 L14.2163106,15.9726981 C14.2163106,22.6478731 15.0682321,29.1137287 16.682841,35.026802 C10.3376563,30.012708 5.96889826,22.7289062 4.66026249,14.6820263 Z M64.4507801,89.8672711 C65.7266121,89.8672711 66.7646169,90.9052758 66.7646169,92.1811078 L66.7646169,95.3458897 L19.0646284,95.3458897 L19.0646284,92.1811078 C19.0646284,90.9052758 20.1026332,89.8672711 21.3784652,89.8672711 L64.4507801,89.8672711 L64.4507801,89.8672711 Z M55.5297191,76.9384886 L55.5297191,85.2395976 L30.2995262,85.2395976 L30.2995262,76.9384886 L55.5297191,76.9384886 Z M36.3676362,72.3110104 C36.9395542,71.6814906 37.4624618,70.9990552 37.9301106,70.2685857 C39.4720827,67.8592666 40.2814374,65.1221052 40.3177558,62.3265608 C41.1396072,62.4384451 41.9690737,62.49839 42.8055697,62.49839 C43.7156788,62.49839 44.6173917,62.4284868 45.5103179,62.2961002 C45.5630382,66.0527166 47.0251487,69.6086053 49.4836735,72.3108151 L36.3676362,72.3108151 L36.3676362,72.3110104 Z M66.7642263,15.9728934 C66.7642263,27.3720052 64.1465643,38.0547063 59.3937288,46.0525757 C54.8652477,53.6735924 48.9738484,57.8707166 42.8051791,57.8707166 C36.6355336,57.8707166 30.7437438,53.6737877 26.2146768,46.0529663 C21.4616461,38.0549016 18.8439841,27.3722005 18.8439841,15.9732839 L18.8439841,4.90338128 C18.8439841,4.7510781 18.9677792,4.62747822 19.1196919,4.62747822 L66.488128,4.62747822 C66.6404312,4.62747822 66.7642263,4.75127336 66.7642263,4.90338128 L66.7642263,15.9728934 L66.7642263,15.9728934 Z M80.9477527,14.6820263 C79.6391169,22.7283204 75.2707493,30.011927 68.9257599,35.0264115 C70.5401736,29.1133382 71.3920951,22.6478731 71.3920951,15.9728934 L71.3920951,11.7158243 L78.3771484,11.7158243 C79.1460842,11.7158243 79.8728437,12.0522581 80.371539,12.6386254 C80.8632049,13.2167917 81.0678379,13.9425749 80.9477527,14.6820263 Z" id="Shape"></path>
                <path d="M57.004541,18.2877064 C56.7321527,17.4504295 56.0081268,16.8400452 55.1366793,16.7131259 L48.1545549,15.6985524 L45.0321444,9.3717222 C44.6422093,8.58208881 43.8379313,8.08202671 42.9573065,8.08202671 C42.0764865,8.08202671 41.2722086,8.58208881 40.8824686,9.3717222 L37.7600582,15.6985524 L30.7779338,16.7131259 C29.906291,16.8396547 29.1822652,17.4502342 28.910072,18.2879017 C28.6380742,19.1257644 28.8649669,20.0450508 29.4956582,20.6599261 L34.5480233,25.5845907 L33.355177,32.5384024 C33.2061932,33.4065305 33.5629341,34.2836406 34.2756349,34.8014714 C34.9879451,35.3191069 35.9328106,35.3872528 36.7122905,34.9775963 L42.9573065,31.6946818 L49.2021274,34.9775963 C49.540709,35.1554786 49.9103371,35.2431506 50.2784031,35.2431506 C50.7579629,35.2431506 51.23557,35.0941668 51.6385877,34.8012761 C52.3512884,34.2834453 52.7080293,33.4063352 52.5590456,32.5382071 L51.3661993,25.5843955 L56.4185643,20.6597308 C57.0496462,20.0450508 57.2765389,19.1255692 57.004541,18.2877064 Z M47.2655339,23.1198176 C46.7201713,23.6513167 46.4712142,24.4171283 46.6000861,25.1679049 L47.2057842,28.700167 L44.0337776,27.0324472 C43.6969533,26.8551507 43.3269346,26.766893 42.9571113,26.766893 C42.5872879,26.766893 42.2174646,26.8555412 41.880445,27.0324472 L38.7084384,28.700167 L39.3141364,25.1679049 C39.4430083,24.4173236 39.1940512,23.6515119 38.6486887,23.1198176 L36.0827707,20.6185308 L39.6290916,20.1030432 C40.3826018,19.9936973 41.034186,19.5201906 41.3712056,18.8373647 L42.9573065,15.6237677 L44.5432122,18.8373647 C44.8804271,19.5201906 45.5316208,19.993502 46.2853262,20.1030432 L49.8316472,20.6185308 L47.2655339,23.1198176 Z" id="Shape"></path>
            </g>
            <g id="trophy_active" transform="translate(650.000000, 416.000000)" fill-rule="nonzero" fill="#9B9B9B">
                <path d="M83.8965765,9.64079115 C82.5170612,8.01856705 80.5052924,7.08854136 78.3771484,7.08854136 L71.3920951,7.08854136 L71.3920951,4.90357654 C71.3920951,2.19980462 69.1920952,0 66.4885185,0 L19.1198871,0 C16.4159199,0 14.2165059,2.19980462 14.2165059,4.90338128 L14.2165059,7.0883461 L7.23067151,7.0883461 C5.10252749,7.0883461 3.09056346,8.01856705 1.7112434,9.64059589 C0.345982091,11.2458323 -0.244095093,13.354255 0.0927292424,15.4249925 C1.92817779,26.7110485 9.03077791,36.6816346 19.1111004,42.1506855 C20.0321441,44.3651346 21.0752256,46.4626228 22.2368302,48.4167897 C25.94717,54.6602437 30.5598084,58.9751099 35.6369715,61.0618586 C36.1514829,66.264379 32.6897097,71.1929489 27.4762548,72.3674407 C27.465125,72.3699791 27.4573146,72.3738843 27.44638,72.3764227 C26.4288776,72.619522 25.6714622,73.53256 25.6714622,74.6244566 L25.6714622,85.2394023 L21.3784652,85.2394023 C17.5509691,85.2394023 14.4371502,88.3532213 14.4371502,92.1807173 L14.4371502,97.659336 C14.4371502,98.9373158 15.4730071,99.9731727 16.7509869,99.9731727 L69.0782583,99.9731727 C70.3562382,99.9731727 71.3920951,98.9373158 71.3920951,97.659336 L71.3920951,92.1807173 C71.3920951,88.3532213 68.2782761,85.2394023 64.4507801,85.2394023 L60.1573926,85.2394023 L60.1573926,74.6246519 C60.1573926,73.5306074 59.3972435,72.6162025 58.3770075,72.3752511 C58.3674397,72.372908 58.3582625,72.3697838 58.3486947,72.3674407 C53.0957972,71.1851385 49.6275805,66.2069724 50.196179,60.9654 C55.1846938,58.8448711 59.7164944,54.5684712 63.3721612,48.4171802 C64.5337658,46.462818 65.5766521,44.3651346 66.497891,42.150295 C76.5776278,36.6810488 83.6798374,26.7106579 85.5152859,15.4249925 C85.8521102,13.354255 85.2620331,11.2460276 83.8965765,9.64079115 Z M4.66026249,14.6820263 C4.53998203,13.9425749 4.74441976,13.2167917 5.23608566,12.6384301 C5.7349762,12.0518676 6.46173572,11.7156291 7.23047625,11.7156291 L14.2163106,11.7156291 L14.2163106,15.9726981 C14.2163106,22.6478731 15.0682321,29.1137287 16.682841,35.026802 C10.3376563,30.012708 5.96889826,22.7289062 4.66026249,14.6820263 Z M64.4507801,89.8672711 C65.7266121,89.8672711 66.7646169,90.9052758 66.7646169,92.1811078 L66.7646169,95.3458897 L19.0646284,95.3458897 L19.0646284,92.1811078 C19.0646284,90.9052758 20.1026332,89.8672711 21.3784652,89.8672711 L64.4507801,89.8672711 L64.4507801,89.8672711 Z M55.5297191,76.9384886 L55.5297191,85.2395976 L30.2995262,85.2395976 L30.2995262,76.9384886 L55.5297191,76.9384886 Z M36.3676362,72.3110104 C36.9395542,71.6814906 37.4624618,70.9990552 37.9301106,70.2685857 C39.4720827,67.8592666 40.2814374,65.1221052 40.3177558,62.3265608 C41.1396072,62.4384451 41.9690737,62.49839 42.8055697,62.49839 C43.7156788,62.49839 44.6173917,62.4284868 45.5103179,62.2961002 C45.5630382,66.0527166 47.0251487,69.6086053 49.4836735,72.3108151 L36.3676362,72.3108151 L36.3676362,72.3110104 Z M66.7642263,15.9728934 C66.7642263,27.3720052 64.1465643,38.0547063 59.3937288,46.0525757 C54.8652477,53.6735924 48.9738484,57.8707166 42.8051791,57.8707166 C36.6355336,57.8707166 30.7437438,53.6737877 26.2146768,46.0529663 C21.4616461,38.0549016 18.8439841,27.3722005 18.8439841,15.9732839 L18.8439841,4.90338128 C18.8439841,4.7510781 18.9677792,4.62747822 19.1196919,4.62747822 L66.488128,4.62747822 C66.6404312,4.62747822 66.7642263,4.75127336 66.7642263,4.90338128 L66.7642263,15.9728934 L66.7642263,15.9728934 Z M80.9477527,14.6820263 C79.6391169,22.7283204 75.2707493,30.011927 68.9257599,35.0264115 C70.5401736,29.1133382 71.3920951,22.6478731 71.3920951,15.9728934 L71.3920951,11.7158243 L78.3771484,11.7158243 C79.1460842,11.7158243 79.8728437,12.0522581 80.371539,12.6386254 C80.8632049,13.2167917 81.0678379,13.9425749 80.9477527,14.6820263 Z" id="Shape"></path>
                <path d="M57.004541,18.2877064 C56.7321527,17.4504295 56.0081268,16.8400452 55.1366793,16.7131259 L48.1545549,15.6985524 L45.0321444,9.3717222 C44.6422093,8.58208881 43.8379313,8.08202671 42.9573065,8.08202671 C42.0764865,8.08202671 41.2722086,8.58208881 40.8824686,9.3717222 L37.7600582,15.6985524 L30.7779338,16.7131259 C29.906291,16.8396547 29.1822652,17.4502342 28.910072,18.2879017 C28.6380742,19.1257644 28.8649669,20.0450508 29.4956582,20.6599261 L34.5480233,25.5845907 L33.355177,32.5384024 C33.2061932,33.4065305 33.5629341,34.2836406 34.2756349,34.8014714 C34.9879451,35.3191069 35.9328106,35.3872528 36.7122905,34.9775963 L42.9573065,31.6946818 L49.2021274,34.9775963 C49.540709,35.1554786 49.9103371,35.2431506 50.2784031,35.2431506 C50.7579629,35.2431506 51.23557,35.0941668 51.6385877,34.8012761 C52.3512884,34.2834453 52.7080293,33.4063352 52.5590456,32.5382071 L51.3661993,25.5843955 L56.4185643,20.6597308 C57.0496462,20.0450508 57.2765389,19.1255692 57.004541,18.2877064 Z M47.2655339,23.1198176 C46.7201713,23.6513167 46.4712142,24.4171283 46.6000861,25.1679049 L47.2057842,28.700167 L44.0337776,27.0324472 C43.6969533,26.8551507 43.3269346,26.766893 42.9571113,26.766893 C42.5872879,26.766893 42.2174646,26.8555412 41.880445,27.0324472 L38.7084384,28.700167 L39.3141364,25.1679049 C39.4430083,24.4173236 39.1940512,23.6515119 38.6486887,23.1198176 L36.0827707,20.6185308 L39.6290916,20.1030432 C40.3826018,19.9936973 41.034186,19.5201906 41.3712056,18.8373647 L42.9573065,15.6237677 L44.5432122,18.8373647 C44.8804271,19.5201906 45.5316208,19.993502 46.2853262,20.1030432 L49.8316472,20.6185308 L47.2655339,23.1198176 Z" id="Shape"></path>
            </g>
            <g id="trophy_active" transform="translate(819.000000, 416.000000)" fill-rule="nonzero" fill="#9B9B9B">
                <path d="M83.8965765,9.64079115 C82.5170612,8.01856705 80.5052924,7.08854136 78.3771484,7.08854136 L71.3920951,7.08854136 L71.3920951,4.90357654 C71.3920951,2.19980462 69.1920952,0 66.4885185,0 L19.1198871,0 C16.4159199,0 14.2165059,2.19980462 14.2165059,4.90338128 L14.2165059,7.0883461 L7.23067151,7.0883461 C5.10252749,7.0883461 3.09056346,8.01856705 1.7112434,9.64059589 C0.345982091,11.2458323 -0.244095093,13.354255 0.0927292424,15.4249925 C1.92817779,26.7110485 9.03077791,36.6816346 19.1111004,42.1506855 C20.0321441,44.3651346 21.0752256,46.4626228 22.2368302,48.4167897 C25.94717,54.6602437 30.5598084,58.9751099 35.6369715,61.0618586 C36.1514829,66.264379 32.6897097,71.1929489 27.4762548,72.3674407 C27.465125,72.3699791 27.4573146,72.3738843 27.44638,72.3764227 C26.4288776,72.619522 25.6714622,73.53256 25.6714622,74.6244566 L25.6714622,85.2394023 L21.3784652,85.2394023 C17.5509691,85.2394023 14.4371502,88.3532213 14.4371502,92.1807173 L14.4371502,97.659336 C14.4371502,98.9373158 15.4730071,99.9731727 16.7509869,99.9731727 L69.0782583,99.9731727 C70.3562382,99.9731727 71.3920951,98.9373158 71.3920951,97.659336 L71.3920951,92.1807173 C71.3920951,88.3532213 68.2782761,85.2394023 64.4507801,85.2394023 L60.1573926,85.2394023 L60.1573926,74.6246519 C60.1573926,73.5306074 59.3972435,72.6162025 58.3770075,72.3752511 C58.3674397,72.372908 58.3582625,72.3697838 58.3486947,72.3674407 C53.0957972,71.1851385 49.6275805,66.2069724 50.196179,60.9654 C55.1846938,58.8448711 59.7164944,54.5684712 63.3721612,48.4171802 C64.5337658,46.462818 65.5766521,44.3651346 66.497891,42.150295 C76.5776278,36.6810488 83.6798374,26.7106579 85.5152859,15.4249925 C85.8521102,13.354255 85.2620331,11.2460276 83.8965765,9.64079115 Z M4.66026249,14.6820263 C4.53998203,13.9425749 4.74441976,13.2167917 5.23608566,12.6384301 C5.7349762,12.0518676 6.46173572,11.7156291 7.23047625,11.7156291 L14.2163106,11.7156291 L14.2163106,15.9726981 C14.2163106,22.6478731 15.0682321,29.1137287 16.682841,35.026802 C10.3376563,30.012708 5.96889826,22.7289062 4.66026249,14.6820263 Z M64.4507801,89.8672711 C65.7266121,89.8672711 66.7646169,90.9052758 66.7646169,92.1811078 L66.7646169,95.3458897 L19.0646284,95.3458897 L19.0646284,92.1811078 C19.0646284,90.9052758 20.1026332,89.8672711 21.3784652,89.8672711 L64.4507801,89.8672711 L64.4507801,89.8672711 Z M55.5297191,76.9384886 L55.5297191,85.2395976 L30.2995262,85.2395976 L30.2995262,76.9384886 L55.5297191,76.9384886 Z M36.3676362,72.3110104 C36.9395542,71.6814906 37.4624618,70.9990552 37.9301106,70.2685857 C39.4720827,67.8592666 40.2814374,65.1221052 40.3177558,62.3265608 C41.1396072,62.4384451 41.9690737,62.49839 42.8055697,62.49839 C43.7156788,62.49839 44.6173917,62.4284868 45.5103179,62.2961002 C45.5630382,66.0527166 47.0251487,69.6086053 49.4836735,72.3108151 L36.3676362,72.3108151 L36.3676362,72.3110104 Z M66.7642263,15.9728934 C66.7642263,27.3720052 64.1465643,38.0547063 59.3937288,46.0525757 C54.8652477,53.6735924 48.9738484,57.8707166 42.8051791,57.8707166 C36.6355336,57.8707166 30.7437438,53.6737877 26.2146768,46.0529663 C21.4616461,38.0549016 18.8439841,27.3722005 18.8439841,15.9732839 L18.8439841,4.90338128 C18.8439841,4.7510781 18.9677792,4.62747822 19.1196919,4.62747822 L66.488128,4.62747822 C66.6404312,4.62747822 66.7642263,4.75127336 66.7642263,4.90338128 L66.7642263,15.9728934 L66.7642263,15.9728934 Z M80.9477527,14.6820263 C79.6391169,22.7283204 75.2707493,30.011927 68.9257599,35.0264115 C70.5401736,29.1133382 71.3920951,22.6478731 71.3920951,15.9728934 L71.3920951,11.7158243 L78.3771484,11.7158243 C79.1460842,11.7158243 79.8728437,12.0522581 80.371539,12.6386254 C80.8632049,13.2167917 81.0678379,13.9425749 80.9477527,14.6820263 Z" id="Shape"></path>
                <path d="M57.004541,18.2877064 C56.7321527,17.4504295 56.0081268,16.8400452 55.1366793,16.7131259 L48.1545549,15.6985524 L45.0321444,9.3717222 C44.6422093,8.58208881 43.8379313,8.08202671 42.9573065,8.08202671 C42.0764865,8.08202671 41.2722086,8.58208881 40.8824686,9.3717222 L37.7600582,15.6985524 L30.7779338,16.7131259 C29.906291,16.8396547 29.1822652,17.4502342 28.910072,18.2879017 C28.6380742,19.1257644 28.8649669,20.0450508 29.4956582,20.6599261 L34.5480233,25.5845907 L33.355177,32.5384024 C33.2061932,33.4065305 33.5629341,34.2836406 34.2756349,34.8014714 C34.9879451,35.3191069 35.9328106,35.3872528 36.7122905,34.9775963 L42.9573065,31.6946818 L49.2021274,34.9775963 C49.540709,35.1554786 49.9103371,35.2431506 50.2784031,35.2431506 C50.7579629,35.2431506 51.23557,35.0941668 51.6385877,34.8012761 C52.3512884,34.2834453 52.7080293,33.4063352 52.5590456,32.5382071 L51.3661993,25.5843955 L56.4185643,20.6597308 C57.0496462,20.0450508 57.2765389,19.1255692 57.004541,18.2877064 Z M47.2655339,23.1198176 C46.7201713,23.6513167 46.4712142,24.4171283 46.6000861,25.1679049 L47.2057842,28.700167 L44.0337776,27.0324472 C43.6969533,26.8551507 43.3269346,26.766893 42.9571113,26.766893 C42.5872879,26.766893 42.2174646,26.8555412 41.880445,27.0324472 L38.7084384,28.700167 L39.3141364,25.1679049 C39.4430083,24.4173236 39.1940512,23.6515119 38.6486887,23.1198176 L36.0827707,20.6185308 L39.6290916,20.1030432 C40.3826018,19.9936973 41.034186,19.5201906 41.3712056,18.8373647 L42.9573065,15.6237677 L44.5432122,18.8373647 C44.8804271,19.5201906 45.5316208,19.993502 46.2853262,20.1030432 L49.8316472,20.6185308 L47.2655339,23.1198176 Z" id="Shape"></path>
            </g>
            <g id="1st_row_path" transform="translate(29.000000, 110.000000)" stroke-linecap="round">
                <g id="Line">
                    <use stroke="#EE9D34" stroke-width="10" xlink:href="#path-2"></use>
                    <use stroke="#FEAD43" stroke-width="6" xlink:href="#path-2"></use>
                </g>
                <g id="Line">
                    <use stroke="#EE9D34" stroke-width="10" xlink:href="#path-3"></use>
                    <use stroke="#FEAD43" stroke-width="6" xlink:href="#path-3"></use>
                </g>
                <g id="Line">
                    <use stroke="#EE9D34" stroke-width="10" xlink:href="#path-4"></use>
                    <use stroke="#FEAD43" stroke-width="6" xlink:href="#path-4"></use>
                </g>
                <g id="Line">
                    <use stroke="#EE9D34" stroke-width="10" xlink:href="#path-5"></use>
                    <use stroke="#FEAD43" stroke-width="6" xlink:href="#path-5"></use>
                </g>
                <g id="Line">
                    <use stroke="#EE9D34" stroke-width="10" xlink:href="#path-6"></use>
                    <use stroke="#FEAD43" stroke-width="6" xlink:href="#path-6"></use>
                </g>
                <g id="Line">
                    <use stroke="#EE9D34" stroke-width="10" xlink:href="#path-7"></use>
                    <use stroke="#FEAD43" stroke-width="6" xlink:href="#path-7"></use>
                </g>
            </g>
            <g id="2nd_row_path" transform="translate(29.000000, 285.000000)" stroke-linecap="round">
                <g id="Line">
                    <use stroke="#EE9D34" stroke-width="10" xlink:href="#path-8"></use>
                    <use stroke="#FEAD43" stroke-width="6" xlink:href="#path-8"></use>
                </g>
                <g id="Line">
                    <use stroke="#EE9D34" stroke-width="10" xlink:href="#path-9"></use>
                    <use stroke="#FEAD43" stroke-width="6" xlink:href="#path-9"></use>
                </g>
                <g id="Line">
                    <use stroke="#EE9D34" stroke-width="10" xlink:href="#path-10"></use>
                    <use stroke="#FEAD43" stroke-width="6" xlink:href="#path-10"></use>
                </g>
                <g id="Line">
                    <use stroke="#EE9D34" stroke-width="10" xlink:href="#path-11"></use>
                    <use stroke="#FEAD43" stroke-width="6" xlink:href="#path-11"></use>
                </g>
                <g id="Line">
                    <use stroke="#EE9D34" stroke-width="10" xlink:href="#path-12"></use>
                    <use stroke="#FEAD43" stroke-width="6" xlink:href="#path-12"></use>
                </g>
                <g id="Line">
                    <use stroke="#EE9D34" stroke-width="10" xlink:href="#path-13"></use>
                    <use stroke="#FEAD43" stroke-width="6" xlink:href="#path-13"></use>
                </g>
                <g id="Line">
                    <use stroke="#EE9D34" stroke-width="10" xlink:href="#path-14"></use>
                    <use stroke="#FEAD43" stroke-width="6" xlink:href="#path-14"></use>
                </g>
                <g id="Line">
                    <use stroke="#EE9D34" stroke-width="10" xlink:href="#path-15"></use>
                    <use stroke="#FEAD43" stroke-width="6" xlink:href="#path-15"></use>
                </g>
                <g id="Line">
                    <use stroke="#EE9D34" stroke-width="10" xlink:href="#path-16"></use>
                    <use stroke="#FEAD43" stroke-width="6" xlink:href="#path-16"></use>
                </g>
            </g>
        </g>
    </g>
</svg>