<?xml version="1.0" encoding="UTF-8"?>
<svg viewBox="0 0 1069 564" version="1.1" xmlns="http://www.w3.org/2000/svg" xmlns:xlink="http://www.w3.org/1999/xlink">
    <!-- Generator: Sketch 47.1 (45422) - http://www.bohemiancoding.com/sketch -->
    <title>trophies</title>
    <desc>Created with Sketch.</desc>
    <defs>
        <rect id="path-1" x="0" y="0" width="1069" height="564" rx="17"></rect>
        <path d="M28.5,1.5 L111.5,1.5" id="path-2"></path>
        <path d="M198.5,1.5 L281.5,1.5" id="path-3"></path>
        <path d="M367.5,1.5 L450.5,1.5" id="path-4"></path>
        <path d="M538.5,1.5 L621.5,1.5" id="path-5"></path>
        <path d="M708.5,1.5 L791.5,1.5" id="path-6"></path>
        <path d="M877.5,1.5 L960.5,2 C983.63657,7.32284972 995.209638,21.0728497 995.219205,43.25 C995.228917,65.7651202 983.655849,79.6817869 960.5,85 L34.5486121,85 C11.4095656,92.9273692 0.0254618139,108.583235 0.396300725,131.967596 C0.767139637,155.351958 12.1512434,170.029426 34.5486121,176 L110.423764,176" id="path-7"></path>
        <path d="M198.5,1.5 L281.5,1.5" id="path-8"></path>
        <path d="M367.5,1.5 L450.5,1.5" id="path-9"></path>
        <path d="M538.5,1.5 L621.5,1.5" id="path-10"></path>
        <path d="M708.5,1.5 L791.5,1.5" id="path-11"></path>
        <path d="M877.5,1.5 L960.5,2 C983.63657,7.32284972 995.209638,21.0728497 995.219205,43.25 C995.228917,65.7651202 983.655849,79.6817869 960.5,85 L34.5486121,85 C11.4095656,92.9273692 0.0254618139,108.583235 0.396300725,131.967596 C0.767139637,155.351958 12.1512434,170.029426 34.5486121,176 L110.423764,176" id="path-12"></path>
        <path d="M198.5,176.5 L281.5,176.5" id="path-13"></path>
        <path d="M367.5,176.5 L450.5,176.5" id="path-14"></path>
        <path d="M538.5,176.5 L621.5,176.5" id="path-15"></path>
        <path d="M708.5,176.5 L791.5,176.5" id="path-16"></path>
    </defs>
    <g id="Trophy_Infography" stroke="none" stroke-width="1" fill="none" fill-rule="evenodd">
        <g id="trophies">
            <g id="Rectangle">
                <use fill="#FFFFFF" fill-rule="evenodd" xlink:href="#path-1"></use>
                <rect stroke="#66B141" stroke-width="10" x="5" y="5" width="1059" height="554" rx="17"></rect>
            </g>
            <g id="trophy_0" transform="translate(141.000000, 56.000000)" fill-rule="nonzero" fill="#9B9B9B">
                <path d="M83.8965765,9.64079115 C82.5170612,8.01856705 80.5052924,7.08854136 78.3771484,7.08854136 L71.3920951,7.08854136 L71.3920951,4.90357654 C71.3920951,2.19980462 69.1920952,0 66.4885185,0 L19.1198871,0 C16.4159199,0 14.2165059,2.19980462 14.2165059,4.90338128 L14.2165059,7.0883461 L7.23067151,7.0883461 C5.10252749,7.0883461 3.09056346,8.01856705 1.7112434,9.64059589 C0.345982091,11.2458323 -0.244095093,13.354255 0.0927292424,15.4249925 C1.92817779,26.7110485 9.03077791,36.6816346 19.1111004,42.1506855 C20.0321441,44.3651346 21.0752256,46.4626228 22.2368302,48.4167897 C25.94717,54.6602437 30.5598084,58.9751099 35.6369715,61.0618586 C36.1514829,66.264379 32.6897097,71.1929489 27.4762548,72.3674407 C27.465125,72.3699791 27.4573146,72.3738843 27.44638,72.3764227 C26.4288776,72.619522 25.6714622,73.53256 25.6714622,74.6244566 L25.6714622,85.2394023 L21.3784652,85.2394023 C17.5509691,85.2394023 14.4371502,88.3532213 14.4371502,92.1807173 L14.4371502,97.659336 C14.4371502,98.9373158 15.4730071,99.9731727 16.7509869,99.9731727 L69.0782583,99.9731727 C70.3562382,99.9731727 71.3920951,98.9373158 71.3920951,97.659336 L71.3920951,92.1807173 C71.3920951,88.3532213 68.2782761,85.2394023 64.4507801,85.2394023 L60.1573926,85.2394023 L60.1573926,74.6246519 C60.1573926,73.5306074 59.3972435,72.6162025 58.3770075,72.3752511 C58.3674397,72.372908 58.3582625,72.3697838 58.3486947,72.3674407 C53.0957972,71.1851385 49.6275805,66.2069724 50.196179,60.9654 C55.1846938,58.8448711 59.7164944,54.5684712 63.3721612,48.4171802 C64.5337658,46.462818 65.5766521,44.3651346 66.497891,42.150295 C76.5776278,36.6810488 83.6798374,26.7106579 85.5152859,15.4249925 C85.8521102,13.354255 85.2620331,11.2460276 83.8965765,9.64079115 Z M4.66026249,14.6820263 C4.53998203,13.9425749 4.74441976,13.2167917 5.23608566,12.6384301 C5.7349762,12.0518676 6.46173572,11.7156291 7.23047625,11.7156291 L14.2163106,11.7156291 L14.2163106,15.9726981 C14.2163106,22.6478731 15.0682321,29.1137287 16.682841,35.026802 C10.3376563,30.012708 5.96889826,22.7289062 4.66026249,14.6820263 Z M64.4507801,89.8672711 C65.7266121,89.8672711 66.7646169,90.9052758 66.7646169,92.1811078 L66.7646169,95.3458897 L19.0646284,95.3458897 L19.0646284,92.1811078 C19.0646284,90.9052758 20.1026332,89.8672711 21.3784652,89.8672711 L64.4507801,89.8672711 L64.4507801,89.8672711 Z M55.5297191,76.9384886 L55.5297191,85.2395976 L30.2995262,85.2395976 L30.2995262,76.9384886 L55.5297191,76.9384886 Z M36.3676362,72.3110104 C36.9395542,71.6814906 37.4624618,70.9990552 37.9301106,70.2685857 C39.4720827,67.8592666 40.2814374,65.1221052 40.3177558,62.3265608 C41.1396072,62.4384451 41.9690737,62.49839 42.8055697,62.49839 C43.7156788,62.49839 44.6173917,62.4284868 45.5103179,62.2961002 C45.5630382,66.0527166 47.0251487,69.6086053 49.4836735,72.3108151 L36.3676362,72.3108151 L36.3676362,72.3110104 Z M66.7642263,15.9728934 C66.7642263,27.3720052 64.1465643,38.0547063 59.3937288,46.0525757 C54.8652477,53.6735924 48.9738484,57.8707166 42.8051791,57.8707166 C36.6355336,57.8707166 30.7437438,53.6737877 26.2146768,46.0529663 C21.4616461,38.0549016 18.8439841,27.3722005 18.8439841,15.9732839 L18.8439841,4.90338128 C18.8439841,4.7510781 18.9677792,4.62747822 19.1196919,4.62747822 L66.488128,4.62747822 C66.6404312,4.62747822 66.7642263,4.75127336 66.7642263,4.90338128 L66.7642263,15.9728934 L66.7642263,15.9728934 Z M80.9477527,14.6820263 C79.6391169,22.7283204 75.2707493,30.011927 68.9257599,35.0264115 C70.5401736,29.1133382 71.3920951,22.6478731 71.3920951,15.9728934 L71.3920951,11.7158243 L78.3771484,11.7158243 C79.1460842,11.7158243 79.8728437,12.0522581 80.371539,12.6386254 C80.8632049,13.2167917 81.0678379,13.9425749 80.9477527,14.6820263 Z" id="Shape"></path>
                <path d="M57.004541,18.2877064 C56.7321527,17.4504295 56.0081268,16.8400452 55.1366793,16.7131259 L48.1545549,15.6985524 L45.0321444,9.3717222 C44.6422093,8.58208881 43.8379313,8.08202671 42.9573065,8.08202671 C42.0764865,8.08202671 41.2722086,8.58208881 40.8824686,9.3717222 L37.7600582,15.6985524 L30.7779338,16.7131259 C29.906291,16.8396547 29.1822652,17.4502342 28.910072,18.2879017 C28.6380742,19.1257644 28.8649669,20.0450508 29.4956582,20.6599261 L34.5480233,25.5845907 L33.355177,32.5384024 C33.2061932,33.4065305 33.5629341,34.2836406 34.2756349,34.8014714 C34.9879451,35.3191069 35.9328106,35.3872528 36.7122905,34.9775963 L42.9573065,31.6946818 L49.2021274,34.9775963 C49.540709,35.1554786 49.9103371,35.2431506 50.2784031,35.2431506 C50.7579629,35.2431506 51.23557,35.0941668 51.6385877,34.8012761 C52.3512884,34.2834453 52.7080293,33.4063352 52.5590456,32.5382071 L51.3661993,25.5843955 L56.4185643,20.6597308 C57.0496462,20.0450508 57.2765389,19.1255692 57.004541,18.2877064 Z M47.2655339,23.1198176 C46.7201713,23.6513167 46.4712142,24.4171283 46.6000861,25.1679049 L47.2057842,28.700167 L44.0337776,27.0324472 C43.6969533,26.8551507 43.3269346,26.766893 42.9571113,26.766893 C42.5872879,26.766893 42.2174646,26.8555412 41.880445,27.0324472 L38.7084384,28.700167 L39.3141364,25.1679049 C39.4430083,24.4173236 39.1940512,23.6515119 38.6486887,23.1198176 L36.0827707,20.6185308 L39.6290916,20.1030432 C40.3826018,19.9936973 41.034186,19.5201906 41.3712056,18.8373647 L42.9573065,15.6237677 L44.5432122,18.8373647 C44.8804271,19.5201906 45.5316208,19.993502 46.2853262,20.1030432 L49.8316472,20.6185308 L47.2655339,23.1198176 Z" id="Shape"></path>
            </g>
            <g id="trophy_1" transform="translate(310.000000, 56.000000)" fill-rule="nonzero" fill="#9B9B9B">
                <path d="M83.8965765,9.64079115 C82.5170612,8.01856705 80.5052924,7.08854136 78.3771484,7.08854136 L71.3920951,7.08854136 L71.3920951,4.90357654 C71.3920951,2.19980462 69.1920952,0 66.4885185,0 L19.1198871,0 C16.4159199,0 14.2165059,2.19980462 14.2165059,4.90338128 L14.2165059,7.0883461 L7.23067151,7.0883461 C5.10252749,7.0883461 3.09056346,8.01856705 1.7112434,9.64059589 C0.345982091,11.2458323 -0.244095093,13.354255 0.0927292424,15.4249925 C1.92817779,26.7110485 9.03077791,36.6816346 19.1111004,42.1506855 C20.0321441,44.3651346 21.0752256,46.4626228 22.2368302,48.4167897 C25.94717,54.6602437 30.5598084,58.9751099 35.6369715,61.0618586 C36.1514829,66.264379 32.6897097,71.1929489 27.4762548,72.3674407 C27.465125,72.3699791 27.4573146,72.3738843 27.44638,72.3764227 C26.4288776,72.619522 25.6714622,73.53256 25.6714622,74.6244566 L25.6714622,85.2394023 L21.3784652,85.2394023 C17.5509691,85.2394023 14.4371502,88.3532213 14.4371502,92.1807173 L14.4371502,97.659336 C14.4371502,98.9373158 15.4730071,99.9731727 16.7509869,99.9731727 L69.0782583,99.9731727 C70.3562382,99.9731727 71.3920951,98.9373158 71.3920951,97.659336 L71.3920951,92.1807173 C71.3920951,88.3532213 68.2782761,85.2394023 64.4507801,85.2394023 L60.1573926,85.2394023 L60.1573926,74.6246519 C60.1573926,73.5306074 59.3972435,72.6162025 58.3770075,72.3752511 C58.3674397,72.372908 58.3582625,72.3697838 58.3486947,72.3674407 C53.0957972,71.1851385 49.6275805,66.2069724 50.196179,60.9654 C55.1846938,58.8448711 59.7164944,54.5684712 63.3721612,48.4171802 C64.5337658,46.462818 65.5766521,44.3651346 66.497891,42.150295 C76.5776278,36.6810488 83.6798374,26.7106579 85.5152859,15.4249925 C85.8521102,13.354255 85.2620331,11.2460276 83.8965765,9.64079115 Z M4.66026249,14.6820263 C4.53998203,13.9425749 4.74441976,13.2167917 5.23608566,12.6384301 C5.7349762,12.0518676 6.46173572,11.7156291 7.23047625,11.7156291 L14.2163106,11.7156291 L14.2163106,15.9726981 C14.2163106,22.6478731 15.0682321,29.1137287 16.682841,35.026802 C10.3376563,30.012708 5.96889826,22.7289062 4.66026249,14.6820263 Z M64.4507801,89.8672711 C65.7266121,89.8672711 66.7646169,90.9052758 66.7646169,92.1811078 L66.7646169,95.3458897 L19.0646284,95.3458897 L19.0646284,92.1811078 C19.0646284,90.9052758 20.1026332,89.8672711 21.3784652,89.8672711 L64.4507801,89.8672711 L64.4507801,89.8672711 Z M55.5297191,76.9384886 L55.5297191,85.2395976 L30.2995262,85.2395976 L30.2995262,76.9384886 L55.5297191,76.9384886 Z M36.3676362,72.3110104 C36.9395542,71.6814906 37.4624618,70.9990552 37.9301106,70.2685857 C39.4720827,67.8592666 40.2814374,65.1221052 40.3177558,62.3265608 C41.1396072,62.4384451 41.9690737,62.49839 42.8055697,62.49839 C43.7156788,62.49839 44.6173917,62.4284868 45.5103179,62.2961002 C45.5630382,66.0527166 47.0251487,69.6086053 49.4836735,72.3108151 L36.3676362,72.3108151 L36.3676362,72.3110104 Z M66.7642263,15.9728934 C66.7642263,27.3720052 64.1465643,38.0547063 59.3937288,46.0525757 C54.8652477,53.6735924 48.9738484,57.8707166 42.8051791,57.8707166 C36.6355336,57.8707166 30.7437438,53.6737877 26.2146768,46.0529663 C21.4616461,38.0549016 18.8439841,27.3722005 18.8439841,15.9732839 L18.8439841,4.90338128 C18.8439841,4.7510781 18.9677792,4.62747822 19.1196919,4.62747822 L66.488128,4.62747822 C66.6404312,4.62747822 66.7642263,4.75127336 66.7642263,4.90338128 L66.7642263,15.9728934 L66.7642263,15.9728934 Z M80.9477527,14.6820263 C79.6391169,22.7283204 75.2707493,30.011927 68.9257599,35.0264115 C70.5401736,29.1133382 71.3920951,22.6478731 71.3920951,15.9728934 L71.3920951,11.7158243 L78.3771484,11.7158243 C79.1460842,11.7158243 79.8728437,12.0522581 80.371539,12.6386254 C80.8632049,13.2167917 81.0678379,13.9425749 80.9477527,14.6820263 Z" id="Shape"></path>
                <path d="M57.004541,18.2877064 C56.7321527,17.4504295 56.0081268,16.8400452 55.1366793,16.7131259 L48.1545549,15.6985524 L45.0321444,9.3717222 C44.6422093,8.58208881 43.8379313,8.08202671 42.9573065,8.08202671 C42.0764865,8.08202671 41.2722086,8.58208881 40.8824686,9.3717222 L37.7600582,15.6985524 L30.7779338,16.7131259 C29.906291,16.8396547 29.1822652,17.4502342 28.910072,18.2879017 C28.6380742,19.1257644 28.8649669,20.0450508 29.4956582,20.6599261 L34.5480233,25.5845907 L33.355177,32.5384024 C33.2061932,33.4065305 33.5629341,34.2836406 34.2756349,34.8014714 C34.9879451,35.3191069 35.9328106,35.3872528 36.7122905,34.9775963 L42.9573065,31.6946818 L49.2021274,34.9775963 C49.540709,35.1554786 49.9103371,35.2431506 50.2784031,35.2431506 C50.7579629,35.2431506 51.23557,35.0941668 51.6385877,34.8012761 C52.3512884,34.2834453 52.7080293,33.4063352 52.5590456,32.5382071 L51.3661993,25.5843955 L56.4185643,20.6597308 C57.0496462,20.0450508 57.2765389,19.1255692 57.004541,18.2877064 Z M47.2655339,23.1198176 C46.7201713,23.6513167 46.4712142,24.4171283 46.6000861,25.1679049 L47.2057842,28.700167 L44.0337776,27.0324472 C43.6969533,26.8551507 43.3269346,26.766893 42.9571113,26.766893 C42.5872879,26.766893 42.2174646,26.8555412 41.880445,27.0324472 L38.7084384,28.700167 L39.3141364,25.1679049 C39.4430083,24.4173236 39.1940512,23.6515119 38.6486887,23.1198176 L36.0827707,20.6185308 L39.6290916,20.1030432 C40.3826018,19.9936973 41.034186,19.5201906 41.3712056,18.8373647 L42.9573065,15.6237677 L44.5432122,18.8373647 C44.8804271,19.5201906 45.5316208,19.993502 46.2853262,20.1030432 L49.8316472,20.6185308 L47.2655339,23.1198176 Z" id="Shape"></path>
            </g>
            <g id="trophy_2" transform="translate(480.000000, 56.000000)" fill-rule="nonzero" fill="#9B9B9B">
                <path d="M83.8965765,9.64079115 C82.5170612,8.01856705 80.5052924,7.08854136 78.3771484,7.08854136 L71.3920951,7.08854136 L71.3920951,4.90357654 C71.3920951,2.19980462 69.1920952,0 66.4885185,0 L19.1198871,0 C16.4159199,0 14.2165059,2.19980462 14.2165059,4.90338128 L14.2165059,7.0883461 L7.23067151,7.0883461 C5.10252749,7.0883461 3.09056346,8.01856705 1.7112434,9.64059589 C0.345982091,11.2458323 -0.244095093,13.354255 0.0927292424,15.4249925 C1.92817779,26.7110485 9.03077791,36.6816346 19.1111004,42.1506855 C20.0321441,44.3651346 21.0752256,46.4626228 22.2368302,48.4167897 C25.94717,54.6602437 30.5598084,58.9751099 35.6369715,61.0618586 C36.1514829,66.264379 32.6897097,71.1929489 27.4762548,72.3674407 C27.465125,72.3699791 27.4573146,72.3738843 27.44638,72.3764227 C26.4288776,72.619522 25.6714622,73.53256 25.6714622,74.6244566 L25.6714622,85.2394023 L21.3784652,85.2394023 C17.5509691,85.2394023 14.4371502,88.3532213 14.4371502,92.1807173 L14.4371502,97.659336 C14.4371502,98.9373158 15.4730071,99.9731727 16.7509869,99.9731727 L69.0782583,99.9731727 C70.3562382,99.9731727 71.3920951,98.9373158 71.3920951,97.659336 L71.3920951,92.1807173 C71.3920951,88.3532213 68.2782761,85.2394023 64.4507801,85.2394023 L60.1573926,85.2394023 L60.1573926,74.6246519 C60.1573926,73.5306074 59.3972435,72.6162025 58.3770075,72.3752511 C58.3674397,72.372908 58.3582625,72.3697838 58.3486947,72.3674407 C53.0957972,71.1851385 49.6275805,66.2069724 50.196179,60.9654 C55.1846938,58.8448711 59.7164944,54.5684712 63.3721612,48.4171802 C64.5337658,46.462818 65.5766521,44.3651346 66.497891,42.150295 C76.5776278,36.6810488 83.6798374,26.7106579 85.5152859,15.4249925 C85.8521102,13.354255 85.2620331,11.2460276 83.8965765,9.64079115 Z M4.66026249,14.6820263 C4.53998203,13.9425749 4.74441976,13.2167917 5.23608566,12.6384301 C5.7349762,12.0518676 6.46173572,11.7156291 7.23047625,11.7156291 L14.2163106,11.7156291 L14.2163106,15.9726981 C14.2163106,22.6478731 15.0682321,29.1137287 16.682841,35.026802 C10.3376563,30.012708 5.96889826,22.7289062 4.66026249,14.6820263 Z M64.4507801,89.8672711 C65.7266121,89.8672711 66.7646169,90.9052758 66.7646169,92.1811078 L66.7646169,95.3458897 L19.0646284,95.3458897 L19.0646284,92.1811078 C19.0646284,90.9052758 20.1026332,89.8672711 21.3784652,89.8672711 L64.4507801,89.8672711 L64.4507801,89.8672711 Z M55.5297191,76.9384886 L55.5297191,85.2395976 L30.2995262,85.2395976 L30.2995262,76.9384886 L55.5297191,76.9384886 Z M36.3676362,72.3110104 C36.9395542,71.6814906 37.4624618,70.9990552 37.9301106,70.2685857 C39.4720827,67.8592666 40.2814374,65.1221052 40.3177558,62.3265608 C41.1396072,62.4384451 41.9690737,62.49839 42.8055697,62.49839 C43.7156788,62.49839 44.6173917,62.4284868 45.5103179,62.2961002 C45.5630382,66.0527166 47.0251487,69.6086053 49.4836735,72.3108151 L36.3676362,72.3108151 L36.3676362,72.3110104 Z M66.7642263,15.9728934 C66.7642263,27.3720052 64.1465643,38.0547063 59.3937288,46.0525757 C54.8652477,53.6735924 48.9738484,57.8707166 42.8051791,57.8707166 C36.6355336,57.8707166 30.7437438,53.6737877 26.2146768,46.0529663 C21.4616461,38.0549016 18.8439841,27.3722005 18.8439841,15.9732839 L18.8439841,4.90338128 C18.8439841,4.7510781 18.9677792,4.62747822 19.1196919,4.62747822 L66.488128,4.62747822 C66.6404312,4.62747822 66.7642263,4.75127336 66.7642263,4.90338128 L66.7642263,15.9728934 L66.7642263,15.9728934 Z M80.9477527,14.6820263 C79.6391169,22.7283204 75.2707493,30.011927 68.9257599,35.0264115 C70.5401736,29.1133382 71.3920951,22.6478731 71.3920951,15.9728934 L71.3920951,11.7158243 L78.3771484,11.7158243 C79.1460842,11.7158243 79.8728437,12.0522581 80.371539,12.6386254 C80.8632049,13.2167917 81.0678379,13.9425749 80.9477527,14.6820263 Z" id="Shape"></path>
                <path d="M57.004541,18.2877064 C56.7321527,17.4504295 56.0081268,16.8400452 55.1366793,16.7131259 L48.1545549,15.6985524 L45.0321444,9.3717222 C44.6422093,8.58208881 43.8379313,8.08202671 42.9573065,8.08202671 C42.0764865,8.08202671 41.2722086,8.58208881 40.8824686,9.3717222 L37.7600582,15.6985524 L30.7779338,16.7131259 C29.906291,16.8396547 29.1822652,17.4502342 28.910072,18.2879017 C28.6380742,19.1257644 28.8649669,20.0450508 29.4956582,20.6599261 L34.5480233,25.5845907 L33.355177,32.5384024 C33.2061932,33.4065305 33.5629341,34.2836406 34.2756349,34.8014714 C34.9879451,35.3191069 35.9328106,35.3872528 36.7122905,34.9775963 L42.9573065,31.6946818 L49.2021274,34.9775963 C49.540709,35.1554786 49.9103371,35.2431506 50.2784031,35.2431506 C50.7579629,35.2431506 51.23557,35.0941668 51.6385877,34.8012761 C52.3512884,34.2834453 52.7080293,33.4063352 52.5590456,32.5382071 L51.3661993,25.5843955 L56.4185643,20.6597308 C57.0496462,20.0450508 57.2765389,19.1255692 57.004541,18.2877064 Z M47.2655339,23.1198176 C46.7201713,23.6513167 46.4712142,24.4171283 46.6000861,25.1679049 L47.2057842,28.700167 L44.0337776,27.0324472 C43.6969533,26.8551507 43.3269346,26.766893 42.9571113,26.766893 C42.5872879,26.766893 42.2174646,26.8555412 41.880445,27.0324472 L38.7084384,28.700167 L39.3141364,25.1679049 C39.4430083,24.4173236 39.1940512,23.6515119 38.6486887,23.1198176 L36.0827707,20.6185308 L39.6290916,20.1030432 C40.3826018,19.9936973 41.034186,19.5201906 41.3712056,18.8373647 L42.9573065,15.6237677 L44.5432122,18.8373647 C44.8804271,19.5201906 45.5316208,19.993502 46.2853262,20.1030432 L49.8316472,20.6185308 L47.2655339,23.1198176 Z" id="Shape"></path>
            </g>
            <g id="trophy_3" transform="translate(650.000000, 56.000000)" fill-rule="nonzero" fill="#9B9B9B">
                <path d="M83.8965765,9.64079115 C82.5170612,8.01856705 80.5052924,7.08854136 78.3771484,7.08854136 L71.3920951,7.08854136 L71.3920951,4.90357654 C71.3920951,2.19980462 69.1920952,0 66.4885185,0 L19.1198871,0 C16.4159199,0 14.2165059,2.19980462 14.2165059,4.90338128 L14.2165059,7.0883461 L7.23067151,7.0883461 C5.10252749,7.0883461 3.09056346,8.01856705 1.7112434,9.64059589 C0.345982091,11.2458323 -0.244095093,13.354255 0.0927292424,15.4249925 C1.92817779,26.7110485 9.03077791,36.6816346 19.1111004,42.1506855 C20.0321441,44.3651346 21.0752256,46.4626228 22.2368302,48.4167897 C25.94717,54.6602437 30.5598084,58.9751099 35.6369715,61.0618586 C36.1514829,66.264379 32.6897097,71.1929489 27.4762548,72.3674407 C27.465125,72.3699791 27.4573146,72.3738843 27.44638,72.3764227 C26.4288776,72.619522 25.6714622,73.53256 25.6714622,74.6244566 L25.6714622,85.2394023 L21.3784652,85.2394023 C17.5509691,85.2394023 14.4371502,88.3532213 14.4371502,92.1807173 L14.4371502,97.659336 C14.4371502,98.9373158 15.4730071,99.9731727 16.7509869,99.9731727 L69.0782583,99.9731727 C70.3562382,99.9731727 71.3920951,98.9373158 71.3920951,97.659336 L71.3920951,92.1807173 C71.3920951,88.3532213 68.2782761,85.2394023 64.4507801,85.2394023 L60.1573926,85.2394023 L60.1573926,74.6246519 C60.1573926,73.5306074 59.3972435,72.6162025 58.3770075,72.3752511 C58.3674397,72.372908 58.3582625,72.3697838 58.3486947,72.3674407 C53.0957972,71.1851385 49.6275805,66.2069724 50.196179,60.9654 C55.1846938,58.8448711 59.7164944,54.5684712 63.3721612,48.4171802 C64.5337658,46.462818 65.5766521,44.3651346 66.497891,42.150295 C76.5776278,36.6810488 83.6798374,26.7106579 85.5152859,15.4249925 C85.8521102,13.354255 85.2620331,11.2460276 83.8965765,9.64079115 Z M4.66026249,14.6820263 C4.53998203,13.9425749 4.74441976,13.2167917 5.23608566,12.6384301 C5.7349762,12.0518676 6.46173572,11.7156291 7.23047625,11.7156291 L14.2163106,11.7156291 L14.2163106,15.9726981 C14.2163106,22.6478731 15.0682321,29.1137287 16.682841,35.026802 C10.3376563,30.012708 5.96889826,22.7289062 4.66026249,14.6820263 Z M64.4507801,89.8672711 C65.7266121,89.8672711 66.7646169,90.9052758 66.7646169,92.1811078 L66.7646169,95.3458897 L19.0646284,95.3458897 L19.0646284,92.1811078 C19.0646284,90.9052758 20.1026332,89.8672711 21.3784652,89.8672711 L64.4507801,89.8672711 L64.4507801,89.8672711 Z M55.5297191,76.9384886 L55.5297191,85.2395976 L30.2995262,85.2395976 L30.2995262,76.9384886 L55.5297191,76.9384886 Z M36.3676362,72.3110104 C36.9395542,71.6814906 37.4624618,70.9990552 37.9301106,70.2685857 C39.4720827,67.8592666 40.2814374,65.1221052 40.3177558,62.3265608 C41.1396072,62.4384451 41.9690737,62.49839 42.8055697,62.49839 C43.7156788,62.49839 44.6173917,62.4284868 45.5103179,62.2961002 C45.5630382,66.0527166 47.0251487,69.6086053 49.4836735,72.3108151 L36.3676362,72.3108151 L36.3676362,72.3110104 Z M66.7642263,15.9728934 C66.7642263,27.3720052 64.1465643,38.0547063 59.3937288,46.0525757 C54.8652477,53.6735924 48.9738484,57.8707166 42.8051791,57.8707166 C36.6355336,57.8707166 30.7437438,53.6737877 26.2146768,46.0529663 C21.4616461,38.0549016 18.8439841,27.3722005 18.8439841,15.9732839 L18.8439841,4.90338128 C18.8439841,4.7510781 18.9677792,4.62747822 19.1196919,4.62747822 L66.488128,4.62747822 C66.6404312,4.62747822 66.7642263,4.75127336 66.7642263,4.90338128 L66.7642263,15.9728934 L66.7642263,15.9728934 Z M80.9477527,14.6820263 C79.6391169,22.7283204 75.2707493,30.011927 68.9257599,35.0264115 C70.5401736,29.1133382 71.3920951,22.6478731 71.3920951,15.9728934 L71.3920951,11.7158243 L78.3771484,11.7158243 C79.1460842,11.7158243 79.8728437,12.0522581 80.371539,12.6386254 C80.8632049,13.2167917 81.0678379,13.9425749 80.9477527,14.6820263 Z" id="Shape"></path>
                <path d="M57.004541,18.2877064 C56.7321527,17.4504295 56.0081268,16.8400452 55.1366793,16.7131259 L48.1545549,15.6985524 L45.0321444,9.3717222 C44.6422093,8.58208881 43.8379313,8.08202671 42.9573065,8.08202671 C42.0764865,8.08202671 41.2722086,8.58208881 40.8824686,9.3717222 L37.7600582,15.6985524 L30.7779338,16.7131259 C29.906291,16.8396547 29.1822652,17.4502342 28.910072,18.2879017 C28.6380742,19.1257644 28.8649669,20.0450508 29.4956582,20.6599261 L34.5480233,25.5845907 L33.355177,32.5384024 C33.2061932,33.4065305 33.5629341,34.2836406 34.2756349,34.8014714 C34.9879451,35.3191069 35.9328106,35.3872528 36.7122905,34.9775963 L42.9573065,31.6946818 L49.2021274,34.9775963 C49.540709,35.1554786 49.9103371,35.2431506 50.2784031,35.2431506 C50.7579629,35.2431506 51.23557,35.0941668 51.6385877,34.8012761 C52.3512884,34.2834453 52.7080293,33.4063352 52.5590456,32.5382071 L51.3661993,25.5843955 L56.4185643,20.6597308 C57.0496462,20.0450508 57.2765389,19.1255692 57.004541,18.2877064 Z M47.2655339,23.1198176 C46.7201713,23.6513167 46.4712142,24.4171283 46.6000861,25.1679049 L47.2057842,28.700167 L44.0337776,27.0324472 C43.6969533,26.8551507 43.3269346,26.766893 42.9571113,26.766893 C42.5872879,26.766893 42.2174646,26.8555412 41.880445,27.0324472 L38.7084384,28.700167 L39.3141364,25.1679049 C39.4430083,24.4173236 39.1940512,23.6515119 38.6486887,23.1198176 L36.0827707,20.6185308 L39.6290916,20.1030432 C40.3826018,19.9936973 41.034186,19.5201906 41.3712056,18.8373647 L42.9573065,15.6237677 L44.5432122,18.8373647 C44.8804271,19.5201906 45.5316208,19.993502 46.2853262,20.1030432 L49.8316472,20.6185308 L47.2655339,23.1198176 Z" id="Shape"></path>
            </g>
            <g id="trophy_4" transform="translate(819.000000, 56.000000)" fill-rule="nonzero" fill="#9B9B9B">
                <path d="M83.8965765,9.64079115 C82.5170612,8.01856705 80.5052924,7.08854136 78.3771484,7.08854136 L71.3920951,7.08854136 L71.3920951,4.90357654 C71.3920951,2.19980462 69.1920952,0 66.4885185,0 L19.1198871,0 C16.4159199,0 14.2165059,2.19980462 14.2165059,4.90338128 L14.2165059,7.0883461 L7.23067151,7.0883461 C5.10252749,7.0883461 3.09056346,8.01856705 1.7112434,9.64059589 C0.345982091,11.2458323 -0.244095093,13.354255 0.0927292424,15.4249925 C1.92817779,26.7110485 9.03077791,36.6816346 19.1111004,42.1506855 C20.0321441,44.3651346 21.0752256,46.4626228 22.2368302,48.4167897 C25.94717,54.6602437 30.5598084,58.9751099 35.6369715,61.0618586 C36.1514829,66.264379 32.6897097,71.1929489 27.4762548,72.3674407 C27.465125,72.3699791 27.4573146,72.3738843 27.44638,72.3764227 C26.4288776,72.619522 25.6714622,73.53256 25.6714622,74.6244566 L25.6714622,85.2394023 L21.3784652,85.2394023 C17.5509691,85.2394023 14.4371502,88.3532213 14.4371502,92.1807173 L14.4371502,97.659336 C14.4371502,98.9373158 15.4730071,99.9731727 16.7509869,99.9731727 L69.0782583,99.9731727 C70.3562382,99.9731727 71.3920951,98.9373158 71.3920951,97.659336 L71.3920951,92.1807173 C71.3920951,88.3532213 68.2782761,85.2394023 64.4507801,85.2394023 L60.1573926,85.2394023 L60.1573926,74.6246519 C60.1573926,73.5306074 59.3972435,72.6162025 58.3770075,72.3752511 C58.3674397,72.372908 58.3582625,72.3697838 58.3486947,72.3674407 C53.0957972,71.1851385 49.6275805,66.2069724 50.196179,60.9654 C55.1846938,58.8448711 59.7164944,54.5684712 63.3721612,48.4171802 C64.5337658,46.462818 65.5766521,44.3651346 66.497891,42.150295 C76.5776278,36.6810488 83.6798374,26.7106579 85.5152859,15.4249925 C85.8521102,13.354255 85.2620331,11.2460276 83.8965765,9.64079115 Z M4.66026249,14.6820263 C4.53998203,13.9425749 4.74441976,13.2167917 5.23608566,12.6384301 C5.7349762,12.0518676 6.46173572,11.7156291 7.23047625,11.7156291 L14.2163106,11.7156291 L14.2163106,15.9726981 C14.2163106,22.6478731 15.0682321,29.1137287 16.682841,35.026802 C10.3376563,30.012708 5.96889826,22.7289062 4.66026249,14.6820263 Z M64.4507801,89.8672711 C65.7266121,89.8672711 66.7646169,90.9052758 66.7646169,92.1811078 L66.7646169,95.3458897 L19.0646284,95.3458897 L19.0646284,92.1811078 C19.0646284,90.9052758 20.1026332,89.8672711 21.3784652,89.8672711 L64.4507801,89.8672711 L64.4507801,89.8672711 Z M55.5297191,76.9384886 L55.5297191,85.2395976 L30.2995262,85.2395976 L30.2995262,76.9384886 L55.5297191,76.9384886 Z M36.3676362,72.3110104 C36.9395542,71.6814906 37.4624618,70.9990552 37.9301106,70.2685857 C39.4720827,67.8592666 40.2814374,65.1221052 40.3177558,62.3265608 C41.1396072,62.4384451 41.9690737,62.49839 42.8055697,62.49839 C43.7156788,62.49839 44.6173917,62.4284868 45.5103179,62.2961002 C45.5630382,66.0527166 47.0251487,69.6086053 49.4836735,72.3108151 L36.3676362,72.3108151 L36.3676362,72.3110104 Z M66.7642263,15.9728934 C66.7642263,27.3720052 64.1465643,38.0547063 59.3937288,46.0525757 C54.8652477,53.6735924 48.9738484,57.8707166 42.8051791,57.8707166 C36.6355336,57.8707166 30.7437438,53.6737877 26.2146768,46.0529663 C21.4616461,38.0549016 18.8439841,27.3722005 18.8439841,15.9732839 L18.8439841,4.90338128 C18.8439841,4.7510781 18.9677792,4.62747822 19.1196919,4.62747822 L66.488128,4.62747822 C66.6404312,4.62747822 66.7642263,4.75127336 66.7642263,4.90338128 L66.7642263,15.9728934 L66.7642263,15.9728934 Z M80.9477527,14.6820263 C79.6391169,22.7283204 75.2707493,30.011927 68.9257599,35.0264115 C70.5401736,29.1133382 71.3920951,22.6478731 71.3920951,15.9728934 L71.3920951,11.7158243 L78.3771484,11.7158243 C79.1460842,11.7158243 79.8728437,12.0522581 80.371539,12.6386254 C80.8632049,13.2167917 81.0678379,13.9425749 80.9477527,14.6820263 Z" id="Shape"></path>
                <path d="M57.004541,18.2877064 C56.7321527,17.4504295 56.0081268,16.8400452 55.1366793,16.7131259 L48.1545549,15.6985524 L45.0321444,9.3717222 C44.6422093,8.58208881 43.8379313,8.08202671 42.9573065,8.08202671 C42.0764865,8.08202671 41.2722086,8.58208881 40.8824686,9.3717222 L37.7600582,15.6985524 L30.7779338,16.7131259 C29.906291,16.8396547 29.1822652,17.4502342 28.910072,18.2879017 C28.6380742,19.1257644 28.8649669,20.0450508 29.4956582,20.6599261 L34.5480233,25.5845907 L33.355177,32.5384024 C33.2061932,33.4065305 33.5629341,34.2836406 34.2756349,34.8014714 C34.9879451,35.3191069 35.9328106,35.3872528 36.7122905,34.9775963 L42.9573065,31.6946818 L49.2021274,34.9775963 C49.540709,35.1554786 49.9103371,35.2431506 50.2784031,35.2431506 C50.7579629,35.2431506 51.23557,35.0941668 51.6385877,34.8012761 C52.3512884,34.2834453 52.7080293,33.4063352 52.5590456,32.5382071 L51.3661993,25.5843955 L56.4185643,20.6597308 C57.0496462,20.0450508 57.2765389,19.1255692 57.004541,18.2877064 Z M47.2655339,23.1198176 C46.7201713,23.6513167 46.4712142,24.4171283 46.6000861,25.1679049 L47.2057842,28.700167 L44.0337776,27.0324472 C43.6969533,26.8551507 43.3269346,26.766893 42.9571113,26.766893 C42.5872879,26.766893 42.2174646,26.8555412 41.880445,27.0324472 L38.7084384,28.700167 L39.3141364,25.1679049 C39.4430083,24.4173236 39.1940512,23.6515119 38.6486887,23.1198176 L36.0827707,20.6185308 L39.6290916,20.1030432 C40.3826018,19.9936973 41.034186,19.5201906 41.3712056,18.8373647 L42.9573065,15.6237677 L44.5432122,18.8373647 C44.8804271,19.5201906 45.5316208,19.993502 46.2853262,20.1030432 L49.8316472,20.6185308 L47.2655339,23.1198176 Z" id="Shape"></path>
            </g>
            <g id="trophy_5" transform="translate(141.000000, 232.000000)" fill-rule="nonzero" fill="#9B9B9B">
                <path d="M83.8965765,9.64079115 C82.5170612,8.01856705 80.5052924,7.08854136 78.3771484,7.08854136 L71.3920951,7.08854136 L71.3920951,4.90357654 C71.3920951,2.19980462 69.1920952,0 66.4885185,0 L19.1198871,0 C16.4159199,0 14.2165059,2.19980462 14.2165059,4.90338128 L14.2165059,7.0883461 L7.23067151,7.0883461 C5.10252749,7.0883461 3.09056346,8.01856705 1.7112434,9.64059589 C0.345982091,11.2458323 -0.244095093,13.354255 0.0927292424,15.4249925 C1.92817779,26.7110485 9.03077791,36.6816346 19.1111004,42.1506855 C20.0321441,44.3651346 21.0752256,46.4626228 22.2368302,48.4167897 C25.94717,54.6602437 30.5598084,58.9751099 35.6369715,61.0618586 C36.1514829,66.264379 32.6897097,71.1929489 27.4762548,72.3674407 C27.465125,72.3699791 27.4573146,72.3738843 27.44638,72.3764227 C26.4288776,72.619522 25.6714622,73.53256 25.6714622,74.6244566 L25.6714622,85.2394023 L21.3784652,85.2394023 C17.5509691,85.2394023 14.4371502,88.3532213 14.4371502,92.1807173 L14.4371502,97.659336 C14.4371502,98.9373158 15.4730071,99.9731727 16.7509869,99.9731727 L69.0782583,99.9731727 C70.3562382,99.9731727 71.3920951,98.9373158 71.3920951,97.659336 L71.3920951,92.1807173 C71.3920951,88.3532213 68.2782761,85.2394023 64.4507801,85.2394023 L60.1573926,85.2394023 L60.1573926,74.6246519 C60.1573926,73.5306074 59.3972435,72.6162025 58.3770075,72.3752511 C58.3674397,72.372908 58.3582625,72.3697838 58.3486947,72.3674407 C53.0957972,71.1851385 49.6275805,66.2069724 50.196179,60.9654 C55.1846938,58.8448711 59.7164944,54.5684712 63.3721612,48.4171802 C64.5337658,46.462818 65.5766521,44.3651346 66.497891,42.150295 C76.5776278,36.6810488 83.6798374,26.7106579 85.5152859,15.4249925 C85.8521102,13.354255 85.2620331,11.2460276 83.8965765,9.64079115 Z M4.66026249,14.6820263 C4.53998203,13.9425749 4.74441976,13.2167917 5.23608566,12.6384301 C5.7349762,12.0518676 6.46173572,11.7156291 7.23047625,11.7156291 L14.2163106,11.7156291 L14.2163106,15.9726981 C14.2163106,22.6478731 15.0682321,29.1137287 16.682841,35.026802 C10.3376563,30.012708 5.96889826,22.7289062 4.66026249,14.6820263 Z M64.4507801,89.8672711 C65.7266121,89.8672711 66.7646169,90.9052758 66.7646169,92.1811078 L66.7646169,95.3458897 L19.0646284,95.3458897 L19.0646284,92.1811078 C19.0646284,90.9052758 20.1026332,89.8672711 21.3784652,89.8672711 L64.4507801,89.8672711 L64.4507801,89.8672711 Z M55.5297191,76.9384886 L55.5297191,85.2395976 L30.2995262,85.2395976 L30.2995262,76.9384886 L55.5297191,76.9384886 Z M36.3676362,72.3110104 C36.9395542,71.6814906 37.4624618,70.9990552 37.9301106,70.2685857 C39.4720827,67.8592666 40.2814374,65.1221052 40.3177558,62.3265608 C41.1396072,62.4384451 41.9690737,62.49839 42.8055697,62.49839 C43.7156788,62.49839 44.6173917,62.4284868 45.5103179,62.2961002 C45.5630382,66.0527166 47.0251487,69.6086053 49.4836735,72.3108151 L36.3676362,72.3108151 L36.3676362,72.3110104 Z M66.7642263,15.9728934 C66.7642263,27.3720052 64.1465643,38.0547063 59.3937288,46.0525757 C54.8652477,53.6735924 48.9738484,57.8707166 42.8051791,57.8707166 C36.6355336,57.8707166 30.7437438,53.6737877 26.2146768,46.0529663 C21.4616461,38.0549016 18.8439841,27.3722005 18.8439841,15.9732839 L18.8439841,4.90338128 C18.8439841,4.7510781 18.9677792,4.62747822 19.1196919,4.62747822 L66.488128,4.62747822 C66.6404312,4.62747822 66.7642263,4.75127336 66.7642263,4.90338128 L66.7642263,15.9728934 L66.7642263,15.9728934 Z M80.9477527,14.6820263 C79.6391169,22.7283204 75.2707493,30.011927 68.9257599,35.0264115 C70.5401736,29.1133382 71.3920951,22.6478731 71.3920951,15.9728934 L71.3920951,11.7158243 L78.3771484,11.7158243 C79.1460842,11.7158243 79.8728437,12.0522581 80.371539,12.6386254 C80.8632049,13.2167917 81.0678379,13.9425749 80.9477527,14.6820263 Z" id="Shape"></path>
                <path d="M57.004541,18.2877064 C56.7321527,17.4504295 56.0081268,16.8400452 55.1366793,16.7131259 L48.1545549,15.6985524 L45.0321444,9.3717222 C44.6422093,8.58208881 43.8379313,8.08202671 42.9573065,8.08202671 C42.0764865,8.08202671 41.2722086,8.58208881 40.8824686,9.3717222 L37.7600582,15.6985524 L30.7779338,16.7131259 C29.906291,16.8396547 29.1822652,17.4502342 28.910072,18.2879017 C28.6380742,19.1257644 28.8649669,20.0450508 29.4956582,20.6599261 L34.5480233,25.5845907 L33.355177,32.5384024 C33.2061932,33.4065305 33.5629341,34.2836406 34.2756349,34.8014714 C34.9879451,35.3191069 35.9328106,35.3872528 36.7122905,34.9775963 L42.9573065,31.6946818 L49.2021274,34.9775963 C49.540709,35.1554786 49.9103371,35.2431506 50.2784031,35.2431506 C50.7579629,35.2431506 51.23557,35.0941668 51.6385877,34.8012761 C52.3512884,34.2834453 52.7080293,33.4063352 52.5590456,32.5382071 L51.3661993,25.5843955 L56.4185643,20.6597308 C57.0496462,20.0450508 57.2765389,19.1255692 57.004541,18.2877064 Z M47.2655339,23.1198176 C46.7201713,23.6513167 46.4712142,24.4171283 46.6000861,25.1679049 L47.2057842,28.700167 L44.0337776,27.0324472 C43.6969533,26.8551507 43.3269346,26.766893 42.9571113,26.766893 C42.5872879,26.766893 42.2174646,26.8555412 41.880445,27.0324472 L38.7084384,28.700167 L39.3141364,25.1679049 C39.4430083,24.4173236 39.1940512,23.6515119 38.6486887,23.1198176 L36.0827707,20.6185308 L39.6290916,20.1030432 C40.3826018,19.9936973 41.034186,19.5201906 41.3712056,18.8373647 L42.9573065,15.6237677 L44.5432122,18.8373647 C44.8804271,19.5201906 45.5316208,19.993502 46.2853262,20.1030432 L49.8316472,20.6185308 L47.2655339,23.1198176 Z" id="Shape"></path>
            </g>
            <g id="trophy_6" transform="translate(310.000000, 232.000000)" fill-rule="nonzero" fill="#9B9B9B">
                <path d="M83.8965765,9.64079115 C82.5170612,8.01856705 80.5052924,7.08854136 78.3771484,7.08854136 L71.3920951,7.08854136 L71.3920951,4.90357654 C71.3920951,2.19980462 69.1920952,0 66.4885185,0 L19.1198871,0 C16.4159199,0 14.2165059,2.19980462 14.2165059,4.90338128 L14.2165059,7.0883461 L7.23067151,7.0883461 C5.10252749,7.0883461 3.09056346,8.01856705 1.7112434,9.64059589 C0.345982091,11.2458323 -0.244095093,13.354255 0.0927292424,15.4249925 C1.92817779,26.7110485 9.03077791,36.6816346 19.1111004,42.1506855 C20.0321441,44.3651346 21.0752256,46.4626228 22.2368302,48.4167897 C25.94717,54.6602437 30.5598084,58.9751099 35.6369715,61.0618586 C36.1514829,66.264379 32.6897097,71.1929489 27.4762548,72.3674407 C27.465125,72.3699791 27.4573146,72.3738843 27.44638,72.3764227 C26.4288776,72.619522 25.6714622,73.53256 25.6714622,74.6244566 L25.6714622,85.2394023 L21.3784652,85.2394023 C17.5509691,85.2394023 14.4371502,88.3532213 14.4371502,92.1807173 L14.4371502,97.659336 C14.4371502,98.9373158 15.4730071,99.9731727 16.7509869,99.9731727 L69.0782583,99.9731727 C70.3562382,99.9731727 71.3920951,98.9373158 71.3920951,97.659336 L71.3920951,92.1807173 C71.3920951,88.3532213 68.2782761,85.2394023 64.4507801,85.2394023 L60.1573926,85.2394023 L60.1573926,74.6246519 C60.1573926,73.5306074 59.3972435,72.6162025 58.3770075,72.3752511 C58.3674397,72.372908 58.3582625,72.3697838 58.3486947,72.3674407 C53.0957972,71.1851385 49.6275805,66.2069724 50.196179,60.9654 C55.1846938,58.8448711 59.7164944,54.5684712 63.3721612,48.4171802 C64.5337658,46.462818 65.5766521,44.3651346 66.497891,42.150295 C76.5776278,36.6810488 83.6798374,26.7106579 85.5152859,15.4249925 C85.8521102,13.354255 85.2620331,11.2460276 83.8965765,9.64079115 Z M4.66026249,14.6820263 C4.53998203,13.9425749 4.74441976,13.2167917 5.23608566,12.6384301 C5.7349762,12.0518676 6.46173572,11.7156291 7.23047625,11.7156291 L14.2163106,11.7156291 L14.2163106,15.9726981 C14.2163106,22.6478731 15.0682321,29.1137287 16.682841,35.026802 C10.3376563,30.012708 5.96889826,22.7289062 4.66026249,14.6820263 Z M64.4507801,89.8672711 C65.7266121,89.8672711 66.7646169,90.9052758 66.7646169,92.1811078 L66.7646169,95.3458897 L19.0646284,95.3458897 L19.0646284,92.1811078 C19.0646284,90.9052758 20.1026332,89.8672711 21.3784652,89.8672711 L64.4507801,89.8672711 L64.4507801,89.8672711 Z M55.5297191,76.9384886 L55.5297191,85.2395976 L30.2995262,85.2395976 L30.2995262,76.9384886 L55.5297191,76.9384886 Z M36.3676362,72.3110104 C36.9395542,71.6814906 37.4624618,70.9990552 37.9301106,70.2685857 C39.4720827,67.8592666 40.2814374,65.1221052 40.3177558,62.3265608 C41.1396072,62.4384451 41.9690737,62.49839 42.8055697,62.49839 C43.7156788,62.49839 44.6173917,62.4284868 45.5103179,62.2961002 C45.5630382,66.0527166 47.0251487,69.6086053 49.4836735,72.3108151 L36.3676362,72.3108151 L36.3676362,72.3110104 Z M66.7642263,15.9728934 C66.7642263,27.3720052 64.1465643,38.0547063 59.3937288,46.0525757 C54.8652477,53.6735924 48.9738484,57.8707166 42.8051791,57.8707166 C36.6355336,57.8707166 30.7437438,53.6737877 26.2146768,46.0529663 C21.4616461,38.0549016 18.8439841,27.3722005 18.8439841,15.9732839 L18.8439841,4.90338128 C18.8439841,4.7510781 18.9677792,4.62747822 19.1196919,4.62747822 L66.488128,4.62747822 C66.6404312,4.62747822 66.7642263,4.75127336 66.7642263,4.90338128 L66.7642263,15.9728934 L66.7642263,15.9728934 Z M80.9477527,14.6820263 C79.6391169,22.7283204 75.2707493,30.011927 68.9257599,35.0264115 C70.5401736,29.1133382 71.3920951,22.6478731 71.3920951,15.9728934 L71.3920951,11.7158243 L78.3771484,11.7158243 C79.1460842,11.7158243 79.8728437,12.0522581 80.371539,12.6386254 C80.8632049,13.2167917 81.0678379,13.9425749 80.9477527,14.6820263 Z" id="Shape"></path>
                <path d="M57.004541,18.2877064 C56.7321527,17.4504295 56.0081268,16.8400452 55.1366793,16.7131259 L48.1545549,15.6985524 L45.0321444,9.3717222 C44.6422093,8.58208881 43.8379313,8.08202671 42.9573065,8.08202671 C42.0764865,8.08202671 41.2722086,8.58208881 40.8824686,9.3717222 L37.7600582,15.6985524 L30.7779338,16.7131259 C29.906291,16.8396547 29.1822652,17.4502342 28.910072,18.2879017 C28.6380742,19.1257644 28.8649669,20.0450508 29.4956582,20.6599261 L34.5480233,25.5845907 L33.355177,32.5384024 C33.2061932,33.4065305 33.5629341,34.2836406 34.2756349,34.8014714 C34.9879451,35.3191069 35.9328106,35.3872528 36.7122905,34.9775963 L42.9573065,31.6946818 L49.2021274,34.9775963 C49.540709,35.1554786 49.9103371,35.2431506 50.2784031,35.2431506 C50.7579629,35.2431506 51.23557,35.0941668 51.6385877,34.8012761 C52.3512884,34.2834453 52.7080293,33.4063352 52.5590456,32.5382071 L51.3661993,25.5843955 L56.4185643,20.6597308 C57.0496462,20.0450508 57.2765389,19.1255692 57.004541,18.2877064 Z M47.2655339,23.1198176 C46.7201713,23.6513167 46.4712142,24.4171283 46.6000861,25.1679049 L47.2057842,28.700167 L44.0337776,27.0324472 C43.6969533,26.8551507 43.3269346,26.766893 42.9571113,26.766893 C42.5872879,26.766893 42.2174646,26.8555412 41.880445,27.0324472 L38.7084384,28.700167 L39.3141364,25.1679049 C39.4430083,24.4173236 39.1940512,23.6515119 38.6486887,23.1198176 L36.0827707,20.6185308 L39.6290916,20.1030432 C40.3826018,19.9936973 41.034186,19.5201906 41.3712056,18.8373647 L42.9573065,15.6237677 L44.5432122,18.8373647 C44.8804271,19.5201906 45.5316208,19.993502 46.2853262,20.1030432 L49.8316472,20.6185308 L47.2655339,23.1198176 Z" id="Shape"></path>
            </g>
            <g id="trophy_7" transform="translate(480.000000, 232.000000)" fill-rule="nonzero" fill="#9B9B9B">
                <path d="M83.8965765,9.64079115 C82.5170612,8.01856705 80.5052924,7.08854136 78.3771484,7.08854136 L71.3920951,7.08854136 L71.3920951,4.90357654 C71.3920951,2.19980462 69.1920952,0 66.4885185,0 L19.1198871,0 C16.4159199,0 14.2165059,2.19980462 14.2165059,4.90338128 L14.2165059,7.0883461 L7.23067151,7.0883461 C5.10252749,7.0883461 3.09056346,8.01856705 1.7112434,9.64059589 C0.345982091,11.2458323 -0.244095093,13.354255 0.0927292424,15.4249925 C1.92817779,26.7110485 9.03077791,36.6816346 19.1111004,42.1506855 C20.0321441,44.3651346 21.0752256,46.4626228 22.2368302,48.4167897 C25.94717,54.6602437 30.5598084,58.9751099 35.6369715,61.0618586 C36.1514829,66.264379 32.6897097,71.1929489 27.4762548,72.3674407 C27.465125,72.3699791 27.4573146,72.3738843 27.44638,72.3764227 C26.4288776,72.619522 25.6714622,73.53256 25.6714622,74.6244566 L25.6714622,85.2394023 L21.3784652,85.2394023 C17.5509691,85.2394023 14.4371502,88.3532213 14.4371502,92.1807173 L14.4371502,97.659336 C14.4371502,98.9373158 15.4730071,99.9731727 16.7509869,99.9731727 L69.0782583,99.9731727 C70.3562382,99.9731727 71.3920951,98.9373158 71.3920951,97.659336 L71.3920951,92.1807173 C71.3920951,88.3532213 68.2782761,85.2394023 64.4507801,85.2394023 L60.1573926,85.2394023 L60.1573926,74.6246519 C60.1573926,73.5306074 59.3972435,72.6162025 58.3770075,72.3752511 C58.3674397,72.372908 58.3582625,72.3697838 58.3486947,72.3674407 C53.0957972,71.1851385 49.6275805,66.2069724 50.196179,60.9654 C55.1846938,58.8448711 59.7164944,54.5684712 63.3721612,48.4171802 C64.5337658,46.462818 65.5766521,44.3651346 66.497891,42.150295 C76.5776278,36.6810488 83.6798374,26.7106579 85.5152859,15.4249925 C85.8521102,13.354255 85.2620331,11.2460276 83.8965765,9.64079115 Z M4.66026249,14.6820263 C4.53998203,13.9425749 4.74441976,13.2167917 5.23608566,12.6384301 C5.7349762,12.0518676 6.46173572,11.7156291 7.23047625,11.7156291 L14.2163106,11.7156291 L14.2163106,15.9726981 C14.2163106,22.6478731 15.0682321,29.1137287 16.682841,35.026802 C10.3376563,30.012708 5.96889826,22.7289062 4.66026249,14.6820263 Z M64.4507801,89.8672711 C65.7266121,89.8672711 66.7646169,90.9052758 66.7646169,92.1811078 L66.7646169,95.3458897 L19.0646284,95.3458897 L19.0646284,92.1811078 C19.0646284,90.9052758 20.1026332,89.8672711 21.3784652,89.8672711 L64.4507801,89.8672711 L64.4507801,89.8672711 Z M55.5297191,76.9384886 L55.5297191,85.2395976 L30.2995262,85.2395976 L30.2995262,76.9384886 L55.5297191,76.9384886 Z M36.3676362,72.3110104 C36.9395542,71.6814906 37.4624618,70.9990552 37.9301106,70.2685857 C39.4720827,67.8592666 40.2814374,65.1221052 40.3177558,62.3265608 C41.1396072,62.4384451 41.9690737,62.49839 42.8055697,62.49839 C43.7156788,62.49839 44.6173917,62.4284868 45.5103179,62.2961002 C45.5630382,66.0527166 47.0251487,69.6086053 49.4836735,72.3108151 L36.3676362,72.3108151 L36.3676362,72.3110104 Z M66.7642263,15.9728934 C66.7642263,27.3720052 64.1465643,38.0547063 59.3937288,46.0525757 C54.8652477,53.6735924 48.9738484,57.8707166 42.8051791,57.8707166 C36.6355336,57.8707166 30.7437438,53.6737877 26.2146768,46.0529663 C21.4616461,38.0549016 18.8439841,27.3722005 18.8439841,15.9732839 L18.8439841,4.90338128 C18.8439841,4.7510781 18.9677792,4.62747822 19.1196919,4.62747822 L66.488128,4.62747822 C66.6404312,4.62747822 66.7642263,4.75127336 66.7642263,4.90338128 L66.7642263,15.9728934 L66.7642263,15.9728934 Z M80.9477527,14.6820263 C79.6391169,22.7283204 75.2707493,30.011927 68.9257599,35.0264115 C70.5401736,29.1133382 71.3920951,22.6478731 71.3920951,15.9728934 L71.3920951,11.7158243 L78.3771484,11.7158243 C79.1460842,11.7158243 79.8728437,12.0522581 80.371539,12.6386254 C80.8632049,13.2167917 81.0678379,13.9425749 80.9477527,14.6820263 Z" id="Shape"></path>
                <path d="M57.004541,18.2877064 C56.7321527,17.4504295 56.0081268,16.8400452 55.1366793,16.7131259 L48.1545549,15.6985524 L45.0321444,9.3717222 C44.6422093,8.58208881 43.8379313,8.08202671 42.9573065,8.08202671 C42.0764865,8.08202671 41.2722086,8.58208881 40.8824686,9.3717222 L37.7600582,15.6985524 L30.7779338,16.7131259 C29.906291,16.8396547 29.1822652,17.4502342 28.910072,18.2879017 C28.6380742,19.1257644 28.8649669,20.0450508 29.4956582,20.6599261 L34.5480233,25.5845907 L33.355177,32.5384024 C33.2061932,33.4065305 33.5629341,34.2836406 34.2756349,34.8014714 C34.9879451,35.3191069 35.9328106,35.3872528 36.7122905,34.9775963 L42.9573065,31.6946818 L49.2021274,34.9775963 C49.540709,35.1554786 49.9103371,35.2431506 50.2784031,35.2431506 C50.7579629,35.2431506 51.23557,35.0941668 51.6385877,34.8012761 C52.3512884,34.2834453 52.7080293,33.4063352 52.5590456,32.5382071 L51.3661993,25.5843955 L56.4185643,20.6597308 C57.0496462,20.0450508 57.2765389,19.1255692 57.004541,18.2877064 Z M47.2655339,23.1198176 C46.7201713,23.6513167 46.4712142,24.4171283 46.6000861,25.1679049 L47.2057842,28.700167 L44.0337776,27.0324472 C43.6969533,26.8551507 43.3269346,26.766893 42.9571113,26.766893 C42.5872879,26.766893 42.2174646,26.8555412 41.880445,27.0324472 L38.7084384,28.700167 L39.3141364,25.1679049 C39.4430083,24.4173236 39.1940512,23.6515119 38.6486887,23.1198176 L36.0827707,20.6185308 L39.6290916,20.1030432 C40.3826018,19.9936973 41.034186,19.5201906 41.3712056,18.8373647 L42.9573065,15.6237677 L44.5432122,18.8373647 C44.8804271,19.5201906 45.5316208,19.993502 46.2853262,20.1030432 L49.8316472,20.6185308 L47.2655339,23.1198176 Z" id="Shape"></path>
            </g>
            <g id="trophy_8" transform="translate(651.000000, 232.000000)" fill-rule="nonzero" fill="#9B9B9B">
                <path d="M83.8965765,9.64079115 C82.5170612,8.01856705 80.5052924,7.08854136 78.3771484,7.08854136 L71.3920951,7.08854136 L71.3920951,4.90357654 C71.3920951,2.19980462 69.1920952,0 66.4885185,0 L19.1198871,0 C16.4159199,0 14.2165059,2.19980462 14.2165059,4.90338128 L14.2165059,7.0883461 L7.23067151,7.0883461 C5.10252749,7.0883461 3.09056346,8.01856705 1.7112434,9.64059589 C0.345982091,11.2458323 -0.244095093,13.354255 0.0927292424,15.4249925 C1.92817779,26.7110485 9.03077791,36.6816346 19.1111004,42.1506855 C20.0321441,44.3651346 21.0752256,46.4626228 22.2368302,48.4167897 C25.94717,54.6602437 30.5598084,58.9751099 35.6369715,61.0618586 C36.1514829,66.264379 32.6897097,71.1929489 27.4762548,72.3674407 C27.465125,72.3699791 27.4573146,72.3738843 27.44638,72.3764227 C26.4288776,72.619522 25.6714622,73.53256 25.6714622,74.6244566 L25.6714622,85.2394023 L21.3784652,85.2394023 C17.5509691,85.2394023 14.4371502,88.3532213 14.4371502,92.1807173 L14.4371502,97.659336 C14.4371502,98.9373158 15.4730071,99.9731727 16.7509869,99.9731727 L69.0782583,99.9731727 C70.3562382,99.9731727 71.3920951,98.9373158 71.3920951,97.659336 L71.3920951,92.1807173 C71.3920951,88.3532213 68.2782761,85.2394023 64.4507801,85.2394023 L60.1573926,85.2394023 L60.1573926,74.6246519 C60.1573926,73.5306074 59.3972435,72.6162025 58.3770075,72.3752511 C58.3674397,72.372908 58.3582625,72.3697838 58.3486947,72.3674407 C53.0957972,71.1851385 49.6275805,66.2069724 50.196179,60.9654 C55.1846938,58.8448711 59.7164944,54.5684712 63.3721612,48.4171802 C64.5337658,46.462818 65.5766521,44.3651346 66.497891,42.150295 C76.5776278,36.6810488 83.6798374,26.7106579 85.5152859,15.4249925 C85.8521102,13.354255 85.2620331,11.2460276 83.8965765,9.64079115 Z M4.66026249,14.6820263 C4.53998203,13.9425749 4.74441976,13.2167917 5.23608566,12.6384301 C5.7349762,12.0518676 6.46173572,11.7156291 7.23047625,11.7156291 L14.2163106,11.7156291 L14.2163106,15.9726981 C14.2163106,22.6478731 15.0682321,29.1137287 16.682841,35.026802 C10.3376563,30.012708 5.96889826,22.7289062 4.66026249,14.6820263 Z M64.4507801,89.8672711 C65.7266121,89.8672711 66.7646169,90.9052758 66.7646169,92.1811078 L66.7646169,95.3458897 L19.0646284,95.3458897 L19.0646284,92.1811078 C19.0646284,90.9052758 20.1026332,89.8672711 21.3784652,89.8672711 L64.4507801,89.8672711 L64.4507801,89.8672711 Z M55.5297191,76.9384886 L55.5297191,85.2395976 L30.2995262,85.2395976 L30.2995262,76.9384886 L55.5297191,76.9384886 Z M36.3676362,72.3110104 C36.9395542,71.6814906 37.4624618,70.9990552 37.9301106,70.2685857 C39.4720827,67.8592666 40.2814374,65.1221052 40.3177558,62.3265608 C41.1396072,62.4384451 41.9690737,62.49839 42.8055697,62.49839 C43.7156788,62.49839 44.6173917,62.4284868 45.5103179,62.2961002 C45.5630382,66.0527166 47.0251487,69.6086053 49.4836735,72.3108151 L36.3676362,72.3108151 L36.3676362,72.3110104 Z M66.7642263,15.9728934 C66.7642263,27.3720052 64.1465643,38.0547063 59.3937288,46.0525757 C54.8652477,53.6735924 48.9738484,57.8707166 42.8051791,57.8707166 C36.6355336,57.8707166 30.7437438,53.6737877 26.2146768,46.0529663 C21.4616461,38.0549016 18.8439841,27.3722005 18.8439841,15.9732839 L18.8439841,4.90338128 C18.8439841,4.7510781 18.9677792,4.62747822 19.1196919,4.62747822 L66.488128,4.62747822 C66.6404312,4.62747822 66.7642263,4.75127336 66.7642263,4.90338128 L66.7642263,15.9728934 L66.7642263,15.9728934 Z M80.9477527,14.6820263 C79.6391169,22.7283204 75.2707493,30.011927 68.9257599,35.0264115 C70.5401736,29.1133382 71.3920951,22.6478731 71.3920951,15.9728934 L71.3920951,11.7158243 L78.3771484,11.7158243 C79.1460842,11.7158243 79.8728437,12.0522581 80.371539,12.6386254 C80.8632049,13.2167917 81.0678379,13.9425749 80.9477527,14.6820263 Z" id="Shape"></path>
                <path d="M57.004541,18.2877064 C56.7321527,17.4504295 56.0081268,16.8400452 55.1366793,16.7131259 L48.1545549,15.6985524 L45.0321444,9.3717222 C44.6422093,8.58208881 43.8379313,8.08202671 42.9573065,8.08202671 C42.0764865,8.08202671 41.2722086,8.58208881 40.8824686,9.3717222 L37.7600582,15.6985524 L30.7779338,16.7131259 C29.906291,16.8396547 29.1822652,17.4502342 28.910072,18.2879017 C28.6380742,19.1257644 28.8649669,20.0450508 29.4956582,20.6599261 L34.5480233,25.5845907 L33.355177,32.5384024 C33.2061932,33.4065305 33.5629341,34.2836406 34.2756349,34.8014714 C34.9879451,35.3191069 35.9328106,35.3872528 36.7122905,34.9775963 L42.9573065,31.6946818 L49.2021274,34.9775963 C49.540709,35.1554786 49.9103371,35.2431506 50.2784031,35.2431506 C50.7579629,35.2431506 51.23557,35.0941668 51.6385877,34.8012761 C52.3512884,34.2834453 52.7080293,33.4063352 52.5590456,32.5382071 L51.3661993,25.5843955 L56.4185643,20.6597308 C57.0496462,20.0450508 57.2765389,19.1255692 57.004541,18.2877064 Z M47.2655339,23.1198176 C46.7201713,23.6513167 46.4712142,24.4171283 46.6000861,25.1679049 L47.2057842,28.700167 L44.0337776,27.0324472 C43.6969533,26.8551507 43.3269346,26.766893 42.9571113,26.766893 C42.5872879,26.766893 42.2174646,26.8555412 41.880445,27.0324472 L38.7084384,28.700167 L39.3141364,25.1679049 C39.4430083,24.4173236 39.1940512,23.6515119 38.6486887,23.1198176 L36.0827707,20.6185308 L39.6290916,20.1030432 C40.3826018,19.9936973 41.034186,19.5201906 41.3712056,18.8373647 L42.9573065,15.6237677 L44.5432122,18.8373647 C44.8804271,19.5201906 45.5316208,19.993502 46.2853262,20.1030432 L49.8316472,20.6185308 L47.2655339,23.1198176 Z" id="Shape"></path>
            </g>
            <g id="trophy_9" transform="translate(819.000000, 232.000000)" fill-rule="nonzero" fill="#9B9B9B">
                <path d="M83.8965765,9.64079115 C82.5170612,8.01856705 80.5052924,7.08854136 78.3771484,7.08854136 L71.3920951,7.08854136 L71.3920951,4.90357654 C71.3920951,2.19980462 69.1920952,0 66.4885185,0 L19.1198871,0 C16.4159199,0 14.2165059,2.19980462 14.2165059,4.90338128 L14.2165059,7.0883461 L7.23067151,7.0883461 C5.10252749,7.0883461 3.09056346,8.01856705 1.7112434,9.64059589 C0.345982091,11.2458323 -0.244095093,13.354255 0.0927292424,15.4249925 C1.92817779,26.7110485 9.03077791,36.6816346 19.1111004,42.1506855 C20.0321441,44.3651346 21.0752256,46.4626228 22.2368302,48.4167897 C25.94717,54.6602437 30.5598084,58.9751099 35.6369715,61.0618586 C36.1514829,66.264379 32.6897097,71.1929489 27.4762548,72.3674407 C27.465125,72.3699791 27.4573146,72.3738843 27.44638,72.3764227 C26.4288776,72.619522 25.6714622,73.53256 25.6714622,74.6244566 L25.6714622,85.2394023 L21.3784652,85.2394023 C17.5509691,85.2394023 14.4371502,88.3532213 14.4371502,92.1807173 L14.4371502,97.659336 C14.4371502,98.9373158 15.4730071,99.9731727 16.7509869,99.9731727 L69.0782583,99.9731727 C70.3562382,99.9731727 71.3920951,98.9373158 71.3920951,97.659336 L71.3920951,92.1807173 C71.3920951,88.3532213 68.2782761,85.2394023 64.4507801,85.2394023 L60.1573926,85.2394023 L60.1573926,74.6246519 C60.1573926,73.5306074 59.3972435,72.6162025 58.3770075,72.3752511 C58.3674397,72.372908 58.3582625,72.3697838 58.3486947,72.3674407 C53.0957972,71.1851385 49.6275805,66.2069724 50.196179,60.9654 C55.1846938,58.8448711 59.7164944,54.5684712 63.3721612,48.4171802 C64.5337658,46.462818 65.5766521,44.3651346 66.497891,42.150295 C76.5776278,36.6810488 83.6798374,26.7106579 85.5152859,15.4249925 C85.8521102,13.354255 85.2620331,11.2460276 83.8965765,9.64079115 Z M4.66026249,14.6820263 C4.53998203,13.9425749 4.74441976,13.2167917 5.23608566,12.6384301 C5.7349762,12.0518676 6.46173572,11.7156291 7.23047625,11.7156291 L14.2163106,11.7156291 L14.2163106,15.9726981 C14.2163106,22.6478731 15.0682321,29.1137287 16.682841,35.026802 C10.3376563,30.012708 5.96889826,22.7289062 4.66026249,14.6820263 Z M64.4507801,89.8672711 C65.7266121,89.8672711 66.7646169,90.9052758 66.7646169,92.1811078 L66.7646169,95.3458897 L19.0646284,95.3458897 L19.0646284,92.1811078 C19.0646284,90.9052758 20.1026332,89.8672711 21.3784652,89.8672711 L64.4507801,89.8672711 L64.4507801,89.8672711 Z M55.5297191,76.9384886 L55.5297191,85.2395976 L30.2995262,85.2395976 L30.2995262,76.9384886 L55.5297191,76.9384886 Z M36.3676362,72.3110104 C36.9395542,71.6814906 37.4624618,70.9990552 37.9301106,70.2685857 C39.4720827,67.8592666 40.2814374,65.1221052 40.3177558,62.3265608 C41.1396072,62.4384451 41.9690737,62.49839 42.8055697,62.49839 C43.7156788,62.49839 44.6173917,62.4284868 45.5103179,62.2961002 C45.5630382,66.0527166 47.0251487,69.6086053 49.4836735,72.3108151 L36.3676362,72.3108151 L36.3676362,72.3110104 Z M66.7642263,15.9728934 C66.7642263,27.3720052 64.1465643,38.0547063 59.3937288,46.0525757 C54.8652477,53.6735924 48.9738484,57.8707166 42.8051791,57.8707166 C36.6355336,57.8707166 30.7437438,53.6737877 26.2146768,46.0529663 C21.4616461,38.0549016 18.8439841,27.3722005 18.8439841,15.9732839 L18.8439841,4.90338128 C18.8439841,4.7510781 18.9677792,4.62747822 19.1196919,4.62747822 L66.488128,4.62747822 C66.6404312,4.62747822 66.7642263,4.75127336 66.7642263,4.90338128 L66.7642263,15.9728934 L66.7642263,15.9728934 Z M80.9477527,14.6820263 C79.6391169,22.7283204 75.2707493,30.011927 68.9257599,35.0264115 C70.5401736,29.1133382 71.3920951,22.6478731 71.3920951,15.9728934 L71.3920951,11.7158243 L78.3771484,11.7158243 C79.1460842,11.7158243 79.8728437,12.0522581 80.371539,12.6386254 C80.8632049,13.2167917 81.0678379,13.9425749 80.9477527,14.6820263 Z" id="Shape"></path>
                <path d="M57.004541,18.2877064 C56.7321527,17.4504295 56.0081268,16.8400452 55.1366793,16.7131259 L48.1545549,15.6985524 L45.0321444,9.3717222 C44.6422093,8.58208881 43.8379313,8.08202671 42.9573065,8.08202671 C42.0764865,8.08202671 41.2722086,8.58208881 40.8824686,9.3717222 L37.7600582,15.6985524 L30.7779338,16.7131259 C29.906291,16.8396547 29.1822652,17.4502342 28.910072,18.2879017 C28.6380742,19.1257644 28.8649669,20.0450508 29.4956582,20.6599261 L34.5480233,25.5845907 L33.355177,32.5384024 C33.2061932,33.4065305 33.5629341,34.2836406 34.2756349,34.8014714 C34.9879451,35.3191069 35.9328106,35.3872528 36.7122905,34.9775963 L42.9573065,31.6946818 L49.2021274,34.9775963 C49.540709,35.1554786 49.9103371,35.2431506 50.2784031,35.2431506 C50.7579629,35.2431506 51.23557,35.0941668 51.6385877,34.8012761 C52.3512884,34.2834453 52.7080293,33.4063352 52.5590456,32.5382071 L51.3661993,25.5843955 L56.4185643,20.6597308 C57.0496462,20.0450508 57.2765389,19.1255692 57.004541,18.2877064 Z M47.2655339,23.1198176 C46.7201713,23.6513167 46.4712142,24.4171283 46.6000861,25.1679049 L47.2057842,28.700167 L44.0337776,27.0324472 C43.6969533,26.8551507 43.3269346,26.766893 42.9571113,26.766893 C42.5872879,26.766893 42.2174646,26.8555412 41.880445,27.0324472 L38.7084384,28.700167 L39.3141364,25.1679049 C39.4430083,24.4173236 39.1940512,23.6515119 38.6486887,23.1198176 L36.0827707,20.6185308 L39.6290916,20.1030432 C40.3826018,19.9936973 41.034186,19.5201906 41.3712056,18.8373647 L42.9573065,15.6237677 L44.5432122,18.8373647 C44.8804271,19.5201906 45.5316208,19.993502 46.2853262,20.1030432 L49.8316472,20.6185308 L47.2655339,23.1198176 Z" id="Shape"></path>
            </g>
            <g id="trophy_10" transform="translate(141.000000, 416.000000)" fill-rule="nonzero" fill="#9B9B9B">
                <path d="M83.8965765,9.64079115 C82.5170612,8.01856705 80.5052924,7.08854136 78.3771484,7.08854136 L71.3920951,7.08854136 L71.3920951,4.90357654 C71.3920951,2.19980462 69.1920952,0 66.4885185,0 L19.1198871,0 C16.4159199,0 14.2165059,2.19980462 14.2165059,4.90338128 L14.2165059,7.0883461 L7.23067151,7.0883461 C5.10252749,7.0883461 3.09056346,8.01856705 1.7112434,9.64059589 C0.345982091,11.2458323 -0.244095093,13.354255 0.0927292424,15.4249925 C1.92817779,26.7110485 9.03077791,36.6816346 19.1111004,42.1506855 C20.0321441,44.3651346 21.0752256,46.4626228 22.2368302,48.4167897 C25.94717,54.6602437 30.5598084,58.9751099 35.6369715,61.0618586 C36.1514829,66.264379 32.6897097,71.1929489 27.4762548,72.3674407 C27.465125,72.3699791 27.4573146,72.3738843 27.44638,72.3764227 C26.4288776,72.619522 25.6714622,73.53256 25.6714622,74.6244566 L25.6714622,85.2394023 L21.3784652,85.2394023 C17.5509691,85.2394023 14.4371502,88.3532213 14.4371502,92.1807173 L14.4371502,97.659336 C14.4371502,98.9373158 15.4730071,99.9731727 16.7509869,99.9731727 L69.0782583,99.9731727 C70.3562382,99.9731727 71.3920951,98.9373158 71.3920951,97.659336 L71.3920951,92.1807173 C71.3920951,88.3532213 68.2782761,85.2394023 64.4507801,85.2394023 L60.1573926,85.2394023 L60.1573926,74.6246519 C60.1573926,73.5306074 59.3972435,72.6162025 58.3770075,72.3752511 C58.3674397,72.372908 58.3582625,72.3697838 58.3486947,72.3674407 C53.0957972,71.1851385 49.6275805,66.2069724 50.196179,60.9654 C55.1846938,58.8448711 59.7164944,54.5684712 63.3721612,48.4171802 C64.5337658,46.462818 65.5766521,44.3651346 66.497891,42.150295 C76.5776278,36.6810488 83.6798374,26.7106579 85.5152859,15.4249925 C85.8521102,13.354255 85.2620331,11.2460276 83.8965765,9.64079115 Z M4.66026249,14.6820263 C4.53998203,13.9425749 4.74441976,13.2167917 5.23608566,12.6384301 C5.7349762,12.0518676 6.46173572,11.7156291 7.23047625,11.7156291 L14.2163106,11.7156291 L14.2163106,15.9726981 C14.2163106,22.6478731 15.0682321,29.1137287 16.682841,35.026802 C10.3376563,30.012708 5.96889826,22.7289062 4.66026249,14.6820263 Z M64.4507801,89.8672711 C65.7266121,89.8672711 66.7646169,90.9052758 66.7646169,92.1811078 L66.7646169,95.3458897 L19.0646284,95.3458897 L19.0646284,92.1811078 C19.0646284,90.9052758 20.1026332,89.8672711 21.3784652,89.8672711 L64.4507801,89.8672711 L64.4507801,89.8672711 Z M55.5297191,76.9384886 L55.5297191,85.2395976 L30.2995262,85.2395976 L30.2995262,76.9384886 L55.5297191,76.9384886 Z M36.3676362,72.3110104 C36.9395542,71.6814906 37.4624618,70.9990552 37.9301106,70.2685857 C39.4720827,67.8592666 40.2814374,65.1221052 40.3177558,62.3265608 C41.1396072,62.4384451 41.9690737,62.49839 42.8055697,62.49839 C43.7156788,62.49839 44.6173917,62.4284868 45.5103179,62.2961002 C45.5630382,66.0527166 47.0251487,69.6086053 49.4836735,72.3108151 L36.3676362,72.3108151 L36.3676362,72.3110104 Z M66.7642263,15.9728934 C66.7642263,27.3720052 64.1465643,38.0547063 59.3937288,46.0525757 C54.8652477,53.6735924 48.9738484,57.8707166 42.8051791,57.8707166 C36.6355336,57.8707166 30.7437438,53.6737877 26.2146768,46.0529663 C21.4616461,38.0549016 18.8439841,27.3722005 18.8439841,15.9732839 L18.8439841,4.90338128 C18.8439841,4.7510781 18.9677792,4.62747822 19.1196919,4.62747822 L66.488128,4.62747822 C66.6404312,4.62747822 66.7642263,4.75127336 66.7642263,4.90338128 L66.7642263,15.9728934 L66.7642263,15.9728934 Z M80.9477527,14.6820263 C79.6391169,22.7283204 75.2707493,30.011927 68.9257599,35.0264115 C70.5401736,29.1133382 71.3920951,22.6478731 71.3920951,15.9728934 L71.3920951,11.7158243 L78.3771484,11.7158243 C79.1460842,11.7158243 79.8728437,12.0522581 80.371539,12.6386254 C80.8632049,13.2167917 81.0678379,13.9425749 80.9477527,14.6820263 Z" id="Shape"></path>
                <path d="M57.004541,18.2877064 C56.7321527,17.4504295 56.0081268,16.8400452 55.1366793,16.7131259 L48.1545549,15.6985524 L45.0321444,9.3717222 C44.6422093,8.58208881 43.8379313,8.08202671 42.9573065,8.08202671 C42.0764865,8.08202671 41.2722086,8.58208881 40.8824686,9.3717222 L37.7600582,15.6985524 L30.7779338,16.7131259 C29.906291,16.8396547 29.1822652,17.4502342 28.910072,18.2879017 C28.6380742,19.1257644 28.8649669,20.0450508 29.4956582,20.6599261 L34.5480233,25.5845907 L33.355177,32.5384024 C33.2061932,33.4065305 33.5629341,34.2836406 34.2756349,34.8014714 C34.9879451,35.3191069 35.9328106,35.3872528 36.7122905,34.9775963 L42.9573065,31.6946818 L49.2021274,34.9775963 C49.540709,35.1554786 49.9103371,35.2431506 50.2784031,35.2431506 C50.7579629,35.2431506 51.23557,35.0941668 51.6385877,34.8012761 C52.3512884,34.2834453 52.7080293,33.4063352 52.5590456,32.5382071 L51.3661993,25.5843955 L56.4185643,20.6597308 C57.0496462,20.0450508 57.2765389,19.1255692 57.004541,18.2877064 Z M47.2655339,23.1198176 C46.7201713,23.6513167 46.4712142,24.4171283 46.6000861,25.1679049 L47.2057842,28.700167 L44.0337776,27.0324472 C43.6969533,26.8551507 43.3269346,26.766893 42.9571113,26.766893 C42.5872879,26.766893 42.2174646,26.8555412 41.880445,27.0324472 L38.7084384,28.700167 L39.3141364,25.1679049 C39.4430083,24.4173236 39.1940512,23.6515119 38.6486887,23.1198176 L36.0827707,20.6185308 L39.6290916,20.1030432 C40.3826018,19.9936973 41.034186,19.5201906 41.3712056,18.8373647 L42.9573065,15.6237677 L44.5432122,18.8373647 C44.8804271,19.5201906 45.5316208,19.993502 46.2853262,20.1030432 L49.8316472,20.6185308 L47.2655339,23.1198176 Z" id="Shape"></path>
            </g>
            <g id="trophy_11" transform="translate(310.000000, 416.000000)" fill-rule="nonzero" fill="#9B9B9B">
                <path d="M83.8965765,9.64079115 C82.5170612,8.01856705 80.5052924,7.08854136 78.3771484,7.08854136 L71.3920951,7.08854136 L71.3920951,4.90357654 C71.3920951,2.19980462 69.1920952,0 66.4885185,0 L19.1198871,0 C16.4159199,0 14.2165059,2.19980462 14.2165059,4.90338128 L14.2165059,7.0883461 L7.23067151,7.0883461 C5.10252749,7.0883461 3.09056346,8.01856705 1.7112434,9.64059589 C0.345982091,11.2458323 -0.244095093,13.354255 0.0927292424,15.4249925 C1.92817779,26.7110485 9.03077791,36.6816346 19.1111004,42.1506855 C20.0321441,44.3651346 21.0752256,46.4626228 22.2368302,48.4167897 C25.94717,54.6602437 30.5598084,58.9751099 35.6369715,61.0618586 C36.1514829,66.264379 32.6897097,71.1929489 27.4762548,72.3674407 C27.465125,72.3699791 27.4573146,72.3738843 27.44638,72.3764227 C26.4288776,72.619522 25.6714622,73.53256 25.6714622,74.6244566 L25.6714622,85.2394023 L21.3784652,85.2394023 C17.5509691,85.2394023 14.4371502,88.3532213 14.4371502,92.1807173 L14.4371502,97.659336 C14.4371502,98.9373158 15.4730071,99.9731727 16.7509869,99.9731727 L69.0782583,99.9731727 C70.3562382,99.9731727 71.3920951,98.9373158 71.3920951,97.659336 L71.3920951,92.1807173 C71.3920951,88.3532213 68.2782761,85.2394023 64.4507801,85.2394023 L60.1573926,85.2394023 L60.1573926,74.6246519 C60.1573926,73.5306074 59.3972435,72.6162025 58.3770075,72.3752511 C58.3674397,72.372908 58.3582625,72.3697838 58.3486947,72.3674407 C53.0957972,71.1851385 49.6275805,66.2069724 50.196179,60.9654 C55.1846938,58.8448711 59.7164944,54.5684712 63.3721612,48.4171802 C64.5337658,46.462818 65.5766521,44.3651346 66.497891,42.150295 C76.5776278,36.6810488 83.6798374,26.7106579 85.5152859,15.4249925 C85.8521102,13.354255 85.2620331,11.2460276 83.8965765,9.64079115 Z M4.66026249,14.6820263 C4.53998203,13.9425749 4.74441976,13.2167917 5.23608566,12.6384301 C5.7349762,12.0518676 6.46173572,11.7156291 7.23047625,11.7156291 L14.2163106,11.7156291 L14.2163106,15.9726981 C14.2163106,22.6478731 15.0682321,29.1137287 16.682841,35.026802 C10.3376563,30.012708 5.96889826,22.7289062 4.66026249,14.6820263 Z M64.4507801,89.8672711 C65.7266121,89.8672711 66.7646169,90.9052758 66.7646169,92.1811078 L66.7646169,95.3458897 L19.0646284,95.3458897 L19.0646284,92.1811078 C19.0646284,90.9052758 20.1026332,89.8672711 21.3784652,89.8672711 L64.4507801,89.8672711 L64.4507801,89.8672711 Z M55.5297191,76.9384886 L55.5297191,85.2395976 L30.2995262,85.2395976 L30.2995262,76.9384886 L55.5297191,76.9384886 Z M36.3676362,72.3110104 C36.9395542,71.6814906 37.4624618,70.9990552 37.9301106,70.2685857 C39.4720827,67.8592666 40.2814374,65.1221052 40.3177558,62.3265608 C41.1396072,62.4384451 41.9690737,62.49839 42.8055697,62.49839 C43.7156788,62.49839 44.6173917,62.4284868 45.5103179,62.2961002 C45.5630382,66.0527166 47.0251487,69.6086053 49.4836735,72.3108151 L36.3676362,72.3108151 L36.3676362,72.3110104 Z M66.7642263,15.9728934 C66.7642263,27.3720052 64.1465643,38.0547063 59.3937288,46.0525757 C54.8652477,53.6735924 48.9738484,57.8707166 42.8051791,57.8707166 C36.6355336,57.8707166 30.7437438,53.6737877 26.2146768,46.0529663 C21.4616461,38.0549016 18.8439841,27.3722005 18.8439841,15.9732839 L18.8439841,4.90338128 C18.8439841,4.7510781 18.9677792,4.62747822 19.1196919,4.62747822 L66.488128,4.62747822 C66.6404312,4.62747822 66.7642263,4.75127336 66.7642263,4.90338128 L66.7642263,15.9728934 L66.7642263,15.9728934 Z M80.9477527,14.6820263 C79.6391169,22.7283204 75.2707493,30.011927 68.9257599,35.0264115 C70.5401736,29.1133382 71.3920951,22.6478731 71.3920951,15.9728934 L71.3920951,11.7158243 L78.3771484,11.7158243 C79.1460842,11.7158243 79.8728437,12.0522581 80.371539,12.6386254 C80.8632049,13.2167917 81.0678379,13.9425749 80.9477527,14.6820263 Z" id="Shape"></path>
                <path d="M57.004541,18.2877064 C56.7321527,17.4504295 56.0081268,16.8400452 55.1366793,16.7131259 L48.1545549,15.6985524 L45.0321444,9.3717222 C44.6422093,8.58208881 43.8379313,8.08202671 42.9573065,8.08202671 C42.0764865,8.08202671 41.2722086,8.58208881 40.8824686,9.3717222 L37.7600582,15.6985524 L30.7779338,16.7131259 C29.906291,16.8396547 29.1822652,17.4502342 28.910072,18.2879017 C28.6380742,19.1257644 28.8649669,20.0450508 29.4956582,20.6599261 L34.5480233,25.5845907 L33.355177,32.5384024 C33.2061932,33.4065305 33.5629341,34.2836406 34.2756349,34.8014714 C34.9879451,35.3191069 35.9328106,35.3872528 36.7122905,34.9775963 L42.9573065,31.6946818 L49.2021274,34.9775963 C49.540709,35.1554786 49.9103371,35.2431506 50.2784031,35.2431506 C50.7579629,35.2431506 51.23557,35.0941668 51.6385877,34.8012761 C52.3512884,34.2834453 52.7080293,33.4063352 52.5590456,32.5382071 L51.3661993,25.5843955 L56.4185643,20.6597308 C57.0496462,20.0450508 57.2765389,19.1255692 57.004541,18.2877064 Z M47.2655339,23.1198176 C46.7201713,23.6513167 46.4712142,24.4171283 46.6000861,25.1679049 L47.2057842,28.700167 L44.0337776,27.0324472 C43.6969533,26.8551507 43.3269346,26.766893 42.9571113,26.766893 C42.5872879,26.766893 42.2174646,26.8555412 41.880445,27.0324472 L38.7084384,28.700167 L39.3141364,25.1679049 C39.4430083,24.4173236 39.1940512,23.6515119 38.6486887,23.1198176 L36.0827707,20.6185308 L39.6290916,20.1030432 C40.3826018,19.9936973 41.034186,19.5201906 41.3712056,18.8373647 L42.9573065,15.6237677 L44.5432122,18.8373647 C44.8804271,19.5201906 45.5316208,19.993502 46.2853262,20.1030432 L49.8316472,20.6185308 L47.2655339,23.1198176 Z" id="Shape"></path>
            </g>
            <g id="trophy_12" transform="translate(480.000000, 416.000000)" fill-rule="nonzero" fill="#9B9B9B">
                <path d="M83.8965765,9.64079115 C82.5170612,8.01856705 80.5052924,7.08854136 78.3771484,7.08854136 L71.3920951,7.08854136 L71.3920951,4.90357654 C71.3920951,2.19980462 69.1920952,0 66.4885185,0 L19.1198871,0 C16.4159199,0 14.2165059,2.19980462 14.2165059,4.90338128 L14.2165059,7.0883461 L7.23067151,7.0883461 C5.10252749,7.0883461 3.09056346,8.01856705 1.7112434,9.64059589 C0.345982091,11.2458323 -0.244095093,13.354255 0.0927292424,15.4249925 C1.92817779,26.7110485 9.03077791,36.6816346 19.1111004,42.1506855 C20.0321441,44.3651346 21.0752256,46.4626228 22.2368302,48.4167897 C25.94717,54.6602437 30.5598084,58.9751099 35.6369715,61.0618586 C36.1514829,66.264379 32.6897097,71.1929489 27.4762548,72.3674407 C27.465125,72.3699791 27.4573146,72.3738843 27.44638,72.3764227 C26.4288776,72.619522 25.6714622,73.53256 25.6714622,74.6244566 L25.6714622,85.2394023 L21.3784652,85.2394023 C17.5509691,85.2394023 14.4371502,88.3532213 14.4371502,92.1807173 L14.4371502,97.659336 C14.4371502,98.9373158 15.4730071,99.9731727 16.7509869,99.9731727 L69.0782583,99.9731727 C70.3562382,99.9731727 71.3920951,98.9373158 71.3920951,97.659336 L71.3920951,92.1807173 C71.3920951,88.3532213 68.2782761,85.2394023 64.4507801,85.2394023 L60.1573926,85.2394023 L60.1573926,74.6246519 C60.1573926,73.5306074 59.3972435,72.6162025 58.3770075,72.3752511 C58.3674397,72.372908 58.3582625,72.3697838 58.3486947,72.3674407 C53.0957972,71.1851385 49.6275805,66.2069724 50.196179,60.9654 C55.1846938,58.8448711 59.7164944,54.5684712 63.3721612,48.4171802 C64.5337658,46.462818 65.5766521,44.3651346 66.497891,42.150295 C76.5776278,36.6810488 83.6798374,26.7106579 85.5152859,15.4249925 C85.8521102,13.354255 85.2620331,11.2460276 83.8965765,9.64079115 Z M4.66026249,14.6820263 C4.53998203,13.9425749 4.74441976,13.2167917 5.23608566,12.6384301 C5.7349762,12.0518676 6.46173572,11.7156291 7.23047625,11.7156291 L14.2163106,11.7156291 L14.2163106,15.9726981 C14.2163106,22.6478731 15.0682321,29.1137287 16.682841,35.026802 C10.3376563,30.012708 5.96889826,22.7289062 4.66026249,14.6820263 Z M64.4507801,89.8672711 C65.7266121,89.8672711 66.7646169,90.9052758 66.7646169,92.1811078 L66.7646169,95.3458897 L19.0646284,95.3458897 L19.0646284,92.1811078 C19.0646284,90.9052758 20.1026332,89.8672711 21.3784652,89.8672711 L64.4507801,89.8672711 L64.4507801,89.8672711 Z M55.5297191,76.9384886 L55.5297191,85.2395976 L30.2995262,85.2395976 L30.2995262,76.9384886 L55.5297191,76.9384886 Z M36.3676362,72.3110104 C36.9395542,71.6814906 37.4624618,70.9990552 37.9301106,70.2685857 C39.4720827,67.8592666 40.2814374,65.1221052 40.3177558,62.3265608 C41.1396072,62.4384451 41.9690737,62.49839 42.8055697,62.49839 C43.7156788,62.49839 44.6173917,62.4284868 45.5103179,62.2961002 C45.5630382,66.0527166 47.0251487,69.6086053 49.4836735,72.3108151 L36.3676362,72.3108151 L36.3676362,72.3110104 Z M66.7642263,15.9728934 C66.7642263,27.3720052 64.1465643,38.0547063 59.3937288,46.0525757 C54.8652477,53.6735924 48.9738484,57.8707166 42.8051791,57.8707166 C36.6355336,57.8707166 30.7437438,53.6737877 26.2146768,46.0529663 C21.4616461,38.0549016 18.8439841,27.3722005 18.8439841,15.9732839 L18.8439841,4.90338128 C18.8439841,4.7510781 18.9677792,4.62747822 19.1196919,4.62747822 L66.488128,4.62747822 C66.6404312,4.62747822 66.7642263,4.75127336 66.7642263,4.90338128 L66.7642263,15.9728934 L66.7642263,15.9728934 Z M80.9477527,14.6820263 C79.6391169,22.7283204 75.2707493,30.011927 68.9257599,35.0264115 C70.5401736,29.1133382 71.3920951,22.6478731 71.3920951,15.9728934 L71.3920951,11.7158243 L78.3771484,11.7158243 C79.1460842,11.7158243 79.8728437,12.0522581 80.371539,12.6386254 C80.8632049,13.2167917 81.0678379,13.9425749 80.9477527,14.6820263 Z" id="Shape"></path>
                <path d="M57.004541,18.2877064 C56.7321527,17.4504295 56.0081268,16.8400452 55.1366793,16.7131259 L48.1545549,15.6985524 L45.0321444,9.3717222 C44.6422093,8.58208881 43.8379313,8.08202671 42.9573065,8.08202671 C42.0764865,8.08202671 41.2722086,8.58208881 40.8824686,9.3717222 L37.7600582,15.6985524 L30.7779338,16.7131259 C29.906291,16.8396547 29.1822652,17.4502342 28.910072,18.2879017 C28.6380742,19.1257644 28.8649669,20.0450508 29.4956582,20.6599261 L34.5480233,25.5845907 L33.355177,32.5384024 C33.2061932,33.4065305 33.5629341,34.2836406 34.2756349,34.8014714 C34.9879451,35.3191069 35.9328106,35.3872528 36.7122905,34.9775963 L42.9573065,31.6946818 L49.2021274,34.9775963 C49.540709,35.1554786 49.9103371,35.2431506 50.2784031,35.2431506 C50.7579629,35.2431506 51.23557,35.0941668 51.6385877,34.8012761 C52.3512884,34.2834453 52.7080293,33.4063352 52.5590456,32.5382071 L51.3661993,25.5843955 L56.4185643,20.6597308 C57.0496462,20.0450508 57.2765389,19.1255692 57.004541,18.2877064 Z M47.2655339,23.1198176 C46.7201713,23.6513167 46.4712142,24.4171283 46.6000861,25.1679049 L47.2057842,28.700167 L44.0337776,27.0324472 C43.6969533,26.8551507 43.3269346,26.766893 42.9571113,26.766893 C42.5872879,26.766893 42.2174646,26.8555412 41.880445,27.0324472 L38.7084384,28.700167 L39.3141364,25.1679049 C39.4430083,24.4173236 39.1940512,23.6515119 38.6486887,23.1198176 L36.0827707,20.6185308 L39.6290916,20.1030432 C40.3826018,19.9936973 41.034186,19.5201906 41.3712056,18.8373647 L42.9573065,15.6237677 L44.5432122,18.8373647 C44.8804271,19.5201906 45.5316208,19.993502 46.2853262,20.1030432 L49.8316472,20.6185308 L47.2655339,23.1198176 Z" id="Shape"></path>
            </g>
            <g id="trophy_13" transform="translate(650.000000, 416.000000)" fill-rule="nonzero" fill="#9B9B9B">
                <path d="M83.8965765,9.64079115 C82.5170612,8.01856705 80.5052924,7.08854136 78.3771484,7.08854136 L71.3920951,7.08854136 L71.3920951,4.90357654 C71.3920951,2.19980462 69.1920952,0 66.4885185,0 L19.1198871,0 C16.4159199,0 14.2165059,2.19980462 14.2165059,4.90338128 L14.2165059,7.0883461 L7.23067151,7.0883461 C5.10252749,7.0883461 3.09056346,8.01856705 1.7112434,9.64059589 C0.345982091,11.2458323 -0.244095093,13.354255 0.0927292424,15.4249925 C1.92817779,26.7110485 9.03077791,36.6816346 19.1111004,42.1506855 C20.0321441,44.3651346 21.0752256,46.4626228 22.2368302,48.4167897 C25.94717,54.6602437 30.5598084,58.9751099 35.6369715,61.0618586 C36.1514829,66.264379 32.6897097,71.1929489 27.4762548,72.3674407 C27.465125,72.3699791 27.4573146,72.3738843 27.44638,72.3764227 C26.4288776,72.619522 25.6714622,73.53256 25.6714622,74.6244566 L25.6714622,85.2394023 L21.3784652,85.2394023 C17.5509691,85.2394023 14.4371502,88.3532213 14.4371502,92.1807173 L14.4371502,97.659336 C14.4371502,98.9373158 15.4730071,99.9731727 16.7509869,99.9731727 L69.0782583,99.9731727 C70.3562382,99.9731727 71.3920951,98.9373158 71.3920951,97.659336 L71.3920951,92.1807173 C71.3920951,88.3532213 68.2782761,85.2394023 64.4507801,85.2394023 L60.1573926,85.2394023 L60.1573926,74.6246519 C60.1573926,73.5306074 59.3972435,72.6162025 58.3770075,72.3752511 C58.3674397,72.372908 58.3582625,72.3697838 58.3486947,72.3674407 C53.0957972,71.1851385 49.6275805,66.2069724 50.196179,60.9654 C55.1846938,58.8448711 59.7164944,54.5684712 63.3721612,48.4171802 C64.5337658,46.462818 65.5766521,44.3651346 66.497891,42.150295 C76.5776278,36.6810488 83.6798374,26.7106579 85.5152859,15.4249925 C85.8521102,13.354255 85.2620331,11.2460276 83.8965765,9.64079115 Z M4.66026249,14.6820263 C4.53998203,13.9425749 4.74441976,13.2167917 5.23608566,12.6384301 C5.7349762,12.0518676 6.46173572,11.7156291 7.23047625,11.7156291 L14.2163106,11.7156291 L14.2163106,15.9726981 C14.2163106,22.6478731 15.0682321,29.1137287 16.682841,35.026802 C10.3376563,30.012708 5.96889826,22.7289062 4.66026249,14.6820263 Z M64.4507801,89.8672711 C65.7266121,89.8672711 66.7646169,90.9052758 66.7646169,92.1811078 L66.7646169,95.3458897 L19.0646284,95.3458897 L19.0646284,92.1811078 C19.0646284,90.9052758 20.1026332,89.8672711 21.3784652,89.8672711 L64.4507801,89.8672711 L64.4507801,89.8672711 Z M55.5297191,76.9384886 L55.5297191,85.2395976 L30.2995262,85.2395976 L30.2995262,76.9384886 L55.5297191,76.9384886 Z M36.3676362,72.3110104 C36.9395542,71.6814906 37.4624618,70.9990552 37.9301106,70.2685857 C39.4720827,67.8592666 40.2814374,65.1221052 40.3177558,62.3265608 C41.1396072,62.4384451 41.9690737,62.49839 42.8055697,62.49839 C43.7156788,62.49839 44.6173917,62.4284868 45.5103179,62.2961002 C45.5630382,66.0527166 47.0251487,69.6086053 49.4836735,72.3108151 L36.3676362,72.3108151 L36.3676362,72.3110104 Z M66.7642263,15.9728934 C66.7642263,27.3720052 64.1465643,38.0547063 59.3937288,46.0525757 C54.8652477,53.6735924 48.9738484,57.8707166 42.8051791,57.8707166 C36.6355336,57.8707166 30.7437438,53.6737877 26.2146768,46.0529663 C21.4616461,38.0549016 18.8439841,27.3722005 18.8439841,15.9732839 L18.8439841,4.90338128 C18.8439841,4.7510781 18.9677792,4.62747822 19.1196919,4.62747822 L66.488128,4.62747822 C66.6404312,4.62747822 66.7642263,4.75127336 66.7642263,4.90338128 L66.7642263,15.9728934 L66.7642263,15.9728934 Z M80.9477527,14.6820263 C79.6391169,22.7283204 75.2707493,30.011927 68.9257599,35.0264115 C70.5401736,29.1133382 71.3920951,22.6478731 71.3920951,15.9728934 L71.3920951,11.7158243 L78.3771484,11.7158243 C79.1460842,11.7158243 79.8728437,12.0522581 80.371539,12.6386254 C80.8632049,13.2167917 81.0678379,13.9425749 80.9477527,14.6820263 Z" id="Shape"></path>
                <path d="M57.004541,18.2877064 C56.7321527,17.4504295 56.0081268,16.8400452 55.1366793,16.7131259 L48.1545549,15.6985524 L45.0321444,9.3717222 C44.6422093,8.58208881 43.8379313,8.08202671 42.9573065,8.08202671 C42.0764865,8.08202671 41.2722086,8.58208881 40.8824686,9.3717222 L37.7600582,15.6985524 L30.7779338,16.7131259 C29.906291,16.8396547 29.1822652,17.4502342 28.910072,18.2879017 C28.6380742,19.1257644 28.8649669,20.0450508 29.4956582,20.6599261 L34.5480233,25.5845907 L33.355177,32.5384024 C33.2061932,33.4065305 33.5629341,34.2836406 34.2756349,34.8014714 C34.9879451,35.3191069 35.9328106,35.3872528 36.7122905,34.9775963 L42.9573065,31.6946818 L49.2021274,34.9775963 C49.540709,35.1554786 49.9103371,35.2431506 50.2784031,35.2431506 C50.7579629,35.2431506 51.23557,35.0941668 51.6385877,34.8012761 C52.3512884,34.2834453 52.7080293,33.4063352 52.5590456,32.5382071 L51.3661993,25.5843955 L56.4185643,20.6597308 C57.0496462,20.0450508 57.2765389,19.1255692 57.004541,18.2877064 Z M47.2655339,23.1198176 C46.7201713,23.6513167 46.4712142,24.4171283 46.6000861,25.1679049 L47.2057842,28.700167 L44.0337776,27.0324472 C43.6969533,26.8551507 43.3269346,26.766893 42.9571113,26.766893 C42.5872879,26.766893 42.2174646,26.8555412 41.880445,27.0324472 L38.7084384,28.700167 L39.3141364,25.1679049 C39.4430083,24.4173236 39.1940512,23.6515119 38.6486887,23.1198176 L36.0827707,20.6185308 L39.6290916,20.1030432 C40.3826018,19.9936973 41.034186,19.5201906 41.3712056,18.8373647 L42.9573065,15.6237677 L44.5432122,18.8373647 C44.8804271,19.5201906 45.5316208,19.993502 46.2853262,20.1030432 L49.8316472,20.6185308 L47.2655339,23.1198176 Z" id="Shape"></path>
            </g>
            <g id="trophy_14" transform="translate(819.000000, 416.000000)" fill-rule="nonzero" fill="#9B9B9B">
                <path d="M83.8965765,9.64079115 C82.5170612,8.01856705 80.5052924,7.08854136 78.3771484,7.08854136 L71.3920951,7.08854136 L71.3920951,4.90357654 C71.3920951,2.19980462 69.1920952,0 66.4885185,0 L19.1198871,0 C16.4159199,0 14.2165059,2.19980462 14.2165059,4.90338128 L14.2165059,7.0883461 L7.23067151,7.0883461 C5.10252749,7.0883461 3.09056346,8.01856705 1.7112434,9.64059589 C0.345982091,11.2458323 -0.244095093,13.354255 0.0927292424,15.4249925 C1.92817779,26.7110485 9.03077791,36.6816346 19.1111004,42.1506855 C20.0321441,44.3651346 21.0752256,46.4626228 22.2368302,48.4167897 C25.94717,54.6602437 30.5598084,58.9751099 35.6369715,61.0618586 C36.1514829,66.264379 32.6897097,71.1929489 27.4762548,72.3674407 C27.465125,72.3699791 27.4573146,72.3738843 27.44638,72.3764227 C26.4288776,72.619522 25.6714622,73.53256 25.6714622,74.6244566 L25.6714622,85.2394023 L21.3784652,85.2394023 C17.5509691,85.2394023 14.4371502,88.3532213 14.4371502,92.1807173 L14.4371502,97.659336 C14.4371502,98.9373158 15.4730071,99.9731727 16.7509869,99.9731727 L69.0782583,99.9731727 C70.3562382,99.9731727 71.3920951,98.9373158 71.3920951,97.659336 L71.3920951,92.1807173 C71.3920951,88.3532213 68.2782761,85.2394023 64.4507801,85.2394023 L60.1573926,85.2394023 L60.1573926,74.6246519 C60.1573926,73.5306074 59.3972435,72.6162025 58.3770075,72.3752511 C58.3674397,72.372908 58.3582625,72.3697838 58.3486947,72.3674407 C53.0957972,71.1851385 49.6275805,66.2069724 50.196179,60.9654 C55.1846938,58.8448711 59.7164944,54.5684712 63.3721612,48.4171802 C64.5337658,46.462818 65.5766521,44.3651346 66.497891,42.150295 C76.5776278,36.6810488 83.6798374,26.7106579 85.5152859,15.4249925 C85.8521102,13.354255 85.2620331,11.2460276 83.8965765,9.64079115 Z M4.66026249,14.6820263 C4.53998203,13.9425749 4.74441976,13.2167917 5.23608566,12.6384301 C5.7349762,12.0518676 6.46173572,11.7156291 7.23047625,11.7156291 L14.2163106,11.7156291 L14.2163106,15.9726981 C14.2163106,22.6478731 15.0682321,29.1137287 16.682841,35.026802 C10.3376563,30.012708 5.96889826,22.7289062 4.66026249,14.6820263 Z M64.4507801,89.8672711 C65.7266121,89.8672711 66.7646169,90.9052758 66.7646169,92.1811078 L66.7646169,95.3458897 L19.0646284,95.3458897 L19.0646284,92.1811078 C19.0646284,90.9052758 20.1026332,89.8672711 21.3784652,89.8672711 L64.4507801,89.8672711 L64.4507801,89.8672711 Z M55.5297191,76.9384886 L55.5297191,85.2395976 L30.2995262,85.2395976 L30.2995262,76.9384886 L55.5297191,76.9384886 Z M36.3676362,72.3110104 C36.9395542,71.6814906 37.4624618,70.9990552 37.9301106,70.2685857 C39.4720827,67.8592666 40.2814374,65.1221052 40.3177558,62.3265608 C41.1396072,62.4384451 41.9690737,62.49839 42.8055697,62.49839 C43.7156788,62.49839 44.6173917,62.4284868 45.5103179,62.2961002 C45.5630382,66.0527166 47.0251487,69.6086053 49.4836735,72.3108151 L36.3676362,72.3108151 L36.3676362,72.3110104 Z M66.7642263,15.9728934 C66.7642263,27.3720052 64.1465643,38.0547063 59.3937288,46.0525757 C54.8652477,53.6735924 48.9738484,57.8707166 42.8051791,57.8707166 C36.6355336,57.8707166 30.7437438,53.6737877 26.2146768,46.0529663 C21.4616461,38.0549016 18.8439841,27.3722005 18.8439841,15.9732839 L18.8439841,4.90338128 C18.8439841,4.7510781 18.9677792,4.62747822 19.1196919,4.62747822 L66.488128,4.62747822 C66.6404312,4.62747822 66.7642263,4.75127336 66.7642263,4.90338128 L66.7642263,15.9728934 L66.7642263,15.9728934 Z M80.9477527,14.6820263 C79.6391169,22.7283204 75.2707493,30.011927 68.9257599,35.0264115 C70.5401736,29.1133382 71.3920951,22.6478731 71.3920951,15.9728934 L71.3920951,11.7158243 L78.3771484,11.7158243 C79.1460842,11.7158243 79.8728437,12.0522581 80.371539,12.6386254 C80.8632049,13.2167917 81.0678379,13.9425749 80.9477527,14.6820263 Z" id="Shape"></path>
                <path d="M57.004541,18.2877064 C56.7321527,17.4504295 56.0081268,16.8400452 55.1366793,16.7131259 L48.1545549,15.6985524 L45.0321444,9.3717222 C44.6422093,8.58208881 43.8379313,8.08202671 42.9573065,8.08202671 C42.0764865,8.08202671 41.2722086,8.58208881 40.8824686,9.3717222 L37.7600582,15.6985524 L30.7779338,16.7131259 C29.906291,16.8396547 29.1822652,17.4502342 28.910072,18.2879017 C28.6380742,19.1257644 28.8649669,20.0450508 29.4956582,20.6599261 L34.5480233,25.5845907 L33.355177,32.5384024 C33.2061932,33.4065305 33.5629341,34.2836406 34.2756349,34.8014714 C34.9879451,35.3191069 35.9328106,35.3872528 36.7122905,34.9775963 L42.9573065,31.6946818 L49.2021274,34.9775963 C49.540709,35.1554786 49.9103371,35.2431506 50.2784031,35.2431506 C50.7579629,35.2431506 51.23557,35.0941668 51.6385877,34.8012761 C52.3512884,34.2834453 52.7080293,33.4063352 52.5590456,32.5382071 L51.3661993,25.5843955 L56.4185643,20.6597308 C57.0496462,20.0450508 57.2765389,19.1255692 57.004541,18.2877064 Z M47.2655339,23.1198176 C46.7201713,23.6513167 46.4712142,24.4171283 46.6000861,25.1679049 L47.2057842,28.700167 L44.0337776,27.0324472 C43.6969533,26.8551507 43.3269346,26.766893 42.9571113,26.766893 C42.5872879,26.766893 42.2174646,26.8555412 41.880445,27.0324472 L38.7084384,28.700167 L39.3141364,25.1679049 C39.4430083,24.4173236 39.1940512,23.6515119 38.6486887,23.1198176 L36.0827707,20.6185308 L39.6290916,20.1030432 C40.3826018,19.9936973 41.034186,19.5201906 41.3712056,18.8373647 L42.9573065,15.6237677 L44.5432122,18.8373647 C44.8804271,19.5201906 45.5316208,19.993502 46.2853262,20.1030432 L49.8316472,20.6185308 L47.2655339,23.1198176 Z" id="Shape"></path>
            </g>
            <g id="1st_row_path" transform="translate(29.000000, 104.000000)" stroke-linecap="round">
                <path d="M28.5,10.5 L111.5,10.5 C114.261424,10.5 116.5,8.26142375 116.5,5.5 C116.5,2.73857625 114.261424,0.5 111.5,0.5 L28.5,0.5 C25.7385763,0.5 23.5,2.73857625 23.5,5.5 C23.5,8.26142375 25.7385763,10.5 28.5,10.5 Z" id="line_ext_0" fill="#9B9B9B"></path>
                <path d="M28.5,8.5 L111.5,8.5 C113.156854,8.5 114.5,7.15685425 114.5,5.5 C114.5,3.84314575 113.156854,2.5 111.5,2.5 L28.5,2.5 C26.8431458,2.5 25.5,3.84314575 25.5,5.5 C25.5,7.15685425 26.8431458,8.5 28.5,8.5 Z" id="line_int_0" fill="#CBC7CC"></path>
                <path d="M198.5,12.5 L281.5,12.5 C284.261424,12.5 286.5,10.2614237 286.5,7.5 C286.5,4.73857625 284.261424,2.5 281.5,2.5 L198.5,2.5 C195.738576,2.5 193.5,4.73857625 193.5,7.5 C193.5,10.2614237 195.738576,12.5 198.5,12.5 Z" id="line_ext_1" fill="#9B9B9B"></path>
                <path d="M198.5,10.5 L281.5,10.5 C283.156854,10.5 284.5,9.15685425 284.5,7.5 C284.5,5.84314575 283.156854,4.5 281.5,4.5 L198.5,4.5 C196.843146,4.5 195.5,5.84314575 195.5,7.5 C195.5,9.15685425 196.843146,10.5 198.5,10.5 Z" id="line_int_1" fill="#CBC7CC"></path>
                <path d="M367.5,12.5 L450.5,12.5 C453.261424,12.5 455.5,10.2614237 455.5,7.5 C455.5,4.73857625 453.261424,2.5 450.5,2.5 L367.5,2.5 C364.738576,2.5 362.5,4.73857625 362.5,7.5 C362.5,10.2614237 364.738576,12.5 367.5,12.5 Z" id="line_ext_2" fill="#9B9B9B"></path>
                <path d="M367.5,10.5 L450.5,10.5 C452.156854,10.5 453.5,9.15685425 453.5,7.5 C453.5,5.84314575 452.156854,4.5 450.5,4.5 L367.5,4.5 C365.843146,4.5 364.5,5.84314575 364.5,7.5 C364.5,9.15685425 365.843146,10.5 367.5,10.5 Z" id="line_int_2" fill="#CBC7CC"></path>
                <path d="M538.5,12.5 L621.5,12.5 C624.261424,12.5 626.5,10.2614237 626.5,7.5 C626.5,4.73857625 624.261424,2.5 621.5,2.5 L538.5,2.5 C535.738576,2.5 533.5,4.73857625 533.5,7.5 C533.5,10.2614237 535.738576,12.5 538.5,12.5 Z" id="line_ext_3" fill="#9B9B9B"></path>
                <path d="M538.5,10.5 L621.5,10.5 C623.156854,10.5 624.5,9.15685425 624.5,7.5 C624.5,5.84314575 623.156854,4.5 621.5,4.5 L538.5,4.5 C536.843146,4.5 535.5,5.84314575 535.5,7.5 C535.5,9.15685425 536.843146,10.5 538.5,10.5 Z" id="line_int_3" fill="#CBC7CC"></path>
                <path d="M708.5,12.5 L791.5,12.5 C794.261424,12.5 796.5,10.2614237 796.5,7.5 C796.5,4.73857625 794.261424,2.5 791.5,2.5 L708.5,2.5 C705.738576,2.5 703.5,4.73857625 703.5,7.5 C703.5,10.2614237 705.738576,12.5 708.5,12.5 Z" id="line_ext_4" fill="#9B9B9B"></path>
                <path d="M708.5,10.5 L791.5,10.5 C793.156854,10.5 794.5,9.15685425 794.5,7.5 C794.5,5.84314575 793.156854,4.5 791.5,4.5 L708.5,4.5 C706.843146,4.5 705.5,5.84314575 705.5,7.5 C705.5,9.15685425 706.843146,10.5 708.5,10.5 Z" id="line_int_4" fill="#CBC7CC"></path>
                <path d="M990.219205,49.2521569 C990.227817,69.2156471 980.478403,81.1128856 959.923685,86 L33.7158768,86 C7.77026445,94.8888904 -5.00878815,112.463144 -4.60307067,138.046879 C-4.19688591,163.660079 8.69613658,180.282988 33.2607133,186.831285 L110.423764,187 C113.185188,187 115.423764,184.761424 115.423764,182 C115.423764,179.238576 113.185188,177 110.423764,177 L35.2156373,177 C15.4042408,171.513093 5.72771487,158.826268 5.39567212,137.888314 C5.0638432,116.963845 14.8047477,103.304844 35.3950107,96 L961.066798,96 C987.004926,90.0427795 1000.22994,74.1396388 1000.2192,49.2478431 C1000.20861,24.6838265 986.974319,8.96012394 961.621026,3.12729026 L877.53012,2.50009072 C874.768746,2.48345594 872.516726,4.70850642 872.500091,7.46988006 C872.483456,10.2312537 874.708506,12.4832745 877.46988,12.4999093 L959.908272,12.9965261 C980.466047,17.8856763 990.210741,29.6295262 990.219205,49.2521569 Z" id="line_ext_5" fill="#9B9B9B"></path>
                <path d="M992.219205,49.2512941 C992.228257,70.2344383 981.752481,82.9370986 960.15652,88.0000014 L34.048971,88 C9.22598492,96.5042819 -2.99508816,113.31118 -2.60332211,138.015166 C-2.21127569,162.736831 10.0781793,178.581563 33.7758728,184.898771 L110.423764,185 C112.080618,185 113.423764,183.656854 113.423764,182 C113.423764,180.343146 112.080618,179 110.423764,179 L34.9458828,179 C14.0999643,173.316209 3.74347458,159.835901 3.39592356,137.920027 C3.04850938,116.012782 13.4431355,101.557906 35.0531177,93.9999983 L960.840079,94 C985.665295,88.2983825 998.229532,73.1898314 998.219205,49.2487059 C998.20902,25.6394358 985.639219,10.7052142 961.172616,5.07637416 L877.518072,4.50005443 C875.861248,4.49007356 874.510035,5.82510385 874.500054,7.48192804 C874.490074,9.13875223 875.825104,10.4899647 877.481928,10.4999456 L960.147181,10.997929 C981.737329,16.0638431 992.2103,28.6079282 992.219205,49.2512941 Z" id="line_int_5" fill="#CBC7CC"></path>
            </g>
            <g id="2nd_row_path" transform="translate(29.000000, 281.000000)" stroke-linecap="round">
                                <path d="M203.5,10.5 L286.5,10.5 C289.261424,10.5 291.5,8.26142375 291.5,5.5 C291.5,2.73857625 289.261424,0.5 286.5,0.5 L203.5,0.5 C200.738576,0.5 198.5,2.73857625 198.5,5.5 C198.5,8.26142375 200.738576,10.5 203.5,10.5 Z" id="line_ext_6" fill="#9B9B9B"></path>
                <path d="M203.5,8.5 L286.5,8.5 C288.156854,8.5 289.5,7.15685425 289.5,5.5 C289.5,3.84314575 288.156854,2.5 286.5,2.5 L203.5,2.5 C201.843146,2.5 200.5,3.84314575 200.5,5.5 C200.5,7.15685425 201.843146,8.5 203.5,8.5 Z" id="line_int_6" fill="#CBC7CC"></path>
                <path d="M372.5,10.5 L455.5,10.5 C458.261424,10.5 460.5,8.26142375 460.5,5.5 C460.5,2.73857625 458.261424,0.5 455.5,0.5 L372.5,0.5 C369.738576,0.5 367.5,2.73857625 367.5,5.5 C367.5,8.26142375 369.738576,10.5 372.5,10.5 Z" id="line_ext_7" fill="#9B9B9B"></path>
                <path d="M372.5,8.5 L455.5,8.5 C457.156854,8.5 458.5,7.15685425 458.5,5.5 C458.5,3.84314575 457.156854,2.5 455.5,2.5 L372.5,2.5 C370.843146,2.5 369.5,3.84314575 369.5,5.5 C369.5,7.15685425 370.843146,8.5 372.5,8.5 Z" id="line_int_7" fill="#CBC7CC"></path>
                <path d="M543.5,10.5 L626.5,10.5 C629.261424,10.5 631.5,8.26142375 631.5,5.5 C631.5,2.73857625 629.261424,0.5 626.5,0.5 L543.5,0.5 C540.738576,0.5 538.5,2.73857625 538.5,5.5 C538.5,8.26142375 540.738576,10.5 543.5,10.5 Z" id="line_ext_8" fill="#9B9B9B"></path>
                <path d="M543.5,8.5 L626.5,8.5 C628.156854,8.5 629.5,7.15685425 629.5,5.5 C629.5,3.84314575 628.156854,2.5 626.5,2.5 L543.5,2.5 C541.843146,2.5 540.5,3.84314575 540.5,5.5 C540.5,7.15685425 541.843146,8.5 543.5,8.5 Z" id="line_int_8" fill="#CBC7CC"></path>
                <path d="M713.5,10.5 L796.5,10.5 C799.261424,10.5 801.5,8.26142375 801.5,5.5 C801.5,2.73857625 799.261424,0.5 796.5,0.5 L713.5,0.5 C710.738576,0.5 708.5,2.73857625 708.5,5.5 C708.5,8.26142375 710.738576,10.5 713.5,10.5 Z" id="line_ext_9" fill="#9B9B9B"></path>
                <path d="M713.5,8.5 L796.5,8.5 C798.156854,8.5 799.5,7.15685425 799.5,5.5 C799.5,3.84314575 798.156854,2.5 796.5,2.5 L713.5,2.5 C711.843146,2.5 710.5,3.84314575 710.5,5.5 C710.5,7.15685425 711.843146,8.5 713.5,8.5 Z" id="line_int_9" fill="#CBC7CC"></path>
                <path d="M995.219205,47.2521569 C995.227817,67.2156471 985.478403,79.1128856 964.923685,84 L38.7158768,84 C12.7702645,92.8888904 -0.00878814592,110.463144 0.39692933,136.046879 C0.803114092,161.660079 13.6961366,178.282988 38.2607133,184.831285 L115.423764,185 C118.185188,185 120.423764,182.761424 120.423764,180 C120.423764,177.238576 118.185188,175 115.423764,175 L40.2156373,175 C20.4042408,169.513093 10.7277149,156.826268 10.3956721,135.888314 C10.0638432,114.963845 19.8047477,101.304844 40.3950107,94 L966.066798,94 C992.004926,88.0427795 1005.22994,72.1396388 1005.2192,47.2478431 C1005.20861,22.6838265 991.974319,6.96012394 966.621026,1.12729026 L882.53012,0.500090722 C879.768746,0.483455941 877.516726,2.70850642 877.500091,5.46988006 C877.483456,8.23125371 879.708506,10.4832745 882.46988,10.4999093 L964.908272,10.9965261 C985.466047,15.8856763 995.210741,27.6295262 995.219205,47.2521569 Z" id="line_ext_10" fill="#9B9B9B"></path>
                <path d="M997.219205,47.2512941 C997.228257,68.2344383 986.752481,80.9370986 965.15652,86.0000014 L39.048971,86 C14.2259849,94.5042819 2.00491184,111.31118 2.39667789,136.015166 C2.78872431,160.736831 15.0781793,176.581563 38.7758728,182.898771 L115.423764,183 C117.080618,183 118.423764,181.656854 118.423764,180 C118.423764,178.343146 117.080618,177 115.423764,177 L39.9458828,177 C19.0999643,171.316209 8.74347458,157.835901 8.39592356,135.920027 C8.04850938,114.012782 18.4431355,99.5579059 40.0531177,91.9999983 L965.840079,92 C990.665295,86.2983825 1003.22953,71.1898314 1003.2192,47.2487059 C1003.20902,23.6394358 990.639219,8.70521425 966.172616,3.07637416 L882.518072,2.50005443 C880.861248,2.49007356 879.510035,3.82510385 879.500054,5.48192804 C879.490074,7.13875223 880.825104,8.4899647 882.481928,8.49994557 L965.147181,8.99792902 C986.737329,14.0638431 997.2103,26.6079282 997.219205,47.2512941 Z" id="line_int_10" fill="#CBC7CC"></path>
                <path d="M203.5,185.5 L286.5,185.5 C289.261424,185.5 291.5,183.261424 291.5,180.5 C291.5,177.738576 289.261424,175.5 286.5,175.5 L203.5,175.5 C200.738576,175.5 198.5,177.738576 198.5,180.5 C198.5,183.261424 200.738576,185.5 203.5,185.5 Z" id="line_ext_11" fill="#9B9B9B"></path>
                <path d="M203.5,183.5 L286.5,183.5 C288.156854,183.5 289.5,182.156854 289.5,180.5 C289.5,178.843146 288.156854,177.5 286.5,177.5 L203.5,177.5 C201.843146,177.5 200.5,178.843146 200.5,180.5 C200.5,182.156854 201.843146,183.5 203.5,183.5 Z" id="line_int_11" fill="#CBC7CC"></path>
                <path d="M372.5,185.5 L455.5,185.5 C458.261424,185.5 460.5,183.261424 460.5,180.5 C460.5,177.738576 458.261424,175.5 455.5,175.5 L372.5,175.5 C369.738576,175.5 367.5,177.738576 367.5,180.5 C367.5,183.261424 369.738576,185.5 372.5,185.5 Z" id="line_ext_12" fill="#9B9B9B"></path>
                <path d="M372.5,183.5 L455.5,183.5 C457.156854,183.5 458.5,182.156854 458.5,180.5 C458.5,178.843146 457.156854,177.5 455.5,177.5 L372.5,177.5 C370.843146,177.5 369.5,178.843146 369.5,180.5 C369.5,182.156854 370.843146,183.5 372.5,183.5 Z" id="line_int_12" fill="#CBC7CC"></path>
                <path d="M543.5,185.5 L626.5,185.5 C629.261424,185.5 631.5,183.261424 631.5,180.5 C631.5,177.738576 629.261424,175.5 626.5,175.5 L543.5,175.5 C540.738576,175.5 538.5,177.738576 538.5,180.5 C538.5,183.261424 540.738576,185.5 543.5,185.5 Z" id="line_ext_13" fill="#9B9B9B"></path>
                <path d="M543.5,183.5 L626.5,183.5 C628.156854,183.5 629.5,182.156854 629.5,180.5 C629.5,178.843146 628.156854,177.5 626.5,177.5 L543.5,177.5 C541.843146,177.5 540.5,178.843146 540.5,180.5 C540.5,182.156854 541.843146,183.5 543.5,183.5 Z" id="line_int_13" fill="#CBC7CC"></path>
                <path d="M713.5,185.5 L796.5,185.5 C799.261424,185.5 801.5,183.261424 801.5,180.5 C801.5,177.738576 799.261424,175.5 796.5,175.5 L713.5,175.5 C710.738576,175.5 708.5,177.738576 708.5,180.5 C708.5,183.261424 710.738576,185.5 713.5,185.5 Z" id="line_ext_14" fill="#9B9B9B"></path>
                <path d="M713.5,183.5 L796.5,183.5 C798.156854,183.5 799.5,182.156854 799.5,180.5 C799.5,178.843146 798.156854,177.5 796.5,177.5 L713.5,177.5 C711.843146,177.5 710.5,178.843146 710.5,180.5 C710.5,182.156854 711.843146,183.5 713.5,183.5 Z" id="line_int_14" fill="#CBC7CC"></path>
            </g>
        </g>
    </g>
</svg>